<?xml version="1.0" encoding="UTF-8" standalone="no"?>
<!DOCTYPE svg PUBLIC "-//W3C//DTD SVG 1.1//EN"
 "http://www.w3.org/Graphics/SVG/1.1/DTD/svg11.dtd">
<!-- Generated by graphviz version 2.40.1 (20161225.0304)
 -->
<!-- Title: state transitions Pages: 1 -->
<svg width="1899pt" height="2376pt"
 viewBox="0.00 0.00 1898.56 2376.00" xmlns="http://www.w3.org/2000/svg" xmlns:xlink="http://www.w3.org/1999/xlink">
<g id="graph0" class="graph" transform="scale(1 1) rotate(0) translate(4 2372)">
<title>state transitions</title>
<polygon fill="#ffffff" stroke="transparent" points="-4,4 -4,-2372 1894.564,-2372 1894.564,4 -4,4"/>
<g id="clust1" class="cluster">
<title>cluster_Horde User</title>
<path fill="none" stroke="#000000" stroke-width="2" d="M20,-8C20,-8 1870.564,-8 1870.564,-8 1876.564,-8 1882.564,-14 1882.564,-20 1882.564,-20 1882.564,-2348 1882.564,-2348 1882.564,-2354 1876.564,-2360 1870.564,-2360 1870.564,-2360 20,-2360 20,-2360 14,-2360 8,-2354 8,-2348 8,-2348 8,-20 8,-20 8,-14 14,-8 20,-8"/>
<text text-anchor="start" x="915.1154" y="-2341.2" font-family="Helvetica,sans-Serif" font-size="12.00" fill="#000000">Horde User</text>
</g>
<!-- Horde User -->
<!-- initial -->
<g id="node2" class="node">
<title>initial</title>
<ellipse fill="#000000" stroke="#000000" stroke-width="2" cx="21.5" cy="-2180" rx="5.5" ry="5.5"/>
</g>
<!-- selecting_activity -->
<g id="node3" class="node">
<title>selecting_activity</title>
<polygon fill="transparent" stroke="transparent" stroke-width="2" points="175.779,-2198 63.779,-2198 63.779,-2162 175.779,-2162 175.779,-2198"/>
<text text-anchor="start" x="74.4388" y="-2176.2" font-family="Helvetica,sans-Serif" font-size="12.00" fill="#000000">selecting_activity</text>
<path fill="none" stroke="#000000" stroke-width="2" d="M76.1123,-2163C76.1123,-2163 163.4457,-2163 163.4457,-2163 169.1123,-2163 174.779,-2168.6667 174.779,-2174.3333 174.779,-2174.3333 174.779,-2185.6667 174.779,-2185.6667 174.779,-2191.3333 169.1123,-2197 163.4457,-2197 163.4457,-2197 76.1123,-2197 76.1123,-2197 70.4457,-2197 64.779,-2191.3333 64.779,-2185.6667 64.779,-2185.6667 64.779,-2174.3333 64.779,-2174.3333 64.779,-2168.6667 70.4457,-2163 76.1123,-2163"/>
</g>
<!-- initial&#45;&gt;selecting_activity -->
<g id="edge3" class="edge">
<title>initial&#45;&gt;selecting_activity</title>
<path fill="none" stroke="#000000" d="M27.0655,-2180C32.7859,-2180 42.3773,-2180 53.2765,-2180"/>
<polygon fill="#000000" stroke="#000000" points="53.5801,-2183.5001 63.5801,-2180 53.5801,-2176.5001 53.5801,-2183.5001"/>
<text text-anchor="middle" x="45.3895" y="-2183" font-family="Helvetica,sans-Serif" font-size="10.00" fill="#000000"> </text>
</g>
<!-- idling -->
<g id="node4" class="node">
<title>idling</title>
<polygon fill="transparent" stroke="transparent" stroke-width="2" points="330.255,-2271 274.255,-2271 274.255,-2235 330.255,-2235 330.255,-2271"/>
<text text-anchor="start" x="288.2546" y="-2249.2" font-family="Helvetica,sans-Serif" font-size="12.00" fill="#000000">idling</text>
<path fill="none" stroke="#000000" stroke-width="2" d="M286.5883,-2236C286.5883,-2236 317.9217,-2236 317.9217,-2236 323.5883,-2236 329.255,-2241.6667 329.255,-2247.3333 329.255,-2247.3333 329.255,-2258.6667 329.255,-2258.6667 329.255,-2264.3333 323.5883,-2270 317.9217,-2270 317.9217,-2270 286.5883,-2270 286.5883,-2270 280.9217,-2270 275.255,-2264.3333 275.255,-2258.6667 275.255,-2258.6667 275.255,-2247.3333 275.255,-2247.3333 275.255,-2241.6667 280.9217,-2236 286.5883,-2236"/>
</g>
<!-- selecting_activity&#45;&gt;idling -->
<g id="edge9" class="edge">
<title>selecting_activity&#45;&gt;idling</title>
<path fill="none" stroke="#000000" d="M135.1562,-2198.0658C148.7092,-2212.6303 169.8269,-2232.2386 192.779,-2242 215.1363,-2251.5084 242.3009,-2254.284 263.9774,-2254.6698"/>
<polygon fill="#000000" stroke="#000000" points="264.1269,-2258.1699 274.1326,-2254.6862 264.1383,-2251.1699 264.1269,-2258.1699"/>
<text text-anchor="start" x="213.0705" y="-2257" font-family="Helvetica,sans-Serif" font-size="10.00" fill="#000000">idle &#160;&#160;</text>
</g>
<!-- ^opening_horde -->
<g id="node40" class="node">
<title>^opening_horde</title>
<polygon fill="transparent" stroke="#000000" stroke-width="2" points="302.255,-1357.5 289.755,-1345 302.255,-1332.5 314.755,-1345 302.255,-1357.5"/>
<text text-anchor="middle" x="302.255" y="-1342" font-family="Helvetica,sans-Serif" font-size="10.00" fill="#000000"> </text>
</g>
<!-- selecting_activity&#45;&gt;^opening_horde -->
<g id="edge4" class="edge">
<title>selecting_activity&#45;&gt;^opening_horde</title>
<path fill="none" stroke="#000000" d="M123.76,-2161.7833C147.719,-2052.148 272.5422,-1480.9641 297.7968,-1365.4003"/>
<polygon fill="#000000" stroke="#000000" points="301.2654,-1365.9219 299.9811,-1355.4052 294.4268,-1364.4273 301.2654,-1365.9219"/>
<text text-anchor="start" x="192.779" y="-1848" font-family="Helvetica,sans-Serif" font-size="10.00" fill="#000000">go_to_horde &#160;&#160;</text>
</g>
<!-- idling&#45;&gt;selecting_activity -->
<g id="edge10" class="edge">
<title>idling&#45;&gt;selecting_activity</title>
<path fill="none" stroke="#000000" d="M275.2363,-2234.7392C269.4452,-2231.2408 263.2589,-2227.8007 257.255,-2225 234.5528,-2214.41 208.67,-2205.2406 185.5319,-2197.9926"/>
<polygon fill="#000000" stroke="#000000" points="186.3878,-2194.5942 175.8009,-2195.0054 184.3335,-2201.286 186.3878,-2194.5942"/>
<text text-anchor="middle" x="225.017" y="-2228" font-family="Helvetica,sans-Serif" font-size="10.00" fill="#000000"> </text>
</g>
<!-- login_page -->
<g id="node5" class="node">
<title>login_page</title>
<polygon fill="transparent" stroke="transparent" stroke-width="2" points="518.177,-1271 438.177,-1271 438.177,-1235 518.177,-1235 518.177,-1271"/>
<text text-anchor="start" x="448.831" y="-1249.2" font-family="Helvetica,sans-Serif" font-size="12.00" fill="#000000">login_page</text>
<path fill="none" stroke="#000000" stroke-width="2" d="M450.5103,-1236C450.5103,-1236 505.8437,-1236 505.8437,-1236 511.5103,-1236 517.177,-1241.6667 517.177,-1247.3333 517.177,-1247.3333 517.177,-1258.6667 517.177,-1258.6667 517.177,-1264.3333 511.5103,-1270 505.8437,-1270 505.8437,-1270 450.5103,-1270 450.5103,-1270 444.8437,-1270 439.177,-1264.3333 439.177,-1258.6667 439.177,-1258.6667 439.177,-1247.3333 439.177,-1247.3333 439.177,-1241.6667 444.8437,-1236 450.5103,-1236"/>
</g>
<!-- login_page&#45;&gt;login_page -->
<g id="edge11" class="edge">
<title>login_page&#45;&gt;login_page</title>
<path fill="none" stroke="#000000" d="M469.812,-1271.1003C467.7949,-1282.3213 470.5833,-1293 478.177,-1293 483.3977,-1293 486.3471,-1287.9526 487.0252,-1281.1518"/>
<polygon fill="#000000" stroke="#000000" points="490.5182,-1280.9207 486.542,-1271.1003 483.5263,-1281.2569 490.5182,-1280.9207"/>
<text text-anchor="start" x="454.2835" y="-1296" font-family="Helvetica,sans-Serif" font-size="10.00" fill="#000000">fail_login &#160;&#160;</text>
</g>
<!-- selecting_menu -->
<g id="node6" class="node">
<title>selecting_menu</title>
<polygon fill="transparent" stroke="transparent" stroke-width="2" points="687.629,-1271 581.629,-1271 581.629,-1235 687.629,-1235 687.629,-1271"/>
<text text-anchor="start" x="592.6182" y="-1249.2" font-family="Helvetica,sans-Serif" font-size="12.00" fill="#000000">selecting_menu</text>
<path fill="none" stroke="#000000" stroke-width="2" d="M593.9623,-1236C593.9623,-1236 675.2957,-1236 675.2957,-1236 680.9623,-1236 686.629,-1241.6667 686.629,-1247.3333 686.629,-1247.3333 686.629,-1258.6667 686.629,-1258.6667 686.629,-1264.3333 680.9623,-1270 675.2957,-1270 675.2957,-1270 593.9623,-1270 593.9623,-1270 588.2957,-1270 582.629,-1264.3333 582.629,-1258.6667 582.629,-1258.6667 582.629,-1247.3333 582.629,-1247.3333 582.629,-1241.6667 588.2957,-1236 593.9623,-1236"/>
</g>
<!-- login_page&#45;&gt;selecting_menu -->
<g id="edge12" class="edge">
<title>login_page&#45;&gt;selecting_menu</title>
<path fill="none" stroke="#000000" d="M518.4673,-1253C534.5124,-1253 553.367,-1253 571.1639,-1253"/>
<polygon fill="#000000" stroke="#000000" points="571.491,-1256.5001 581.491,-1253 571.4909,-1249.5001 571.491,-1256.5001"/>
<text text-anchor="start" x="535.177" y="-1256" font-family="Helvetica,sans-Serif" font-size="10.00" fill="#000000">login &#160;&#160;</text>
</g>
<!-- mails_page -->
<g id="node7" class="node">
<title>mails_page</title>
<polygon fill="transparent" stroke="transparent" stroke-width="2" points="942.619,-2145 859.619,-2145 859.619,-2109 942.619,-2109 942.619,-2145"/>
<text text-anchor="start" x="870.9464" y="-2123.2" font-family="Helvetica,sans-Serif" font-size="12.00" fill="#000000">mails_page</text>
<path fill="none" stroke="#000000" stroke-width="2" d="M871.9523,-2110C871.9523,-2110 930.2857,-2110 930.2857,-2110 935.9523,-2110 941.619,-2115.6667 941.619,-2121.3333 941.619,-2121.3333 941.619,-2132.6667 941.619,-2132.6667 941.619,-2138.3333 935.9523,-2144 930.2857,-2144 930.2857,-2144 871.9523,-2144 871.9523,-2144 866.2857,-2144 860.619,-2138.3333 860.619,-2132.6667 860.619,-2132.6667 860.619,-2121.3333 860.619,-2121.3333 860.619,-2115.6667 866.2857,-2110 871.9523,-2110"/>
</g>
<!-- selecting_menu&#45;&gt;mails_page -->
<g id="edge14" class="edge">
<title>selecting_menu&#45;&gt;mails_page</title>
<path fill="none" stroke="#000000" d="M636.6006,-1271.1285C642.4736,-1322.6822 661.5925,-1474.259 695.629,-1596 751.1441,-1794.5653 852.6079,-2022.0613 888.2929,-2099.5296"/>
<polygon fill="#000000" stroke="#000000" points="885.1281,-2101.0245 892.5019,-2108.6322 891.4817,-2098.0866 885.1281,-2101.0245"/>
<text text-anchor="start" x="726.8665" y="-1943" font-family="Helvetica,sans-Serif" font-size="10.00" fill="#000000">navigate_mail &#160;&#160;</text>
</g>
<!-- calendar_page -->
<g id="node11" class="node">
<title>calendar_page</title>
<polygon fill="transparent" stroke="transparent" stroke-width="2" points="951.619,-224 850.619,-224 850.619,-188 951.619,-188 951.619,-224"/>
<text text-anchor="start" x="861.9362" y="-202.2" font-family="Helvetica,sans-Serif" font-size="12.00" fill="#000000">calendar_page</text>
<path fill="none" stroke="#000000" stroke-width="2" d="M862.9523,-189C862.9523,-189 939.2857,-189 939.2857,-189 944.9523,-189 950.619,-194.6667 950.619,-200.3333 950.619,-200.3333 950.619,-211.6667 950.619,-211.6667 950.619,-217.3333 944.9523,-223 939.2857,-223 939.2857,-223 862.9523,-223 862.9523,-223 857.2857,-223 851.619,-217.3333 851.619,-211.6667 851.619,-211.6667 851.619,-200.3333 851.619,-200.3333 851.619,-194.6667 857.2857,-189 862.9523,-189"/>
</g>
<!-- selecting_menu&#45;&gt;calendar_page -->
<g id="edge15" class="edge">
<title>selecting_menu&#45;&gt;calendar_page</title>
<path fill="none" stroke="#000000" d="M635.6473,-1234.8983C641.0158,-1141.8665 667.2101,-717.0245 704.629,-591 747.2941,-447.3067 843.0033,-293.46 883.0057,-232.7854"/>
<polygon fill="#000000" stroke="#000000" points="886.0959,-234.4588 888.7112,-224.1918 880.2641,-230.587 886.0959,-234.4588"/>
<text text-anchor="start" x="716.858" y="-594" font-family="Helvetica,sans-Serif" font-size="10.00" fill="#000000">navigate_calendar &#160;&#160;</text>
</g>
<!-- address_book_page -->
<g id="node16" class="node">
<title>address_book_page</title>
<polygon fill="transparent" stroke="transparent" stroke-width="2" points="966.119,-407 836.119,-407 836.119,-371 966.119,-371 966.119,-407"/>
<text text-anchor="start" x="846.7614" y="-385.2" font-family="Helvetica,sans-Serif" font-size="12.00" fill="#000000">address_book_page</text>
<path fill="none" stroke="#000000" stroke-width="2" d="M848.4523,-372C848.4523,-372 953.7857,-372 953.7857,-372 959.4523,-372 965.119,-377.6667 965.119,-383.3333 965.119,-383.3333 965.119,-394.6667 965.119,-394.6667 965.119,-400.3333 959.4523,-406 953.7857,-406 953.7857,-406 848.4523,-406 848.4523,-406 842.7857,-406 837.119,-400.3333 837.119,-394.6667 837.119,-394.6667 837.119,-383.3333 837.119,-383.3333 837.119,-377.6667 842.7857,-372 848.4523,-372"/>
</g>
<!-- selecting_menu&#45;&gt;address_book_page -->
<g id="edge16" class="edge">
<title>selecting_menu&#45;&gt;address_book_page</title>
<path fill="none" stroke="#000000" d="M636.3967,-1234.9385C643.6849,-1162.1749 672.5329,-890.6247 704.629,-811 747.4218,-704.8389 784.6875,-690.9014 828.119,-585 833.0299,-573.0255 832.0019,-569.2701 836.119,-557 852.8883,-507.0227 875.7551,-450.0234 889.4193,-416.9171"/>
<polygon fill="#000000" stroke="#000000" points="892.7501,-418.022 893.3475,-407.444 886.284,-415.3406 892.7501,-418.022"/>
<text text-anchor="start" x="704.629" y="-814" font-family="Helvetica,sans-Serif" font-size="10.00" fill="#000000">navigate_address_book &#160;&#160;</text>
</g>
<!-- tasks_page -->
<g id="node17" class="node">
<title>tasks_page</title>
<polygon fill="transparent" stroke="transparent" stroke-width="2" points="942.619,-604 859.619,-604 859.619,-568 942.619,-568 942.619,-604"/>
<text text-anchor="start" x="870.9392" y="-582.2" font-family="Helvetica,sans-Serif" font-size="12.00" fill="#000000">tasks_page</text>
<path fill="none" stroke="#000000" stroke-width="2" d="M871.9523,-569C871.9523,-569 930.2857,-569 930.2857,-569 935.9523,-569 941.619,-574.6667 941.619,-580.3333 941.619,-580.3333 941.619,-591.6667 941.619,-591.6667 941.619,-597.3333 935.9523,-603 930.2857,-603 930.2857,-603 871.9523,-603 871.9523,-603 866.2857,-603 860.619,-597.3333 860.619,-591.6667 860.619,-591.6667 860.619,-580.3333 860.619,-580.3333 860.619,-574.6667 866.2857,-569 871.9523,-569"/>
</g>
<!-- selecting_menu&#45;&gt;tasks_page -->
<g id="edge17" class="edge">
<title>selecting_menu&#45;&gt;tasks_page</title>
<path fill="none" stroke="#000000" d="M638.8165,-1234.7784C647.0083,-1202.1815 667.6607,-1132.9155 704.629,-1086 747.4867,-1031.6103 803.4127,-1055.6886 828.119,-991 842.5631,-953.1809 829.5184,-848.9418 836.119,-809 848.0243,-736.958 875.6065,-655.2646 890.7329,-613.6142"/>
<polygon fill="#000000" stroke="#000000" points="894.0444,-614.7498 894.2047,-604.1561 887.4731,-612.3376 894.0444,-614.7498"/>
<text text-anchor="start" x="724.3605" y="-1089" font-family="Helvetica,sans-Serif" font-size="10.00" fill="#000000">navigate_tasks &#160;&#160;</text>
</g>
<!-- notes_page -->
<g id="node20" class="node">
<title>notes_page</title>
<polygon fill="transparent" stroke="transparent" stroke-width="2" points="943.119,-856 859.119,-856 859.119,-820 943.119,-820 943.119,-856"/>
<text text-anchor="start" x="869.7684" y="-834.2" font-family="Helvetica,sans-Serif" font-size="12.00" fill="#000000">notes_page</text>
<path fill="none" stroke="#000000" stroke-width="2" d="M871.4523,-821C871.4523,-821 930.7857,-821 930.7857,-821 936.4523,-821 942.119,-826.6667 942.119,-832.3333 942.119,-832.3333 942.119,-843.6667 942.119,-843.6667 942.119,-849.3333 936.4523,-855 930.7857,-855 930.7857,-855 871.4523,-855 871.4523,-855 865.7857,-855 860.119,-849.3333 860.119,-843.6667 860.119,-843.6667 860.119,-832.3333 860.119,-832.3333 860.119,-826.6667 865.7857,-821 871.4523,-821"/>
</g>
<!-- selecting_menu&#45;&gt;notes_page -->
<g id="edge18" class="edge">
<title>selecting_menu&#45;&gt;notes_page</title>
<path fill="none" stroke="#000000" d="M651.8407,-1234.7372C665.6413,-1220.4185 685.7551,-1200.2628 704.629,-1184 757.5006,-1138.4428 795.5534,-1148.7281 828.119,-1087 867.4966,-1012.3597 888.334,-913.623 896.6793,-866.0243"/>
<polygon fill="#000000" stroke="#000000" points="900.135,-866.5799 898.3611,-856.1346 893.2341,-865.4063 900.135,-866.5799"/>
<text text-anchor="start" x="723.8015" y="-1187" font-family="Helvetica,sans-Serif" font-size="10.00" fill="#000000">navigate_notes &#160;&#160;</text>
</g>
<!-- preferences_page -->
<g id="node34" class="node">
<title>preferences_page</title>
<polygon fill="transparent" stroke="transparent" stroke-width="2" points="960.119,-1474 842.119,-1474 842.119,-1438 960.119,-1438 960.119,-1474"/>
<text text-anchor="start" x="852.7674" y="-1452.2" font-family="Helvetica,sans-Serif" font-size="12.00" fill="#000000">preferences_page</text>
<path fill="none" stroke="#000000" stroke-width="2" d="M854.4523,-1439C854.4523,-1439 947.7857,-1439 947.7857,-1439 953.4523,-1439 959.119,-1444.6667 959.119,-1450.3333 959.119,-1450.3333 959.119,-1461.6667 959.119,-1461.6667 959.119,-1467.3333 953.4523,-1473 947.7857,-1473 947.7857,-1473 854.4523,-1473 854.4523,-1473 848.7857,-1473 843.119,-1467.3333 843.119,-1461.6667 843.119,-1461.6667 843.119,-1450.3333 843.119,-1450.3333 843.119,-1444.6667 848.7857,-1439 854.4523,-1439"/>
</g>
<!-- selecting_menu&#45;&gt;preferences_page -->
<g id="edge20" class="edge">
<title>selecting_menu&#45;&gt;preferences_page</title>
<path fill="none" stroke="#000000" d="M640.7304,-1271.0119C650.3869,-1296.9731 671.5593,-1344.8724 704.629,-1373 746.1531,-1408.3185 770.0169,-1393.3223 819.119,-1417 827.0148,-1420.8074 828.3264,-1422.9857 836.119,-1427 840.4238,-1429.2176 844.9337,-1431.4357 849.4852,-1433.6024"/>
<polygon fill="#000000" stroke="#000000" points="848.2911,-1436.9074 858.8334,-1437.9607 851.249,-1430.563 848.2911,-1436.9074"/>
<text text-anchor="start" x="709.634" y="-1420" font-family="Helvetica,sans-Serif" font-size="10.00" fill="#000000">navigate_preferences &#160;&#160;</text>
</g>
<!-- admin_page -->
<g id="node36" class="node">
<title>admin_page</title>
<polygon fill="transparent" stroke="transparent" stroke-width="2" points="945.119,-1416 857.119,-1416 857.119,-1380 945.119,-1380 945.119,-1416"/>
<text text-anchor="start" x="868.107" y="-1394.2" font-family="Helvetica,sans-Serif" font-size="12.00" fill="#000000">admin_page</text>
<path fill="none" stroke="#000000" stroke-width="2" d="M869.4523,-1381C869.4523,-1381 932.7857,-1381 932.7857,-1381 938.4523,-1381 944.119,-1386.6667 944.119,-1392.3333 944.119,-1392.3333 944.119,-1403.6667 944.119,-1403.6667 944.119,-1409.3333 938.4523,-1415 932.7857,-1415 932.7857,-1415 869.4523,-1415 869.4523,-1415 863.7857,-1415 858.119,-1409.3333 858.119,-1403.6667 858.119,-1403.6667 858.119,-1392.3333 858.119,-1392.3333 858.119,-1386.6667 863.7857,-1381 869.4523,-1381"/>
</g>
<!-- selecting_menu&#45;&gt;admin_page -->
<g id="edge19" class="edge">
<title>selecting_menu&#45;&gt;admin_page</title>
<path fill="none" stroke="#000000" d="M659.3374,-1271.2185C672.4915,-1280.5874 689.1164,-1291.9147 704.629,-1301 731.5367,-1316.7592 804.5579,-1352.112 853.5991,-1375.5018"/>
<polygon fill="#000000" stroke="#000000" points="852.2302,-1378.7265 862.7635,-1379.8666 855.2403,-1372.4067 852.2302,-1378.7265"/>
<text text-anchor="start" x="722.417" y="-1361" font-family="Helvetica,sans-Serif" font-size="10.00" fill="#000000">navigate_admin &#160;&#160;</text>
</g>
<!-- ^logout? -->
<g id="node39" class="node">
<title>^logout?</title>
<polygon fill="transparent" stroke="#000000" stroke-width="2" points="901.119,-2192.5 888.619,-2180 901.119,-2167.5 913.619,-2180 901.119,-2192.5"/>
<text text-anchor="middle" x="901.119" y="-2177" font-family="Helvetica,sans-Serif" font-size="10.00" fill="#000000"> </text>
</g>
<!-- selecting_menu&#45;&gt;^logout? -->
<g id="edge13" class="edge">
<title>selecting_menu&#45;&gt;^logout?</title>
<path fill="none" stroke="#000000" d="M635.0898,-1271.1095C637.7578,-1368.0965 652.9521,-1826.5343 704.629,-1957 735.3839,-2034.645 768.6217,-2039.4821 819.119,-2106 823.15,-2111.3099 825.3672,-2111.9278 828.119,-2118 835.2431,-2133.7202 824.8389,-2142.9372 836.119,-2156 846.9576,-2168.5516 864.9725,-2174.5447 879.2915,-2177.4031"/>
<polygon fill="#000000" stroke="#000000" points="878.9092,-2180.8867 889.3408,-2179.0345 880.031,-2173.9772 878.9092,-2180.8867"/>
<text text-anchor="start" x="744.0875" y="-2109" font-family="Helvetica,sans-Serif" font-size="10.00" fill="#000000">pause &#160;&#160;</text>
</g>
<!-- mails_page&#45;&gt;selecting_menu -->
<g id="edge21" class="edge">
<title>mails_page&#45;&gt;selecting_menu</title>
<path fill="none" stroke="#000000" d="M899.5916,-2108.8719C892.6025,-2028.3364 862.152,-1702.9029 819.119,-1611 786.329,-1540.9724 742.288,-1547.5341 704.629,-1480 667.7036,-1413.7814 647.7129,-1325.6032 639.3771,-1281.155"/>
<polygon fill="#000000" stroke="#000000" points="642.7797,-1280.3032 637.5499,-1271.0892 635.8923,-1281.5535 642.7797,-1280.3032"/>
<text text-anchor="start" x="744.6485" y="-1614" font-family="Helvetica,sans-Serif" font-size="10.00" fill="#000000">return &#160;&#160;</text>
</g>
<!-- mail_view -->
<g id="node8" class="node">
<title>mail_view</title>
<polygon fill="transparent" stroke="transparent" stroke-width="2" points="1271.001,-2224 1197.001,-2224 1197.001,-2188 1271.001,-2188 1271.001,-2224"/>
<text text-anchor="start" x="1207.6718" y="-2202.2" font-family="Helvetica,sans-Serif" font-size="12.00" fill="#000000">mail_view</text>
<path fill="none" stroke="#000000" stroke-width="2" d="M1209.3343,-2189C1209.3343,-2189 1258.6677,-2189 1258.6677,-2189 1264.3343,-2189 1270.001,-2194.6667 1270.001,-2200.3333 1270.001,-2200.3333 1270.001,-2211.6667 1270.001,-2211.6667 1270.001,-2217.3333 1264.3343,-2223 1258.6677,-2223 1258.6677,-2223 1209.3343,-2223 1209.3343,-2223 1203.6677,-2223 1198.001,-2217.3333 1198.001,-2211.6667 1198.001,-2211.6667 1198.001,-2200.3333 1198.001,-2200.3333 1198.001,-2194.6667 1203.6677,-2189 1209.3343,-2189"/>
</g>
<!-- mails_page&#45;&gt;mail_view -->
<g id="edge28" class="edge">
<title>mails_page&#45;&gt;mail_view</title>
<path fill="none" stroke="#000000" d="M942.8457,-2131.7985C989.4051,-2137.7154 1066.7096,-2149.2259 1131.501,-2167 1150.0919,-2172.1 1170.0108,-2179.2665 1187.2991,-2186.067"/>
<polygon fill="#000000" stroke="#000000" points="1186.0234,-2189.3263 1196.608,-2189.792 1188.624,-2182.8273 1186.0234,-2189.3263"/>
<text text-anchor="start" x="1031.2005" y="-2170" font-family="Helvetica,sans-Serif" font-size="10.00" fill="#000000">view_mail &#160;&#160;</text>
</g>
<!-- mail_compose -->
<g id="node10" class="node">
<title>mail_compose</title>
<polygon fill="transparent" stroke="transparent" stroke-width="2" points="1843.064,-2228 1744.064,-2228 1744.064,-2192 1843.064,-2192 1843.064,-2228"/>
<text text-anchor="start" x="1755.394" y="-2206.2" font-family="Helvetica,sans-Serif" font-size="12.00" fill="#000000">mail_compose</text>
<path fill="none" stroke="#000000" stroke-width="2" d="M1756.3973,-2193C1756.3973,-2193 1830.7307,-2193 1830.7307,-2193 1836.3973,-2193 1842.064,-2198.6667 1842.064,-2204.3333 1842.064,-2204.3333 1842.064,-2215.6667 1842.064,-2215.6667 1842.064,-2221.3333 1836.3973,-2227 1830.7307,-2227 1830.7307,-2227 1756.3973,-2227 1756.3973,-2227 1750.7307,-2227 1745.064,-2221.3333 1745.064,-2215.6667 1745.064,-2215.6667 1745.064,-2204.3333 1745.064,-2204.3333 1745.064,-2198.6667 1750.7307,-2193 1756.3973,-2193"/>
</g>
<!-- mails_page&#45;&gt;mail_compose -->
<g id="edge29" class="edge">
<title>mails_page&#45;&gt;mail_compose</title>
<path fill="none" stroke="#000000" d="M942.9151,-2124.8824C1019.338,-2121.1987 1186.7532,-2114 1328.001,-2114 1328.001,-2114 1328.001,-2114 1658.8815,-2114 1707.2304,-2114 1750.2431,-2155.5305 1774.023,-2183.9597"/>
<polygon fill="#000000" stroke="#000000" points="1771.4755,-2186.3754 1780.4895,-2191.9431 1776.915,-2181.9695 1771.4755,-2186.3754"/>
<text text-anchor="start" x="1367.0705" y="-2117" font-family="Helvetica,sans-Serif" font-size="10.00" fill="#000000">new_mail &#160;&#160;</text>
</g>
<!-- mail_view&#45;&gt;mails_page -->
<g id="edge30" class="edge">
<title>mail_view&#45;&gt;mails_page</title>
<path fill="none" stroke="#000000" d="M1196.7387,-2211.0361C1145.1258,-2216.134 1050.6181,-2218.5379 983.119,-2180 972.0801,-2173.6974 975.9762,-2165.0259 966.119,-2157 961.7819,-2153.4687 956.9611,-2150.2519 951.9608,-2147.3481"/>
<polygon fill="#000000" stroke="#000000" points="953.2995,-2144.0948 942.8317,-2142.4591 949.9948,-2150.2656 953.2995,-2144.0948"/>
<text text-anchor="start" x="1027.582" y="-2216" font-family="Helvetica,sans-Serif" font-size="10.00" fill="#000000">delete_mail &#160;&#160;</text>
</g>
<!-- mail_view&#45;&gt;mails_page -->
<g id="edge33" class="edge">
<title>mail_view&#45;&gt;mails_page</title>
<path fill="none" stroke="#000000" d="M1197.1048,-2224.0376C1143.776,-2247.2105 1044.8028,-2278.9696 983.119,-2230 957.0285,-2209.2873 987.1587,-2182.8275 966.119,-2157 962.1009,-2152.0676 957.0909,-2147.9082 951.6464,-2144.4099"/>
<polygon fill="#000000" stroke="#000000" points="953.2447,-2141.2933 942.813,-2139.4408 949.8126,-2147.3942 953.2447,-2141.2933"/>
<text text-anchor="start" x="1042.0235" y="-2258" font-family="Helvetica,sans-Serif" font-size="10.00" fill="#000000">noop &#160;&#160;</text>
</g>
<!-- mail_info -->
<g id="node9" class="node">
<title>mail_info</title>
<polygon fill="transparent" stroke="transparent" stroke-width="2" points="1570.199,-2255 1500.199,-2255 1500.199,-2219 1570.199,-2219 1570.199,-2255"/>
<text text-anchor="start" x="1511.1984" y="-2233.2" font-family="Helvetica,sans-Serif" font-size="12.00" fill="#000000">mail_info</text>
<path fill="none" stroke="#000000" stroke-width="2" d="M1512.5323,-2220C1512.5323,-2220 1557.8657,-2220 1557.8657,-2220 1563.5323,-2220 1569.199,-2225.6667 1569.199,-2231.3333 1569.199,-2231.3333 1569.199,-2242.6667 1569.199,-2242.6667 1569.199,-2248.3333 1563.5323,-2254 1557.8657,-2254 1557.8657,-2254 1512.5323,-2254 1512.5323,-2254 1506.8657,-2254 1501.199,-2248.3333 1501.199,-2242.6667 1501.199,-2242.6667 1501.199,-2231.3333 1501.199,-2231.3333 1501.199,-2225.6667 1506.8657,-2220 1512.5323,-2220"/>
</g>
<!-- mail_view&#45;&gt;mail_info -->
<g id="edge31" class="edge">
<title>mail_view&#45;&gt;mail_info</title>
<path fill="none" stroke="#000000" d="M1271.2359,-2209.8323C1326.4701,-2215.5171 1429.9945,-2226.1721 1489.6636,-2232.3134"/>
<polygon fill="#000000" stroke="#000000" points="1489.6114,-2235.8264 1499.9172,-2233.3687 1490.3282,-2228.8632 1489.6114,-2235.8264"/>
<text text-anchor="start" x="1365.121" y="-2231" font-family="Helvetica,sans-Serif" font-size="10.00" fill="#000000">open_mail &#160;&#160;</text>
</g>
<!-- mail_view&#45;&gt;mail_compose -->
<g id="edge32" class="edge">
<title>mail_view&#45;&gt;mail_compose</title>
<path fill="none" stroke="#000000" d="M1271.2496,-2198.24C1303.2222,-2192.2579 1350.6136,-2185 1392.35,-2185 1392.35,-2185 1392.35,-2185 1658.8815,-2185 1683.6373,-2185 1710.5293,-2189.1336 1733.7271,-2194.0391"/>
<polygon fill="#000000" stroke="#000000" points="1733.2444,-2197.5168 1743.764,-2196.2567 1734.7547,-2190.6816 1733.2444,-2197.5168"/>
<text text-anchor="start" x="1508.255" y="-2188" font-family="Helvetica,sans-Serif" font-size="10.00" fill="#000000">reply_mail &#160;&#160;</text>
</g>
<!-- mail_info&#45;&gt;mails_page -->
<g id="edge34" class="edge">
<title>mail_info&#45;&gt;mails_page</title>
<path fill="none" stroke="#000000" d="M1499.8727,-2245.375C1390.547,-2270.381 1060.4604,-2338.7489 983.119,-2272 963.562,-2255.1215 981.5998,-2177.681 966.119,-2157 962.2577,-2151.8416 957.2945,-2147.5422 951.8341,-2143.9653"/>
<polygon fill="#000000" stroke="#000000" points="953.3569,-2140.8054 942.9312,-2138.9198 949.9055,-2146.8954 953.3569,-2140.8054"/>
<text text-anchor="start" x="1204.273" y="-2302" font-family="Helvetica,sans-Serif" font-size="10.00" fill="#000000">delete_mail &#160;&#160;</text>
</g>
<!-- mail_info&#45;&gt;mail_compose -->
<g id="edge35" class="edge">
<title>mail_info&#45;&gt;mail_compose</title>
<path fill="none" stroke="#000000" d="M1570.3121,-2233.3306C1612.263,-2228.9466 1683.1209,-2221.5417 1733.7583,-2216.2499"/>
<polygon fill="#000000" stroke="#000000" points="1734.338,-2219.7085 1743.9201,-2215.188 1733.6104,-2212.7464 1734.338,-2219.7085"/>
<text text-anchor="start" x="1631.9375" y="-2230" font-family="Helvetica,sans-Serif" font-size="10.00" fill="#000000">reply_mail &#160;&#160;</text>
</g>
<!-- mail_compose&#45;&gt;mails_page -->
<g id="edge36" class="edge">
<title>mail_compose&#45;&gt;mails_page</title>
<path fill="none" stroke="#000000" d="M1781.0114,-2228.3415C1759.6029,-2257.2107 1713.0501,-2310 1658.8815,-2310 1456.699,-2310 1456.699,-2310 1456.699,-2310 1246.067,-2310 1141.0971,-2431.3153 983.119,-2292 960.4407,-2272.0008 983.4187,-2181.7991 966.119,-2157 962.3391,-2151.5815 957.3265,-2147.1198 951.756,-2143.4511"/>
<polygon fill="#000000" stroke="#000000" points="953.0706,-2140.1746 942.6402,-2138.3153 949.6346,-2146.2733 953.0706,-2140.1746"/>
<text text-anchor="start" x="1365.4005" y="-2325" font-family="Helvetica,sans-Serif" font-size="10.00" fill="#000000">send_mail &#160;&#160;</text>
</g>
<!-- calendar_page&#45;&gt;selecting_menu -->
<g id="edge22" class="edge">
<title>calendar_page&#45;&gt;selecting_menu</title>
<path fill="none" stroke="#000000" d="M850.4244,-220.9298C803.9311,-237.5202 737.4688,-269.1831 704.629,-322 655.8356,-400.4755 638.426,-1077.9012 635.2054,-1224.9234"/>
<polygon fill="#000000" stroke="#000000" points="631.7057,-1224.874 634.99,-1234.947 638.7041,-1225.0245 631.7057,-1224.874"/>
<text text-anchor="start" x="744.6485" y="-325" font-family="Helvetica,sans-Serif" font-size="10.00" fill="#000000">return &#160;&#160;</text>
</g>
<!-- event_edit -->
<g id="node37" class="node">
<title>event_edit</title>
<polygon fill="transparent" stroke="transparent" stroke-width="2" points="1272.501,-224 1195.501,-224 1195.501,-188 1272.501,-188 1272.501,-224"/>
<text text-anchor="start" x="1206.8224" y="-202.2" font-family="Helvetica,sans-Serif" font-size="12.00" fill="#000000">event_edit</text>
<path fill="none" stroke="#000000" stroke-width="2" d="M1207.8343,-189C1207.8343,-189 1260.1677,-189 1260.1677,-189 1265.8343,-189 1271.501,-194.6667 1271.501,-200.3333 1271.501,-200.3333 1271.501,-211.6667 1271.501,-211.6667 1271.501,-217.3333 1265.8343,-223 1260.1677,-223 1260.1677,-223 1207.8343,-223 1207.8343,-223 1202.1677,-223 1196.501,-217.3333 1196.501,-211.6667 1196.501,-211.6667 1196.501,-200.3333 1196.501,-200.3333 1196.501,-194.6667 1202.1677,-189 1207.8343,-189"/>
</g>
<!-- calendar_page&#45;&gt;event_edit -->
<g id="edge37" class="edge">
<title>calendar_page&#45;&gt;event_edit</title>
<path fill="none" stroke="#000000" d="M930.7139,-187.9951C945.8146,-179.8475 964.8198,-171.13 983.119,-167 1047.4485,-152.4813 1066.6401,-155.0775 1131.501,-167 1150.129,-170.4241 1169.757,-177.0759 1186.7951,-183.93"/>
<polygon fill="#000000" stroke="#000000" points="1185.9231,-187.3579 1196.5005,-187.9661 1188.611,-180.8945 1185.9231,-187.3579"/>
<text text-anchor="start" x="1030.076" y="-170" font-family="Helvetica,sans-Serif" font-size="10.00" fill="#000000">edit_event &#160;&#160;</text>
</g>
<!-- event_compose -->
<g id="node38" class="node">
<title>event_compose</title>
<polygon fill="transparent" stroke="transparent" stroke-width="2" points="1287.001,-84 1181.001,-84 1181.001,-48 1287.001,-48 1287.001,-84"/>
<text text-anchor="start" x="1191.653" y="-62.2" font-family="Helvetica,sans-Serif" font-size="12.00" fill="#000000">event_compose</text>
<path fill="none" stroke="#000000" stroke-width="2" d="M1193.3343,-49C1193.3343,-49 1274.6677,-49 1274.6677,-49 1280.3343,-49 1286.001,-54.6667 1286.001,-60.3333 1286.001,-60.3333 1286.001,-71.6667 1286.001,-71.6667 1286.001,-77.3333 1280.3343,-83 1274.6677,-83 1274.6677,-83 1193.3343,-83 1193.3343,-83 1187.6677,-83 1182.001,-77.3333 1182.001,-71.6667 1182.001,-71.6667 1182.001,-60.3333 1182.001,-60.3333 1182.001,-54.6667 1187.6677,-49 1193.3343,-49"/>
</g>
<!-- calendar_page&#45;&gt;event_compose -->
<g id="edge38" class="edge">
<title>calendar_page&#45;&gt;event_compose</title>
<path fill="none" stroke="#000000" d="M919.1617,-187.963C934.8552,-173.1875 958.8336,-152.7133 983.119,-140 1043.2144,-108.5403 1118.5949,-88.5994 1170.963,-77.4458"/>
<polygon fill="#000000" stroke="#000000" points="1171.7154,-80.8643 1180.7913,-75.3981 1170.2876,-74.0115 1171.7154,-80.8643"/>
<text text-anchor="start" x="1028.9655" y="-143" font-family="Helvetica,sans-Serif" font-size="10.00" fill="#000000">new_event &#160;&#160;</text>
</g>
<!-- contact_compose -->
<g id="node12" class="node">
<title>contact_compose</title>
<polygon fill="transparent" stroke="transparent" stroke-width="2" points="1593.199,-424 1477.199,-424 1477.199,-388 1593.199,-388 1593.199,-424"/>
<text text-anchor="start" x="1488.1836" y="-402.2" font-family="Helvetica,sans-Serif" font-size="12.00" fill="#000000">contact_compose</text>
<path fill="none" stroke="#000000" stroke-width="2" d="M1489.5323,-389C1489.5323,-389 1580.8657,-389 1580.8657,-389 1586.5323,-389 1592.199,-394.6667 1592.199,-400.3333 1592.199,-400.3333 1592.199,-411.6667 1592.199,-411.6667 1592.199,-417.3333 1586.5323,-423 1580.8657,-423 1580.8657,-423 1489.5323,-423 1489.5323,-423 1483.8657,-423 1478.199,-417.3333 1478.199,-411.6667 1478.199,-411.6667 1478.199,-400.3333 1478.199,-400.3333 1478.199,-394.6667 1483.8657,-389 1489.5323,-389"/>
</g>
<!-- contact_compose&#45;&gt;address_book_page -->
<g id="edge44" class="edge">
<title>contact_compose&#45;&gt;address_book_page</title>
<path fill="none" stroke="#000000" d="M1476.9653,-408.7552C1469.9693,-408.9254 1462.9243,-409.0219 1456.199,-409 1319.4422,-408.5556 1285.1515,-412.4097 1148.501,-407 1090.6551,-404.71 1025.3416,-399.8612 976.3564,-395.7725"/>
<polygon fill="#000000" stroke="#000000" points="976.4186,-392.2655 966.1599,-394.9128 975.8304,-399.2407 976.4186,-392.2655"/>
<text text-anchor="start" x="1196.213" y="-412" font-family="Helvetica,sans-Serif" font-size="10.00" fill="#000000">submit_contact &#160;&#160;</text>
</g>
<!-- contacts_browse -->
<g id="node13" class="node">
<title>contacts_browse</title>
<polygon fill="transparent" stroke="transparent" stroke-width="2" points="1290.001,-333 1178.001,-333 1178.001,-297 1290.001,-297 1290.001,-333"/>
<text text-anchor="start" x="1188.9896" y="-311.2" font-family="Helvetica,sans-Serif" font-size="12.00" fill="#000000">contacts_browse</text>
<path fill="none" stroke="#000000" stroke-width="2" d="M1190.3343,-298C1190.3343,-298 1277.6677,-298 1277.6677,-298 1283.3343,-298 1289.001,-303.6667 1289.001,-309.3333 1289.001,-309.3333 1289.001,-320.6667 1289.001,-320.6667 1289.001,-326.3333 1283.3343,-332 1277.6677,-332 1277.6677,-332 1190.3343,-332 1190.3343,-332 1184.6677,-332 1179.001,-326.3333 1179.001,-320.6667 1179.001,-320.6667 1179.001,-309.3333 1179.001,-309.3333 1179.001,-303.6667 1184.6677,-298 1190.3343,-298"/>
</g>
<!-- contacts_browse&#45;&gt;contact_compose -->
<g id="edge46" class="edge">
<title>contacts_browse&#45;&gt;contact_compose</title>
<path fill="none" stroke="#000000" d="M1290.3007,-332.0097C1340.4721,-347.1678 1414.0081,-369.385 1467.3984,-385.5156"/>
<polygon fill="#000000" stroke="#000000" points="1466.538,-388.9119 1477.1229,-388.4537 1468.5625,-382.211 1466.538,-388.9119"/>
<text text-anchor="start" x="1360.116" y="-382" font-family="Helvetica,sans-Serif" font-size="10.00" fill="#000000">new_contact &#160;&#160;</text>
</g>
<!-- contact_info -->
<g id="node14" class="node">
<title>contact_info</title>
<polygon fill="transparent" stroke="transparent" stroke-width="2" points="1578.199,-328 1492.199,-328 1492.199,-292 1578.199,-292 1578.199,-328"/>
<text text-anchor="start" x="1502.853" y="-306.2" font-family="Helvetica,sans-Serif" font-size="12.00" fill="#000000">contact_info</text>
<path fill="none" stroke="#000000" stroke-width="2" d="M1504.5323,-293C1504.5323,-293 1565.8657,-293 1565.8657,-293 1571.5323,-293 1577.199,-298.6667 1577.199,-304.3333 1577.199,-304.3333 1577.199,-315.6667 1577.199,-315.6667 1577.199,-321.3333 1571.5323,-327 1565.8657,-327 1565.8657,-327 1504.5323,-327 1504.5323,-327 1498.8657,-327 1493.199,-321.3333 1493.199,-315.6667 1493.199,-315.6667 1493.199,-304.3333 1493.199,-304.3333 1493.199,-298.6667 1498.8657,-293 1504.5323,-293"/>
</g>
<!-- contacts_browse&#45;&gt;contact_info -->
<g id="edge45" class="edge">
<title>contacts_browse&#45;&gt;contact_info</title>
<path fill="none" stroke="#000000" d="M1290.3007,-314.0654C1345.1668,-313.1546 1427.9747,-311.78 1481.8212,-310.8861"/>
<polygon fill="#000000" stroke="#000000" points="1481.9157,-314.3851 1491.8562,-310.7195 1481.7994,-307.3861 1481.9157,-314.3851"/>
<text text-anchor="start" x="1359.286" y="-316" font-family="Helvetica,sans-Serif" font-size="10.00" fill="#000000">view_contact &#160;&#160;</text>
</g>
<!-- contact_delete_confirming -->
<g id="node15" class="node">
<title>contact_delete_confirming</title>
<polygon fill="transparent" stroke="transparent" stroke-width="2" points="1874.564,-300 1712.564,-300 1712.564,-264 1874.564,-264 1874.564,-300"/>
<text text-anchor="start" x="1723.5452" y="-278.2" font-family="Helvetica,sans-Serif" font-size="12.00" fill="#000000">contact_delete_confirming</text>
<path fill="none" stroke="#000000" stroke-width="2" d="M1724.8973,-265C1724.8973,-265 1862.2307,-265 1862.2307,-265 1867.8973,-265 1873.564,-270.6667 1873.564,-276.3333 1873.564,-276.3333 1873.564,-287.6667 1873.564,-287.6667 1873.564,-293.3333 1867.8973,-299 1862.2307,-299 1862.2307,-299 1724.8973,-299 1724.8973,-299 1719.2307,-299 1713.564,-293.3333 1713.564,-287.6667 1713.564,-287.6667 1713.564,-276.3333 1713.564,-276.3333 1713.564,-270.6667 1719.2307,-265 1724.8973,-265"/>
</g>
<!-- contact_info&#45;&gt;contact_delete_confirming -->
<g id="edge47" class="edge">
<title>contact_info&#45;&gt;contact_delete_confirming</title>
<path fill="none" stroke="#000000" d="M1578.4435,-305.3134C1612.2232,-301.6526 1660.3506,-296.4368 1702.5214,-291.8666"/>
<polygon fill="#000000" stroke="#000000" points="1702.9738,-295.3382 1712.5384,-290.7811 1702.2195,-288.3789 1702.9738,-295.3382"/>
<text text-anchor="start" x="1622.199" y="-303" font-family="Helvetica,sans-Serif" font-size="10.00" fill="#000000">delete_contact &#160;&#160;</text>
</g>
<!-- contact_delete_confirming&#45;&gt;address_book_page -->
<g id="edge48" class="edge">
<title>contact_delete_confirming&#45;&gt;address_book_page</title>
<path fill="none" stroke="#000000" d="M1714.8954,-263.9907C1696.6087,-261.0808 1677.1466,-259 1658.8815,-259 1456.699,-259 1456.699,-259 1456.699,-259 1244.2457,-259 1174.6011,-231.962 983.119,-324 962.205,-334.0526 941.7466,-350.256 926.4959,-363.9696"/>
<polygon fill="#000000" stroke="#000000" points="923.9959,-361.5141 919.0207,-370.8681 928.7433,-366.6583 923.9959,-361.5141"/>
<text text-anchor="start" x="1336.501" y="-261" font-family="Helvetica,sans-Serif" font-size="10.00" fill="#000000">confirm_delete_contact &#160;&#160;</text>
</g>
<!-- address_book_page&#45;&gt;selecting_menu -->
<g id="edge23" class="edge">
<title>address_book_page&#45;&gt;selecting_menu</title>
<path fill="none" stroke="#000000" d="M891.9982,-407.0705C877.2616,-437.2446 848.6074,-500.1874 836.119,-557 829.7369,-586.0336 837.8322,-800.9025 819.119,-824 785.8593,-865.0523 740.1137,-816.8549 704.629,-856 655.2583,-910.4635 639.7782,-1142.864 635.8127,-1224.5055"/>
<polygon fill="#000000" stroke="#000000" points="632.3135,-1224.4092 635.3461,-1234.5607 639.3059,-1224.7337 632.3135,-1224.4092"/>
<text text-anchor="start" x="744.6485" y="-859" font-family="Helvetica,sans-Serif" font-size="10.00" fill="#000000">return &#160;&#160;</text>
</g>
<!-- address_book_page&#45;&gt;contact_compose -->
<g id="edge42" class="edge">
<title>address_book_page&#45;&gt;contact_compose</title>
<path fill="none" stroke="#000000" d="M966.4223,-387.6594C1048.8138,-386.4556 1194.8186,-385.9431 1319.501,-394 1327.0928,-394.4906 1328.92,-395.364 1336.501,-396 1379.7868,-399.6314 1428.4962,-402.1082 1466.854,-403.6885"/>
<polygon fill="#000000" stroke="#000000" points="1466.7456,-407.1869 1476.878,-404.0908 1467.0264,-400.1925 1466.7456,-407.1869"/>
<text text-anchor="start" x="1201.767" y="-397" font-family="Helvetica,sans-Serif" font-size="10.00" fill="#000000">new_contact &#160;&#160;</text>
</g>
<!-- address_book_page&#45;&gt;contacts_browse -->
<g id="edge43" class="edge">
<title>address_book_page&#45;&gt;contacts_browse</title>
<path fill="none" stroke="#000000" d="M946.2006,-370.8834C958.0752,-366.5609 970.967,-362.261 983.119,-359 1044.781,-342.4531 1116.6872,-330.5755 1167.6709,-323.3633"/>
<polygon fill="#000000" stroke="#000000" points="1168.158,-326.8294 1177.5795,-321.9831 1167.1922,-319.8963 1168.158,-326.8294"/>
<text text-anchor="start" x="996.456" y="-362" font-family="Helvetica,sans-Serif" font-size="10.00" fill="#000000">navigate_contact_browse &#160;&#160;</text>
</g>
<!-- tasks_page&#45;&gt;selecting_menu -->
<g id="edge24" class="edge">
<title>tasks_page&#45;&gt;selecting_menu</title>
<path fill="none" stroke="#000000" d="M895.0963,-604.0247C882.6734,-641.7165 853.8839,-731.7757 836.119,-809 831.3686,-829.65 836.8975,-836.7146 828.119,-856 794.2944,-930.3084 743.8995,-920.4202 704.629,-992 661.9529,-1069.7873 644.1279,-1175.0878 637.7272,-1224.7961"/>
<polygon fill="#000000" stroke="#000000" points="634.2429,-1224.4553 636.4975,-1234.8075 641.1906,-1225.3088 634.2429,-1224.4553"/>
<text text-anchor="start" x="744.6485" y="-995" font-family="Helvetica,sans-Serif" font-size="10.00" fill="#000000">return &#160;&#160;</text>
</g>
<!-- task_creating -->
<g id="node18" class="node">
<title>task_creating</title>
<polygon fill="transparent" stroke="transparent" stroke-width="2" points="1280.501,-604 1187.501,-604 1187.501,-568 1280.501,-568 1280.501,-604"/>
<text text-anchor="start" x="1198.825" y="-582.2" font-family="Helvetica,sans-Serif" font-size="12.00" fill="#000000">task_creating</text>
<path fill="none" stroke="#000000" stroke-width="2" d="M1199.8343,-569C1199.8343,-569 1268.1677,-569 1268.1677,-569 1273.8343,-569 1279.501,-574.6667 1279.501,-580.3333 1279.501,-580.3333 1279.501,-591.6667 1279.501,-591.6667 1279.501,-597.3333 1273.8343,-603 1268.1677,-603 1268.1677,-603 1199.8343,-603 1199.8343,-603 1194.1677,-603 1188.501,-597.3333 1188.501,-591.6667 1188.501,-591.6667 1188.501,-580.3333 1188.501,-580.3333 1188.501,-574.6667 1194.1677,-569 1199.8343,-569"/>
</g>
<!-- tasks_page&#45;&gt;task_creating -->
<g id="edge49" class="edge">
<title>tasks_page&#45;&gt;task_creating</title>
<path fill="none" stroke="#000000" d="M942.9417,-586C1002.1152,-586 1110.46,-586 1176.966,-586"/>
<polygon fill="#000000" stroke="#000000" points="1177.2666,-589.5001 1187.2666,-586 1177.2666,-582.5001 1177.2666,-589.5001"/>
<text text-anchor="start" x="1032.0245" y="-589" font-family="Helvetica,sans-Serif" font-size="10.00" fill="#000000">new_task &#160;&#160;</text>
</g>
<!-- task_editor -->
<g id="node19" class="node">
<title>task_editor</title>
<polygon fill="transparent" stroke="transparent" stroke-width="2" points="1274.001,-511 1194.001,-511 1194.001,-475 1274.001,-475 1274.001,-511"/>
<text text-anchor="start" x="1204.6604" y="-489.2" font-family="Helvetica,sans-Serif" font-size="12.00" fill="#000000">task_editor</text>
<path fill="none" stroke="#000000" stroke-width="2" d="M1206.3343,-476C1206.3343,-476 1261.6677,-476 1261.6677,-476 1267.3343,-476 1273.001,-481.6667 1273.001,-487.3333 1273.001,-487.3333 1273.001,-498.6667 1273.001,-498.6667 1273.001,-504.3333 1267.3343,-510 1261.6677,-510 1261.6677,-510 1206.3343,-510 1206.3343,-510 1200.6677,-510 1195.001,-504.3333 1195.001,-498.6667 1195.001,-498.6667 1195.001,-487.3333 1195.001,-487.3333 1195.001,-481.6667 1200.6677,-476 1206.3343,-476"/>
</g>
<!-- tasks_page&#45;&gt;task_editor -->
<g id="edge50" class="edge">
<title>tasks_page&#45;&gt;task_editor</title>
<path fill="none" stroke="#000000" d="M934.6919,-567.8644C949.2543,-560.572 966.7027,-552.5859 983.119,-547 1050.7929,-523.9729 1132.1867,-508.5984 1183.5199,-500.3292"/>
<polygon fill="#000000" stroke="#000000" points="1184.3568,-503.7405 1193.6872,-498.7212 1183.2632,-496.8264 1184.3568,-503.7405"/>
<text text-anchor="start" x="1033.135" y="-550" font-family="Helvetica,sans-Serif" font-size="10.00" fill="#000000">edit_task &#160;&#160;</text>
</g>
<!-- task_creating&#45;&gt;tasks_page -->
<g id="edge51" class="edge">
<title>task_creating&#45;&gt;tasks_page</title>
<path fill="none" stroke="#000000" d="M1187.2577,-576.5854C1169.8347,-573.5159 1149.8379,-570.5103 1131.501,-569 1065.776,-563.5866 1048.7224,-562.2712 983.119,-569 973.248,-570.0124 962.812,-571.6934 952.8139,-573.6143"/>
<polygon fill="#000000" stroke="#000000" points="952.1065,-570.1864 942.9988,-575.5995 953.4942,-577.0475 952.1065,-570.1864"/>
<text text-anchor="start" x="1030.634" y="-572" font-family="Helvetica,sans-Serif" font-size="10.00" fill="#000000">save_task &#160;&#160;</text>
</g>
<!-- task_editor&#45;&gt;tasks_page -->
<g id="edge52" class="edge">
<title>task_editor&#45;&gt;tasks_page</title>
<path fill="none" stroke="#000000" d="M1193.6168,-482.9174C1142.1713,-472.2329 1051.7138,-460.8115 983.119,-492 953.1436,-505.6292 929.8483,-536.2291 915.8725,-558.8323"/>
<polygon fill="#000000" stroke="#000000" points="912.7303,-557.2689 910.6334,-567.6542 918.7489,-560.8433 912.7303,-557.2689"/>
<text text-anchor="start" x="1027.576" y="-495" font-family="Helvetica,sans-Serif" font-size="10.00" fill="#000000">delete_task &#160;&#160;</text>
</g>
<!-- notes_page&#45;&gt;selecting_menu -->
<g id="edge25" class="edge">
<title>notes_page&#45;&gt;selecting_menu</title>
<path fill="none" stroke="#000000" d="M899.376,-856.0126C892.6886,-921.5356 866.636,-1146.0275 819.119,-1197 814.7367,-1201.7009 749.1963,-1220.9209 697.4654,-1235.5446"/>
<polygon fill="#000000" stroke="#000000" points="696.3309,-1232.2279 687.6555,-1238.3097 698.2301,-1238.9654 696.3309,-1232.2279"/>
<text text-anchor="start" x="744.6485" y="-1236" font-family="Helvetica,sans-Serif" font-size="10.00" fill="#000000">return &#160;&#160;</text>
</g>
<!-- note_creator -->
<g id="node21" class="node">
<title>note_creator</title>
<polygon fill="transparent" stroke="transparent" stroke-width="2" points="1278.501,-884 1189.501,-884 1189.501,-848 1278.501,-848 1278.501,-884"/>
<text text-anchor="start" x="1200.8236" y="-862.2" font-family="Helvetica,sans-Serif" font-size="12.00" fill="#000000">note_creator</text>
<path fill="none" stroke="#000000" stroke-width="2" d="M1201.8343,-849C1201.8343,-849 1266.1677,-849 1266.1677,-849 1271.8343,-849 1277.501,-854.6667 1277.501,-860.3333 1277.501,-860.3333 1277.501,-871.6667 1277.501,-871.6667 1277.501,-877.3333 1271.8343,-883 1266.1677,-883 1266.1677,-883 1201.8343,-883 1201.8343,-883 1196.1677,-883 1190.501,-877.3333 1190.501,-871.6667 1190.501,-871.6667 1190.501,-860.3333 1190.501,-860.3333 1190.501,-854.6667 1196.1677,-849 1201.8343,-849"/>
</g>
<!-- notes_page&#45;&gt;note_creator -->
<g id="edge53" class="edge">
<title>notes_page&#45;&gt;note_creator</title>
<path fill="none" stroke="#000000" d="M943.4619,-848.1306C956.1451,-850.798 970.1347,-853.3801 983.119,-855 1050.3058,-863.3823 1128.3044,-865.6426 1179.2712,-866.1239"/>
<polygon fill="#000000" stroke="#000000" points="1179.3819,-869.6247 1189.4077,-866.1994 1179.4341,-862.6249 1179.3819,-869.6247"/>
<text text-anchor="start" x="1031.4655" y="-868" font-family="Helvetica,sans-Serif" font-size="10.00" fill="#000000">new_note &#160;&#160;</text>
</g>
<!-- note_editor -->
<g id="node22" class="node">
<title>note_editor</title>
<polygon fill="transparent" stroke="transparent" stroke-width="2" points="1275.001,-744 1193.001,-744 1193.001,-708 1275.001,-708 1275.001,-744"/>
<text text-anchor="start" x="1203.9896" y="-722.2" font-family="Helvetica,sans-Serif" font-size="12.00" fill="#000000">note_editor</text>
<path fill="none" stroke="#000000" stroke-width="2" d="M1205.3343,-709C1205.3343,-709 1262.6677,-709 1262.6677,-709 1268.3343,-709 1274.001,-714.6667 1274.001,-720.3333 1274.001,-720.3333 1274.001,-731.6667 1274.001,-731.6667 1274.001,-737.3333 1268.3343,-743 1262.6677,-743 1262.6677,-743 1205.3343,-743 1205.3343,-743 1199.6677,-743 1194.001,-737.3333 1194.001,-731.6667 1194.001,-731.6667 1194.001,-720.3333 1194.001,-720.3333 1194.001,-714.6667 1199.6677,-709 1205.3343,-709"/>
</g>
<!-- notes_page&#45;&gt;note_editor -->
<g id="edge54" class="edge">
<title>notes_page&#45;&gt;note_editor</title>
<path fill="none" stroke="#000000" d="M943.2787,-823.8151C1004.4331,-803.2394 1117.5941,-765.1658 1183.2441,-743.0774"/>
<polygon fill="#000000" stroke="#000000" points="1184.6037,-746.3129 1192.9655,-739.8066 1182.3714,-739.6783 1184.6037,-746.3129"/>
<text text-anchor="start" x="1032.576" y="-813" font-family="Helvetica,sans-Serif" font-size="10.00" fill="#000000">edit_note &#160;&#160;</text>
</g>
<!-- note_creator&#45;&gt;notes_page -->
<g id="edge55" class="edge">
<title>note_creator&#45;&gt;notes_page</title>
<path fill="none" stroke="#000000" d="M1189.3767,-851.0291C1171.5887,-845.7973 1150.79,-840.5872 1131.501,-838 1070.8753,-829.8684 1000.4653,-831.4524 953.5976,-834.0459"/>
<polygon fill="#000000" stroke="#000000" points="953.1589,-830.5655 943.3822,-834.6478 953.5708,-837.5534 953.1589,-830.5655"/>
<text text-anchor="start" x="1030.0815" y="-841" font-family="Helvetica,sans-Serif" font-size="10.00" fill="#000000">write_note &#160;&#160;</text>
</g>
<!-- note_editor&#45;&gt;notes_page -->
<g id="edge56" class="edge">
<title>note_editor&#45;&gt;notes_page</title>
<path fill="none" stroke="#000000" d="M1192.8426,-719.5071C1140.9799,-713.332 1050.4905,-709.3532 983.119,-743 953.4817,-757.8015 930.123,-788.5339 916.0398,-811.0514"/>
<polygon fill="#000000" stroke="#000000" points="912.9152,-809.4554 910.7548,-819.8277 918.9119,-813.0666 912.9152,-809.4554"/>
<text text-anchor="start" x="1030.0815" y="-746" font-family="Helvetica,sans-Serif" font-size="10.00" fill="#000000">write_note &#160;&#160;</text>
</g>
<!-- note_editor&#45;&gt;notes_page -->
<g id="edge57" class="edge">
<title>note_editor&#45;&gt;notes_page</title>
<path fill="none" stroke="#000000" d="M1194.5301,-707.9094C1142.4638,-686.9488 1049.6593,-659.8597 983.119,-698 941.2614,-721.9924 918.7075,-776.5509 908.364,-810.0337"/>
<polygon fill="#000000" stroke="#000000" points="904.9874,-809.1106 905.5381,-819.6911 911.7057,-811.0765 904.9874,-809.1106"/>
<text text-anchor="start" x="1027.017" y="-701" font-family="Helvetica,sans-Serif" font-size="10.00" fill="#000000">delete_note &#160;&#160;</text>
</g>
<!-- admin_config_page -->
<g id="node23" class="node">
<title>admin_config_page</title>
<polygon fill="transparent" stroke="transparent" stroke-width="2" points="1297.001,-1235 1171.001,-1235 1171.001,-1199 1297.001,-1199 1297.001,-1235"/>
<text text-anchor="start" x="1181.6486" y="-1213.2" font-family="Helvetica,sans-Serif" font-size="12.00" fill="#000000">admin_config_page</text>
<path fill="none" stroke="#000000" stroke-width="2" d="M1183.3343,-1200C1183.3343,-1200 1284.6677,-1200 1284.6677,-1200 1290.3343,-1200 1296.001,-1205.6667 1296.001,-1211.3333 1296.001,-1211.3333 1296.001,-1222.6667 1296.001,-1222.6667 1296.001,-1228.3333 1290.3343,-1234 1284.6677,-1234 1284.6677,-1234 1183.3343,-1234 1183.3343,-1234 1177.6677,-1234 1172.001,-1228.3333 1172.001,-1222.6667 1172.001,-1222.6667 1172.001,-1211.3333 1172.001,-1211.3333 1172.001,-1205.6667 1177.6677,-1200 1183.3343,-1200"/>
</g>
<!-- admin_config_page&#45;&gt;admin_page -->
<g id="edge68" class="edge">
<title>admin_config_page&#45;&gt;admin_page</title>
<path fill="none" stroke="#000000" d="M1170.9709,-1216.7479C1116.7652,-1219.447 1038.7504,-1230.5742 983.119,-1269 947.0228,-1293.9324 923.3513,-1340.457 911.11,-1370.2906"/>
<polygon fill="#000000" stroke="#000000" points="907.807,-1369.1261 907.3953,-1379.7129 914.3191,-1371.6935 907.807,-1369.1261"/>
<text text-anchor="start" x="1040.0845" y="-1272" font-family="Helvetica,sans-Serif" font-size="10.00" fill="#000000">return &#160;&#160;</text>
</g>
<!-- admin_users_page -->
<g id="node24" class="node">
<title>admin_users_page</title>
<polygon fill="transparent" stroke="transparent" stroke-width="2" points="1296.001,-1316 1172.001,-1316 1172.001,-1280 1296.001,-1280 1296.001,-1316"/>
<text text-anchor="start" x="1182.9854" y="-1294.2" font-family="Helvetica,sans-Serif" font-size="12.00" fill="#000000">admin_users_page</text>
<path fill="none" stroke="#000000" stroke-width="2" d="M1184.3343,-1281C1184.3343,-1281 1283.6677,-1281 1283.6677,-1281 1289.3343,-1281 1295.001,-1286.6667 1295.001,-1292.3333 1295.001,-1292.3333 1295.001,-1303.6667 1295.001,-1303.6667 1295.001,-1309.3333 1289.3343,-1315 1283.6677,-1315 1283.6677,-1315 1184.3343,-1315 1184.3343,-1315 1178.6677,-1315 1173.001,-1309.3333 1173.001,-1303.6667 1173.001,-1303.6667 1173.001,-1292.3333 1173.001,-1292.3333 1173.001,-1286.6667 1178.6677,-1281 1184.3343,-1281"/>
</g>
<!-- admin_users_page&#45;&gt;admin_page -->
<g id="edge69" class="edge">
<title>admin_users_page&#45;&gt;admin_page</title>
<path fill="none" stroke="#000000" d="M1171.9089,-1288.7845C1119.1809,-1283.7892 1042.7894,-1283.3899 983.119,-1311 955.2638,-1323.8889 932.2285,-1350.9164 917.7391,-1371.4479"/>
<polygon fill="#000000" stroke="#000000" points="914.7953,-1369.5527 912.0634,-1379.7893 920.5826,-1373.4906 914.7953,-1369.5527"/>
<text text-anchor="start" x="1040.0845" y="-1314" font-family="Helvetica,sans-Serif" font-size="10.00" fill="#000000">return &#160;&#160;</text>
</g>
<!-- admin_groups_page -->
<g id="node25" class="node">
<title>admin_groups_page</title>
<polygon fill="transparent" stroke="transparent" stroke-width="2" points="1299.501,-1450 1168.501,-1450 1168.501,-1414 1299.501,-1414 1299.501,-1450"/>
<text text-anchor="start" x="1179.8146" y="-1428.2" font-family="Helvetica,sans-Serif" font-size="12.00" fill="#000000">admin_groups_page</text>
<path fill="none" stroke="#000000" stroke-width="2" d="M1180.8343,-1415C1180.8343,-1415 1287.1677,-1415 1287.1677,-1415 1292.8343,-1415 1298.501,-1420.6667 1298.501,-1426.3333 1298.501,-1426.3333 1298.501,-1437.6667 1298.501,-1437.6667 1298.501,-1443.3333 1292.8343,-1449 1287.1677,-1449 1287.1677,-1449 1180.8343,-1449 1180.8343,-1449 1175.1677,-1449 1169.501,-1443.3333 1169.501,-1437.6667 1169.501,-1437.6667 1169.501,-1426.3333 1169.501,-1426.3333 1169.501,-1420.6667 1175.1677,-1415 1180.8343,-1415"/>
</g>
<!-- admin_groups_page&#45;&gt;admin_groups_page -->
<g id="edge78" class="edge">
<title>admin_groups_page&#45;&gt;admin_groups_page</title>
<path fill="none" stroke="#000000" d="M1217.6196,-1450.1003C1213.6694,-1461.3213 1219.1299,-1472 1234.001,-1472 1244.2249,-1472 1250.0008,-1466.9526 1251.3287,-1460.1518"/>
<polygon fill="#000000" stroke="#000000" points="1254.8044,-1459.7282 1250.3824,-1450.1003 1247.8352,-1460.3843 1254.8044,-1459.7282"/>
<text text-anchor="start" x="1205.932" y="-1475" font-family="Helvetica,sans-Serif" font-size="10.00" fill="#000000">group_add &#160;&#160;</text>
</g>
<!-- admin_group_deleting -->
<g id="node26" class="node">
<title>admin_group_deleting</title>
<polygon fill="transparent" stroke="transparent" stroke-width="2" points="1605.199,-1450 1465.199,-1450 1465.199,-1414 1605.199,-1414 1605.199,-1450"/>
<text text-anchor="start" x="1475.847" y="-1428.2" font-family="Helvetica,sans-Serif" font-size="12.00" fill="#000000">admin_group_deleting</text>
<path fill="none" stroke="#000000" stroke-width="2" d="M1477.5323,-1415C1477.5323,-1415 1592.8657,-1415 1592.8657,-1415 1598.5323,-1415 1604.199,-1420.6667 1604.199,-1426.3333 1604.199,-1426.3333 1604.199,-1437.6667 1604.199,-1437.6667 1604.199,-1443.3333 1598.5323,-1449 1592.8657,-1449 1592.8657,-1449 1477.5323,-1449 1477.5323,-1449 1471.8657,-1449 1466.199,-1443.3333 1466.199,-1437.6667 1466.199,-1437.6667 1466.199,-1426.3333 1466.199,-1426.3333 1466.199,-1420.6667 1471.8657,-1415 1477.5323,-1415"/>
</g>
<!-- admin_groups_page&#45;&gt;admin_group_deleting -->
<g id="edge79" class="edge">
<title>admin_groups_page&#45;&gt;admin_group_deleting</title>
<path fill="none" stroke="#000000" d="M1299.728,-1432C1345.3799,-1432 1406.481,-1432 1455.0013,-1432"/>
<polygon fill="#000000" stroke="#000000" points="1455.154,-1435.5001 1465.154,-1432 1455.154,-1428.5001 1455.154,-1435.5001"/>
<text text-anchor="start" x="1359.0025" y="-1435" font-family="Helvetica,sans-Serif" font-size="10.00" fill="#000000">group_delete &#160;&#160;</text>
</g>
<!-- admin_groups_page&#45;&gt;admin_page -->
<g id="edge70" class="edge">
<title>admin_groups_page&#45;&gt;admin_page</title>
<path fill="none" stroke="#000000" d="M1168.4314,-1436.8909C1117.4631,-1439.2693 1045.2245,-1439.5154 983.119,-1428 972.7275,-1426.0732 961.9142,-1422.9709 951.6796,-1419.4762"/>
<polygon fill="#000000" stroke="#000000" points="952.6715,-1416.1136 942.077,-1416.0309 950.3075,-1422.7024 952.6715,-1416.1136"/>
<text text-anchor="start" x="1040.0845" y="-1441" font-family="Helvetica,sans-Serif" font-size="10.00" fill="#000000">return &#160;&#160;</text>
</g>
<!-- admin_group_deleting&#45;&gt;admin_groups_page -->
<g id="edge80" class="edge">
<title>admin_group_deleting&#45;&gt;admin_groups_page</title>
<path fill="none" stroke="#000000" d="M1465.0944,-1417.0965C1459.3976,-1416.2535 1453.7136,-1415.5337 1448.199,-1415 1398.7863,-1410.2175 1385.977,-1410.9249 1336.501,-1415 1327.815,-1415.7154 1318.7565,-1416.7663 1309.7756,-1418.0007"/>
<polygon fill="#000000" stroke="#000000" points="1309.0864,-1414.5639 1299.6928,-1419.464 1310.0918,-1421.4913 1309.0864,-1414.5639"/>
<text text-anchor="start" x="1339.836" y="-1418" font-family="Helvetica,sans-Serif" font-size="10.00" fill="#000000">group_delete_confirm &#160;&#160;</text>
</g>
<!-- admin_permissions_page -->
<g id="node27" class="node">
<title>admin_permissions_page</title>
<polygon fill="transparent" stroke="transparent" stroke-width="2" points="1313.001,-1550 1155.001,-1550 1155.001,-1514 1313.001,-1514 1313.001,-1550"/>
<text text-anchor="start" x="1165.6544" y="-1528.2" font-family="Helvetica,sans-Serif" font-size="12.00" fill="#000000">admin_permissions_page</text>
<path fill="none" stroke="#000000" stroke-width="2" d="M1167.3343,-1515C1167.3343,-1515 1300.6677,-1515 1300.6677,-1515 1306.3343,-1515 1312.001,-1520.6667 1312.001,-1526.3333 1312.001,-1526.3333 1312.001,-1537.6667 1312.001,-1537.6667 1312.001,-1543.3333 1306.3343,-1549 1300.6677,-1549 1300.6677,-1549 1167.3343,-1549 1167.3343,-1549 1161.6677,-1549 1156.001,-1543.3333 1156.001,-1537.6667 1156.001,-1537.6667 1156.001,-1526.3333 1156.001,-1526.3333 1156.001,-1520.6667 1161.6677,-1515 1167.3343,-1515"/>
</g>
<!-- admin_permissions_page&#45;&gt;admin_page -->
<g id="edge71" class="edge">
<title>admin_permissions_page&#45;&gt;admin_page</title>
<path fill="none" stroke="#000000" d="M1154.7647,-1514.2007C1091.8539,-1498.8945 1010.1279,-1476.0253 983.119,-1455 971.631,-1446.0571 977.0411,-1436.6259 966.119,-1427 962.4861,-1423.7983 958.4424,-1420.8973 954.1987,-1418.2799"/>
<polygon fill="#000000" stroke="#000000" points="955.7126,-1415.1167 945.2746,-1413.3003 952.3016,-1421.2294 955.7126,-1415.1167"/>
<text text-anchor="start" x="1040.0845" y="-1511" font-family="Helvetica,sans-Serif" font-size="10.00" fill="#000000">return &#160;&#160;</text>
</g>
<!-- admin_locks_page -->
<g id="node28" class="node">
<title>admin_locks_page</title>
<polygon fill="transparent" stroke="transparent" stroke-width="2" points="1295.001,-1668 1173.001,-1668 1173.001,-1632 1295.001,-1632 1295.001,-1668"/>
<text text-anchor="start" x="1183.9868" y="-1646.2" font-family="Helvetica,sans-Serif" font-size="12.00" fill="#000000">admin_locks_page</text>
<path fill="none" stroke="#000000" stroke-width="2" d="M1185.3343,-1633C1185.3343,-1633 1282.6677,-1633 1282.6677,-1633 1288.3343,-1633 1294.001,-1638.6667 1294.001,-1644.3333 1294.001,-1644.3333 1294.001,-1655.6667 1294.001,-1655.6667 1294.001,-1661.3333 1288.3343,-1667 1282.6677,-1667 1282.6677,-1667 1185.3343,-1667 1185.3343,-1667 1179.6677,-1667 1174.001,-1661.3333 1174.001,-1655.6667 1174.001,-1655.6667 1174.001,-1644.3333 1174.001,-1644.3333 1174.001,-1638.6667 1179.6677,-1633 1185.3343,-1633"/>
</g>
<!-- admin_locks_page&#45;&gt;admin_page -->
<g id="edge72" class="edge">
<title>admin_locks_page&#45;&gt;admin_page</title>
<path fill="none" stroke="#000000" d="M1175.5549,-1668.0166C1118.7522,-1681.5319 1033.8468,-1690.5054 983.119,-1643 965.547,-1626.5442 979.8878,-1446.7481 966.119,-1427 962.8945,-1422.3753 958.7548,-1418.4779 954.1285,-1415.1954"/>
<polygon fill="#000000" stroke="#000000" points="955.7416,-1412.0814 945.3681,-1409.9269 952.1339,-1418.0801 955.7416,-1412.0814"/>
<text text-anchor="start" x="1040.0845" y="-1681" font-family="Helvetica,sans-Serif" font-size="10.00" fill="#000000">return &#160;&#160;</text>
</g>
<!-- admin_alarms_page -->
<g id="node29" class="node">
<title>admin_alarms_page</title>
<polygon fill="transparent" stroke="transparent" stroke-width="2" points="1299.001,-1780 1169.001,-1780 1169.001,-1744 1299.001,-1744 1299.001,-1780"/>
<text text-anchor="start" x="1179.6566" y="-1758.2" font-family="Helvetica,sans-Serif" font-size="12.00" fill="#000000">admin_alarms_page</text>
<path fill="none" stroke="#000000" stroke-width="2" d="M1181.3343,-1745C1181.3343,-1745 1286.6677,-1745 1286.6677,-1745 1292.3343,-1745 1298.001,-1750.6667 1298.001,-1756.3333 1298.001,-1756.3333 1298.001,-1767.6667 1298.001,-1767.6667 1298.001,-1773.3333 1292.3343,-1779 1286.6677,-1779 1286.6677,-1779 1181.3343,-1779 1181.3343,-1779 1175.6677,-1779 1170.001,-1773.3333 1170.001,-1767.6667 1170.001,-1767.6667 1170.001,-1756.3333 1170.001,-1756.3333 1170.001,-1750.6667 1175.6677,-1745 1181.3343,-1745"/>
</g>
<!-- admin_alarms_page&#45;&gt;admin_page -->
<g id="edge73" class="edge">
<title>admin_alarms_page&#45;&gt;admin_page</title>
<path fill="none" stroke="#000000" d="M1168.9587,-1744.1309C1156.5292,-1740.7449 1143.6175,-1737.2472 1131.501,-1734 1065.6378,-1716.3489 1027.3403,-1746.9038 983.119,-1695 963.7686,-1672.2878 982.9243,-1451.6549 966.119,-1427 962.9001,-1422.2776 958.7228,-1418.315 954.0383,-1414.9918"/>
<polygon fill="#000000" stroke="#000000" points="955.5339,-1411.8079 945.156,-1409.6746 951.9384,-1417.814 955.5339,-1411.8079"/>
<text text-anchor="start" x="1040.0845" y="-1737" font-family="Helvetica,sans-Serif" font-size="10.00" fill="#000000">return &#160;&#160;</text>
</g>
<!-- admin_sessions_page -->
<g id="node30" class="node">
<title>admin_sessions_page</title>
<polygon fill="transparent" stroke="transparent" stroke-width="2" points="1304.501,-1891 1163.501,-1891 1163.501,-1855 1304.501,-1855 1304.501,-1891"/>
<text text-anchor="start" x="1174.816" y="-1869.2" font-family="Helvetica,sans-Serif" font-size="12.00" fill="#000000">admin_sessions_page</text>
<path fill="none" stroke="#000000" stroke-width="2" d="M1175.8343,-1856C1175.8343,-1856 1292.1677,-1856 1292.1677,-1856 1297.8343,-1856 1303.501,-1861.6667 1303.501,-1867.3333 1303.501,-1867.3333 1303.501,-1878.6667 1303.501,-1878.6667 1303.501,-1884.3333 1297.8343,-1890 1292.1677,-1890 1292.1677,-1890 1175.8343,-1890 1175.8343,-1890 1170.1677,-1890 1164.501,-1884.3333 1164.501,-1878.6667 1164.501,-1878.6667 1164.501,-1867.3333 1164.501,-1867.3333 1164.501,-1861.6667 1170.1677,-1856 1175.8343,-1856"/>
</g>
<!-- admin_sessions_page&#45;&gt;admin_page -->
<g id="edge74" class="edge">
<title>admin_sessions_page&#45;&gt;admin_page</title>
<path fill="none" stroke="#000000" d="M1177.9794,-1891.0075C1121.2225,-1905.3818 1034.6548,-1916.057 983.119,-1868 965.1874,-1851.2788 979.7049,-1447.4099 966.119,-1427 962.9522,-1422.2425 958.8081,-1418.2576 954.1431,-1414.9212"/>
<polygon fill="#000000" stroke="#000000" points="955.6553,-1411.7464 945.2824,-1409.5895 952.0462,-1417.7443 955.6553,-1411.7464"/>
<text text-anchor="start" x="1040.0845" y="-1906" font-family="Helvetica,sans-Serif" font-size="10.00" fill="#000000">return &#160;&#160;</text>
</g>
<!-- admin_php_shell_page -->
<g id="node31" class="node">
<title>admin_php_shell_page</title>
<polygon fill="transparent" stroke="transparent" stroke-width="2" points="1307.001,-1973 1161.001,-1973 1161.001,-1937 1307.001,-1937 1307.001,-1973"/>
<text text-anchor="start" x="1171.9784" y="-1951.2" font-family="Helvetica,sans-Serif" font-size="12.00" fill="#000000">admin_php_shell_page</text>
<path fill="none" stroke="#000000" stroke-width="2" d="M1173.3343,-1938C1173.3343,-1938 1294.6677,-1938 1294.6677,-1938 1300.3343,-1938 1306.001,-1943.6667 1306.001,-1949.3333 1306.001,-1949.3333 1306.001,-1960.6667 1306.001,-1960.6667 1306.001,-1966.3333 1300.3343,-1972 1294.6677,-1972 1294.6677,-1972 1173.3343,-1972 1173.3343,-1972 1167.6677,-1972 1162.001,-1966.3333 1162.001,-1960.6667 1162.001,-1960.6667 1162.001,-1949.3333 1162.001,-1949.3333 1162.001,-1943.6667 1167.6677,-1938 1173.3343,-1938"/>
</g>
<!-- admin_php_shell_page&#45;&gt;admin_php_shell_page -->
<g id="edge81" class="edge">
<title>admin_php_shell_page&#45;&gt;admin_php_shell_page</title>
<path fill="none" stroke="#000000" d="M1217.6196,-1973.1003C1213.6694,-1984.3213 1219.1299,-1995 1234.001,-1995 1244.2249,-1995 1250.0008,-1989.9526 1251.3287,-1983.1518"/>
<polygon fill="#000000" stroke="#000000" points="1254.8044,-1982.7282 1250.3824,-1973.1003 1247.8352,-1983.3843 1254.8044,-1982.7282"/>
<text text-anchor="start" x="1208.1555" y="-1998" font-family="Helvetica,sans-Serif" font-size="10.00" fill="#000000">exec_php &#160;&#160;</text>
</g>
<!-- admin_php_shell_page&#45;&gt;admin_page -->
<g id="edge75" class="edge">
<title>admin_php_shell_page&#45;&gt;admin_page</title>
<path fill="none" stroke="#000000" d="M1160.7198,-1954.6563C1095.4195,-1952.6554 1006.6434,-1945.1915 983.119,-1920 964.4147,-1899.9702 981.2871,-1449.8248 966.119,-1427 962.9559,-1422.2401 958.8141,-1418.2536 954.1505,-1414.9163"/>
<polygon fill="#000000" stroke="#000000" points="955.6639,-1411.7421 945.2913,-1409.5836 952.0539,-1417.7394 955.6639,-1411.7421"/>
<text text-anchor="start" x="1040.0845" y="-1956" font-family="Helvetica,sans-Serif" font-size="10.00" fill="#000000">return &#160;&#160;</text>
</g>
<!-- admin_sql_shell_page -->
<g id="node32" class="node">
<title>admin_sql_shell_page</title>
<polygon fill="transparent" stroke="transparent" stroke-width="2" points="1304.501,-1003 1163.501,-1003 1163.501,-967 1304.501,-967 1304.501,-1003"/>
<text text-anchor="start" x="1174.8178" y="-981.2" font-family="Helvetica,sans-Serif" font-size="12.00" fill="#000000">admin_sql_shell_page</text>
<path fill="none" stroke="#000000" stroke-width="2" d="M1175.8343,-968C1175.8343,-968 1292.1677,-968 1292.1677,-968 1297.8343,-968 1303.501,-973.6667 1303.501,-979.3333 1303.501,-979.3333 1303.501,-990.6667 1303.501,-990.6667 1303.501,-996.3333 1297.8343,-1002 1292.1677,-1002 1292.1677,-1002 1175.8343,-1002 1175.8343,-1002 1170.1677,-1002 1164.501,-996.3333 1164.501,-990.6667 1164.501,-990.6667 1164.501,-979.3333 1164.501,-979.3333 1164.501,-973.6667 1170.1677,-968 1175.8343,-968"/>
</g>
<!-- admin_sql_shell_page&#45;&gt;admin_sql_shell_page -->
<g id="edge82" class="edge">
<title>admin_sql_shell_page&#45;&gt;admin_sql_shell_page</title>
<path fill="none" stroke="#000000" d="M1217.6196,-1003.1003C1213.6694,-1014.3213 1219.1299,-1025 1234.001,-1025 1244.2249,-1025 1250.0008,-1019.9526 1251.3287,-1013.1518"/>
<polygon fill="#000000" stroke="#000000" points="1254.8044,-1012.7282 1250.3824,-1003.1003 1247.8352,-1013.3843 1254.8044,-1012.7282"/>
<text text-anchor="start" x="1210.105" y="-1028" font-family="Helvetica,sans-Serif" font-size="10.00" fill="#000000">exec_sql &#160;&#160;</text>
</g>
<!-- admin_sql_shell_page&#45;&gt;admin_page -->
<g id="edge76" class="edge">
<title>admin_sql_shell_page&#45;&gt;admin_page</title>
<path fill="none" stroke="#000000" d="M1196.8175,-966.8326C1143.1307,-943.5274 1043.7159,-911.7374 983.119,-962 919.9503,-1014.3959 905.1272,-1281.7041 901.9335,-1369.7998"/>
<polygon fill="#000000" stroke="#000000" points="898.4334,-1369.7461 901.5919,-1379.8591 905.4293,-1369.9837 898.4334,-1369.7461"/>
<text text-anchor="start" x="1040.0845" y="-965" font-family="Helvetica,sans-Serif" font-size="10.00" fill="#000000">return &#160;&#160;</text>
</g>
<!-- admin_cli_page -->
<g id="node33" class="node">
<title>admin_cli_page</title>
<polygon fill="transparent" stroke="transparent" stroke-width="2" points="1287.001,-1102 1181.001,-1102 1181.001,-1066 1287.001,-1066 1287.001,-1102"/>
<text text-anchor="start" x="1191.9908" y="-1080.2" font-family="Helvetica,sans-Serif" font-size="12.00" fill="#000000">admin_cli_page</text>
<path fill="none" stroke="#000000" stroke-width="2" d="M1193.3343,-1067C1193.3343,-1067 1274.6677,-1067 1274.6677,-1067 1280.3343,-1067 1286.001,-1072.6667 1286.001,-1078.3333 1286.001,-1078.3333 1286.001,-1089.6667 1286.001,-1089.6667 1286.001,-1095.3333 1280.3343,-1101 1274.6677,-1101 1274.6677,-1101 1193.3343,-1101 1193.3343,-1101 1187.6677,-1101 1182.001,-1095.3333 1182.001,-1089.6667 1182.001,-1089.6667 1182.001,-1078.3333 1182.001,-1078.3333 1182.001,-1072.6667 1187.6677,-1067 1193.3343,-1067"/>
</g>
<!-- admin_cli_page&#45;&gt;admin_cli_page -->
<g id="edge83" class="edge">
<title>admin_cli_page&#45;&gt;admin_cli_page</title>
<path fill="none" stroke="#000000" d="M1217.6196,-1102.1003C1213.6694,-1113.3213 1219.1299,-1124 1234.001,-1124 1244.2249,-1124 1250.0008,-1118.9526 1251.3287,-1112.1518"/>
<polygon fill="#000000" stroke="#000000" points="1254.8044,-1111.7282 1250.3824,-1102.1003 1247.8352,-1112.3843 1254.8044,-1111.7282"/>
<text text-anchor="start" x="1194.547" y="-1127" font-family="Helvetica,sans-Serif" font-size="10.00" fill="#000000">exec_command &#160;&#160;</text>
</g>
<!-- admin_cli_page&#45;&gt;admin_page -->
<g id="edge77" class="edge">
<title>admin_cli_page&#45;&gt;admin_page</title>
<path fill="none" stroke="#000000" d="M1180.936,-1092.1289C1116.0967,-1103.0625 1011.5024,-1124.2589 983.119,-1151 950.6887,-1181.5538 919.5582,-1311.6316 906.973,-1369.7505"/>
<polygon fill="#000000" stroke="#000000" points="903.5086,-1369.2144 904.8428,-1379.7249 910.3543,-1370.6765 903.5086,-1369.2144"/>
<text text-anchor="start" x="1040.0845" y="-1154" font-family="Helvetica,sans-Serif" font-size="10.00" fill="#000000">return &#160;&#160;</text>
</g>
<!-- preferences_page&#45;&gt;selecting_menu -->
<g id="edge27" class="edge">
<title>preferences_page&#45;&gt;selecting_menu</title>
<path fill="none" stroke="#000000" d="M841.8408,-1463.0128C799.3868,-1464.7801 743.1437,-1460.0693 704.629,-1430 657.8646,-1393.49 642.2643,-1321.1322 637.1172,-1281.1661"/>
<polygon fill="#000000" stroke="#000000" points="640.5724,-1280.5757 635.9491,-1271.0428 633.6185,-1281.3781 640.5724,-1280.5757"/>
<text text-anchor="start" x="744.6485" y="-1466" font-family="Helvetica,sans-Serif" font-size="10.00" fill="#000000">return &#160;&#160;</text>
</g>
<!-- preferences_personal_page -->
<g id="node35" class="node">
<title>preferences_personal_page</title>
<polygon fill="transparent" stroke="transparent" stroke-width="2" points="1319.501,-2061 1148.501,-2061 1148.501,-2025 1319.501,-2025 1319.501,-2061"/>
<text text-anchor="start" x="1159.8082" y="-2039.2" font-family="Helvetica,sans-Serif" font-size="12.00" fill="#000000">preferences_personal_page</text>
<path fill="none" stroke="#000000" stroke-width="2" d="M1160.8343,-2026C1160.8343,-2026 1307.1677,-2026 1307.1677,-2026 1312.8343,-2026 1318.501,-2031.6667 1318.501,-2037.3333 1318.501,-2037.3333 1318.501,-2048.6667 1318.501,-2048.6667 1318.501,-2054.3333 1312.8343,-2060 1307.1677,-2060 1307.1677,-2060 1160.8343,-2060 1160.8343,-2060 1155.1677,-2060 1149.501,-2054.3333 1149.501,-2048.6667 1149.501,-2048.6667 1149.501,-2037.3333 1149.501,-2037.3333 1149.501,-2031.6667 1155.1677,-2026 1160.8343,-2026"/>
</g>
<!-- preferences_page&#45;&gt;preferences_personal_page -->
<g id="edge84" class="edge">
<title>preferences_page&#45;&gt;preferences_personal_page</title>
<path fill="none" stroke="#000000" d="M902.3761,-1474.2287C908.9859,-1567.5181 941.0154,-1988.6373 983.119,-2027 1026.3834,-2066.4204 1093.1674,-2068.9304 1146.9564,-2062.3835"/>
<polygon fill="#000000" stroke="#000000" points="1147.7384,-2065.8101 1157.1846,-2061.0123 1146.8082,-2058.8722 1147.7384,-2065.8101"/>
<text text-anchor="start" x="983.119" y="-2068" font-family="Helvetica,sans-Serif" font-size="10.00" fill="#000000">navigate_preferences_personal &#160;&#160;</text>
</g>
<!-- preferences_personal_page&#45;&gt;preferences_personal_page -->
<g id="edge85" class="edge">
<title>preferences_personal_page&#45;&gt;preferences_personal_page</title>
<path fill="none" stroke="#000000" d="M1217.6196,-2061.1003C1213.6694,-2072.3213 1219.1299,-2083 1234.001,-2083 1244.2249,-2083 1250.0008,-2077.9526 1251.3287,-2071.1518"/>
<polygon fill="#000000" stroke="#000000" points="1254.8044,-2070.7282 1250.3824,-2061.1003 1247.8352,-2071.3843 1254.8044,-2070.7282"/>
<text text-anchor="start" x="1172.0375" y="-2086" font-family="Helvetica,sans-Serif" font-size="10.00" fill="#000000">set_preferences_personal &#160;&#160;</text>
</g>
<!-- admin_page&#45;&gt;selecting_menu -->
<g id="edge26" class="edge">
<title>admin_page&#45;&gt;selecting_menu</title>
<path fill="none" stroke="#000000" d="M893.579,-1379.956C881.778,-1354.1309 856.3728,-1307.1934 819.119,-1284 783.0798,-1261.5628 735.7462,-1253.9562 698.0473,-1251.885"/>
<polygon fill="#000000" stroke="#000000" points="697.8282,-1248.3724 687.6872,-1251.4399 697.5277,-1255.366 697.8282,-1248.3724"/>
<text text-anchor="start" x="744.6485" y="-1287" font-family="Helvetica,sans-Serif" font-size="10.00" fill="#000000">return &#160;&#160;</text>
</g>
<!-- admin_page&#45;&gt;admin_config_page -->
<g id="edge58" class="edge">
<title>admin_page&#45;&gt;admin_config_page</title>
<path fill="none" stroke="#000000" d="M901.9263,-1379.8012C904.886,-1337.8833 918.6947,-1234.7742 983.119,-1191 1043.767,-1149.7916 1132.4117,-1173.6145 1186.4815,-1195.0267"/>
<polygon fill="#000000" stroke="#000000" points="1185.2521,-1198.3052 1195.8333,-1198.8429 1187.8969,-1191.824 1185.2521,-1198.3052"/>
<text text-anchor="start" x="1018.6905" y="-1194" font-family="Helvetica,sans-Serif" font-size="10.00" fill="#000000">check_versions &#160;&#160;</text>
</g>
<!-- admin_page&#45;&gt;admin_users_page -->
<g id="edge59" class="edge">
<title>admin_page&#45;&gt;admin_users_page</title>
<path fill="none" stroke="#000000" d="M945.3232,-1384.7208C1001.1724,-1367.9433 1097.9453,-1338.872 1163.9147,-1319.0544"/>
<polygon fill="#000000" stroke="#000000" points="1165.2508,-1322.3076 1173.821,-1316.0785 1163.2368,-1315.6036 1165.2508,-1322.3076"/>
<text text-anchor="start" x="1002.85" y="-1376" font-family="Helvetica,sans-Serif" font-size="10.00" fill="#000000">navigate_admin_users &#160;&#160;</text>
</g>
<!-- admin_page&#45;&gt;admin_groups_page -->
<g id="edge60" class="edge">
<title>admin_page&#45;&gt;admin_groups_page</title>
<path fill="none" stroke="#000000" d="M945.3994,-1400.0729C991.8685,-1402.5275 1066.9894,-1407.2862 1131.501,-1415 1140.1548,-1416.0348 1149.1932,-1417.2845 1158.1628,-1418.6312"/>
<polygon fill="#000000" stroke="#000000" points="1157.8193,-1422.1195 1168.2363,-1420.1865 1158.8875,-1415.2015 1157.8193,-1422.1195"/>
<text text-anchor="start" x="999.791" y="-1418" font-family="Helvetica,sans-Serif" font-size="10.00" fill="#000000">navigate_admin_groups &#160;&#160;</text>
</g>
<!-- admin_page&#45;&gt;admin_permissions_page -->
<g id="edge61" class="edge">
<title>admin_page&#45;&gt;admin_permissions_page</title>
<path fill="none" stroke="#000000" d="M945.2378,-1410.019C953.3361,-1414.1486 960.8748,-1419.6604 966.119,-1427 977.6633,-1443.157 966.6119,-1497.6162 974.119,-1516 976.507,-1521.8479 977.438,-1524.2382 983.119,-1527 1032.7863,-1551.1452 1094.7825,-1552.6039 1144.7188,-1547.9234"/>
<polygon fill="#000000" stroke="#000000" points="1145.2733,-1551.3848 1154.86,-1546.8741 1144.5528,-1544.422 1145.2733,-1551.3848"/>
<text text-anchor="start" x="988.4075" y="-1553" font-family="Helvetica,sans-Serif" font-size="10.00" fill="#000000">navigate_admin_permissions &#160;&#160;</text>
</g>
<!-- admin_page&#45;&gt;admin_locks_page -->
<g id="edge62" class="edge">
<title>admin_page&#45;&gt;admin_locks_page</title>
<path fill="none" stroke="#000000" d="M945.2744,-1409.9929C953.3702,-1414.1243 960.8987,-1419.6434 966.119,-1427 984.2555,-1452.5586 962.3007,-1543.5741 983.119,-1567 1007.2511,-1594.1548 1097.5397,-1619.4765 1162.896,-1634.8409"/>
<polygon fill="#000000" stroke="#000000" points="1162.2195,-1638.2768 1172.7517,-1637.1273 1163.8014,-1631.4579 1162.2195,-1638.2768"/>
<text text-anchor="start" x="1003.6845" y="-1629" font-family="Helvetica,sans-Serif" font-size="10.00" fill="#000000">navigate_admin_locks &#160;&#160;</text>
</g>
<!-- admin_page&#45;&gt;admin_alarms_page -->
<g id="edge63" class="edge">
<title>admin_page&#45;&gt;admin_alarms_page</title>
<path fill="none" stroke="#000000" d="M945.2703,-1409.5975C953.4719,-1413.7612 961.0441,-1419.3934 966.119,-1427 985.4266,-1455.9396 962.0057,-1707.3879 974.119,-1740 976.3184,-1745.9215 977.4714,-1748.1706 983.119,-1751 1037.2944,-1778.1415 1106.5925,-1779.0546 1158.6247,-1774.2186"/>
<polygon fill="#000000" stroke="#000000" points="1159.1985,-1777.6783 1168.7913,-1773.1808 1158.4875,-1770.7144 1159.1985,-1777.6783"/>
<text text-anchor="start" x="1000.076" y="-1779" font-family="Helvetica,sans-Serif" font-size="10.00" fill="#000000">navigate_admin_alarms &#160;&#160;</text>
</g>
<!-- admin_page&#45;&gt;admin_sessions_page -->
<g id="edge64" class="edge">
<title>admin_page&#45;&gt;admin_sessions_page</title>
<path fill="none" stroke="#000000" d="M945.2735,-1409.5954C953.475,-1413.7592 961.0462,-1419.392 966.119,-1427 975.9844,-1441.796 972.1826,-1729.3224 974.119,-1747 976.3873,-1767.7082 969.263,-1777.444 983.119,-1793 1006.0292,-1818.7211 1088.8943,-1841.8804 1153.1942,-1856.582"/>
<polygon fill="#000000" stroke="#000000" points="1152.8178,-1860.0849 1163.3425,-1858.868 1154.3561,-1853.256 1152.8178,-1860.0849"/>
<text text-anchor="start" x="995.6255" y="-1854" font-family="Helvetica,sans-Serif" font-size="10.00" fill="#000000">navigate_admin_sessions &#160;&#160;</text>
</g>
<!-- admin_page&#45;&gt;admin_php_shell_page -->
<g id="edge65" class="edge">
<title>admin_page&#45;&gt;admin_php_shell_page</title>
<path fill="none" stroke="#000000" d="M945.3318,-1409.5567C953.5297,-1413.7229 961.0847,-1419.3665 966.119,-1427 982.5455,-1451.9077 963.8793,-1935.9755 974.119,-1964 1001.9923,-2040.285 1119.0323,-2004.9078 1186.1513,-1977.1349"/>
<polygon fill="#000000" stroke="#000000" points="1187.8286,-1980.2257 1195.6753,-1973.1066 1185.1018,-1973.7787 1187.8286,-1980.2257"/>
<text text-anchor="start" x="993.6775" y="-2013" font-family="Helvetica,sans-Serif" font-size="10.00" fill="#000000">navigate_admin_php_shell &#160;&#160;</text>
</g>
<!-- admin_page&#45;&gt;admin_sql_shell_page -->
<g id="edge66" class="edge">
<title>admin_page&#45;&gt;admin_sql_shell_page</title>
<path fill="none" stroke="#000000" d="M902.6011,-1379.9762C908.4509,-1313.3609 932.1511,-1082.365 983.119,-1033 1027.6508,-989.8687 1098.3623,-979.5302 1153.3806,-979.0313"/>
<polygon fill="#000000" stroke="#000000" points="1153.4558,-982.5313 1163.4613,-979.0469 1153.4667,-975.5313 1153.4558,-982.5313"/>
<text text-anchor="start" x="995.627" y="-1036" font-family="Helvetica,sans-Serif" font-size="10.00" fill="#000000">navigate_admin_sql_shell &#160;&#160;</text>
</g>
<!-- admin_page&#45;&gt;admin_cli_page -->
<g id="edge67" class="edge">
<title>admin_page&#45;&gt;admin_cli_page</title>
<path fill="none" stroke="#000000" d="M902.9046,-1379.8151C909.405,-1317.815 934.0403,-1116.4861 983.119,-1079 1036.9265,-1037.9021 1117.8693,-1048.5484 1173.1674,-1063.2584"/>
<polygon fill="#000000" stroke="#000000" points="1172.2674,-1066.6409 1182.8392,-1065.9417 1174.1388,-1059.8956 1172.2674,-1066.6409"/>
<text text-anchor="start" x="1010.3545" y="-1082" font-family="Helvetica,sans-Serif" font-size="10.00" fill="#000000">navigate_admin_cli &#160;&#160;</text>
</g>
<!-- event_edit&#45;&gt;calendar_page -->
<g id="edge39" class="edge">
<title>event_edit&#45;&gt;calendar_page</title>
<path fill="none" stroke="#000000" d="M1195.4493,-206C1138.1181,-206 1029.8578,-206 961.8238,-206"/>
<polygon fill="#000000" stroke="#000000" points="961.6766,-202.5001 951.6766,-206 961.6766,-209.5001 961.6766,-202.5001"/>
<text text-anchor="start" x="1024.517" y="-209" font-family="Helvetica,sans-Serif" font-size="10.00" fill="#000000">delete_event &#160;&#160;</text>
</g>
<!-- event_edit&#45;&gt;calendar_page -->
<g id="edge40" class="edge">
<title>event_edit&#45;&gt;calendar_page</title>
<path fill="none" stroke="#000000" d="M1195.2504,-213.9709C1176.1491,-217.5044 1152.7143,-221.2528 1131.501,-223 1065.776,-228.4134 1048.7224,-229.7288 983.119,-223 976.3169,-222.3023 969.2465,-221.2872 962.2359,-220.0949"/>
<polygon fill="#000000" stroke="#000000" points="962.5112,-216.5875 952.0457,-218.2374 961.2559,-223.474 962.5112,-216.5875"/>
<text text-anchor="start" x="1027.5815" y="-230" font-family="Helvetica,sans-Serif" font-size="10.00" fill="#000000">write_event &#160;&#160;</text>
</g>
<!-- event_compose&#45;&gt;calendar_page -->
<g id="edge41" class="edge">
<title>event_compose&#45;&gt;calendar_page</title>
<path fill="none" stroke="#000000" d="M1180.8642,-52.4444C1127.2147,-41.8499 1043.8253,-34.1044 983.119,-69 942.3507,-92.4347 919.6058,-144.97 908.8996,-177.7477"/>
<polygon fill="#000000" stroke="#000000" points="905.453,-177.0459 905.839,-187.6337 912.1399,-179.1161 905.453,-177.0459"/>
<text text-anchor="start" x="1027.5815" y="-72" font-family="Helvetica,sans-Serif" font-size="10.00" fill="#000000">write_event &#160;&#160;</text>
</g>
<!-- ^logout?&#45;&gt;selecting_activity -->
<g id="edge5" class="edge">
<title>^logout?&#45;&gt;selecting_activity</title>
<path fill="none" stroke="#000000" d="M888.4476,-2180C863.9812,-2180 808.5307,-2180 761.874,-2180 225.017,-2180 225.017,-2180 225.017,-2180 212.4746,-2180 199.0914,-2180 186.2201,-2180"/>
<polygon fill="#000000" stroke="#000000" points="186.0333,-2176.5001 176.0333,-2180 186.0333,-2183.5001 186.0333,-2176.5001"/>
<text text-anchor="start" x="447.885" y="-2183" font-family="Helvetica,sans-Serif" font-size="10.00" fill="#000000">logout: [0.2] &#160;&#160;</text>
</g>
<!-- ^logout?&#45;&gt;selecting_activity -->
<g id="edge6" class="edge">
<title>^logout?&#45;&gt;selecting_activity</title>
<path fill="none" stroke="#000000" d="M891.8028,-2176.7362C879.1285,-2172.2559 855.7779,-2163.8594 836.119,-2156 802.7543,-2142.6612 797.8062,-2124 761.874,-2124 225.017,-2124 225.017,-2124 225.017,-2124 196.2234,-2124 167.6444,-2140.5394 147.5508,-2155.6412"/>
<polygon fill="#000000" stroke="#000000" points="145.1887,-2153.0458 139.4829,-2161.973 149.5104,-2158.5525 145.1887,-2153.0458"/>
<text text-anchor="start" x="450.384" y="-2127" font-family="Helvetica,sans-Serif" font-size="10.00" fill="#000000">noop: [0.8] &#160;&#160;</text>
</g>
<!-- ^logout?&#45;&gt;^logout? -->
<g id="edge1" class="edge">
<title>^logout?&#45;&gt;^logout?</title>
<path fill="none" stroke="transparent" d="M894.2932,-2185.7684C883.5156,-2197.8214 885.7909,-2214.5 901.119,-2214.5 912.9743,-2214.5 917.0214,-2204.5227 913.2602,-2194.4252"/>
<polygon fill="transparent" stroke="transparent" points="916.16,-2192.4589 907.9448,-2185.7684 910.1947,-2196.1216 916.16,-2192.4589"/>
<text text-anchor="start" x="884.7225" y="-2217.5" font-family="Helvetica,sans-Serif" font-size="10.00" fill="#000000">logout?</text>
</g>
<!-- ^opening_horde&#45;&gt;login_page -->
<g id="edge7" class="edge">
<title>^opening_horde&#45;&gt;login_page</title>
<path fill="none" stroke="#000000" d="M310.7401,-1340.5626C332.7365,-1329.0594 392.799,-1297.6492 434.6545,-1275.7605"/>
<polygon fill="#000000" stroke="#000000" points="436.3123,-1278.8433 443.5517,-1271.1076 433.0683,-1272.6403 436.3123,-1278.8433"/>
<text text-anchor="start" x="347.255" y="-1324" font-family="Helvetica,sans-Serif" font-size="10.00" fill="#000000">[not logged_in] &#160;&#160;</text>
</g>
<!-- ^opening_horde&#45;&gt;selecting_menu -->
<g id="edge8" class="edge">
<title>^opening_horde&#45;&gt;selecting_menu</title>
<path fill="none" stroke="#000000" d="M315.032,-1345C331.1561,-1345 359.7415,-1345 384.216,-1345 384.216,-1345 384.216,-1345 549.903,-1345 585.2927,-1345 609.9624,-1307.7094 623.2174,-1280.6108"/>
<polygon fill="#000000" stroke="#000000" points="626.5599,-1281.7216 627.5831,-1271.1762 620.2071,-1278.7819 626.5599,-1281.7216"/>
<text text-anchor="start" x="449.554" y="-1348" font-family="Helvetica,sans-Serif" font-size="10.00" fill="#000000">[logged_in] &#160;&#160;</text>
</g>
<!-- ^opening_horde&#45;&gt;^opening_horde -->
<g id="edge2" class="edge">
<title>^opening_horde&#45;&gt;^opening_horde</title>
<path fill="none" stroke="transparent" d="M297.8846,-1353.1421C293.6263,-1364.8948 295.0831,-1379.5 302.255,-1379.5 307.4658,-1379.5 309.6597,-1371.79 308.8366,-1363.0659"/>
<polygon fill="transparent" stroke="transparent" points="312.2165,-1362.1415 306.6254,-1353.1421 305.3841,-1363.664 312.2165,-1362.1415"/>
</g>
</g>
</svg>
