<?xml version="1.0" encoding="UTF-8" standalone="no"?>
<!DOCTYPE svg PUBLIC "-//W3C//DTD SVG 1.1//EN"
 "http://www.w3.org/Graphics/SVG/1.1/DTD/svg11.dtd">
<!-- Generated by graphviz version 2.40.1 (20161225.0304)
 -->
<!-- Title: state transitions Pages: 1 -->
<svg width="758pt" height="340pt"
 viewBox="0.00 0.00 757.58 340.00" xmlns="http://www.w3.org/2000/svg" xmlns:xlink="http://www.w3.org/1999/xlink">
<g id="graph0" class="graph" transform="scale(1 1) rotate(0) translate(4 336)">
<title>state transitions</title>
<polygon fill="#ffffff" stroke="transparent" points="-4,4 -4,-336 753.578,-336 753.578,4 -4,4"/>
<g id="clust1" class="cluster">
<title>cluster_Web Browser</title>
<path fill="none" stroke="#000000" stroke-width="2" d="M20,-8C20,-8 729.578,-8 729.578,-8 735.578,-8 741.578,-14 741.578,-20 741.578,-20 741.578,-312 741.578,-312 741.578,-318 735.578,-324 729.578,-324 729.578,-324 20,-324 20,-324 14,-324 8,-318 8,-312 8,-312 8,-20 8,-20 8,-14 14,-8 20,-8"/>
<text text-anchor="start" x="338.789" y="-305.2" font-family="Helvetica,sans-Serif" font-size="12.00" fill="#000000">Web Browser</text>
</g>
<!-- Web Browser -->
<!-- initial -->
<g id="node2" class="node">
<title>initial</title>
<ellipse fill="#000000" stroke="#000000" stroke-width="2" cx="21.5" cy="-150" rx="5.5" ry="5.5"/>
</g>
<!-- selecting_activity -->
<g id="node3" class="node">
<title>selecting_activity</title>
<polygon fill="transparent" stroke="transparent" stroke-width="2" points="175.779,-168 63.779,-168 63.779,-132 175.779,-132 175.779,-168"/>
<text text-anchor="start" x="74.4388" y="-146.2" font-family="Helvetica,sans-Serif" font-size="12.00" fill="#000000">selecting_activity</text>
<path fill="none" stroke="#000000" stroke-width="2" d="M76.1123,-133C76.1123,-133 163.4457,-133 163.4457,-133 169.1123,-133 174.779,-138.6667 174.779,-144.3333 174.779,-144.3333 174.779,-155.6667 174.779,-155.6667 174.779,-161.3333 169.1123,-167 163.4457,-167 163.4457,-167 76.1123,-167 76.1123,-167 70.4457,-167 64.779,-161.3333 64.779,-155.6667 64.779,-155.6667 64.779,-144.3333 64.779,-144.3333 64.779,-138.6667 70.4457,-133 76.1123,-133"/>
</g>
<!-- initial&#45;&gt;selecting_activity -->
<g id="edge1" class="edge">
<title>initial&#45;&gt;selecting_activity</title>
<path fill="none" stroke="#000000" d="M27.0655,-150C32.7859,-150 42.3773,-150 53.2765,-150"/>
<polygon fill="#000000" stroke="#000000" points="53.5801,-153.5001 63.5801,-150 53.5801,-146.5001 53.5801,-153.5001"/>
<text text-anchor="middle" x="45.3895" y="-153" font-family="Helvetica,sans-Serif" font-size="10.00" fill="#000000"> </text>
</g>
<!-- idling -->
<g id="node4" class="node">
<title>idling</title>
<polygon fill="transparent" stroke="transparent" stroke-width="2" points="459.879,-52 403.879,-52 403.879,-16 459.879,-16 459.879,-52"/>
<text text-anchor="start" x="417.8786" y="-30.2" font-family="Helvetica,sans-Serif" font-size="12.00" fill="#000000">idling</text>
<path fill="none" stroke="#000000" stroke-width="2" d="M416.2123,-17C416.2123,-17 447.5457,-17 447.5457,-17 453.2123,-17 458.879,-22.6667 458.879,-28.3333 458.879,-28.3333 458.879,-39.6667 458.879,-39.6667 458.879,-45.3333 453.2123,-51 447.5457,-51 447.5457,-51 416.2123,-51 416.2123,-51 410.5457,-51 404.879,-45.3333 404.879,-39.6667 404.879,-39.6667 404.879,-28.3333 404.879,-28.3333 404.879,-22.6667 410.5457,-17 416.2123,-17"/>
</g>
<!-- selecting_activity&#45;&gt;idling -->
<g id="edge2" class="edge">
<title>selecting_activity&#45;&gt;idling</title>
<path fill="none" stroke="#000000" d="M127.8742,-131.9732C138.9823,-109.6042 161.2278,-72.3024 192.779,-55 256.3953,-20.1134 344.0805,-22.9678 393.6662,-28.3632"/>
<polygon fill="#000000" stroke="#000000" points="393.3054,-31.8448 403.6466,-29.5404 394.1255,-24.893 393.3054,-31.8448"/>
<text text-anchor="start" x="247.376" y="-58" font-family="Helvetica,sans-Serif" font-size="10.00" fill="#000000">idle: [0.3] &#160;&#160;</text>
</g>
<!-- on_website -->
<g id="node5" class="node">
<title>on_website</title>
<polygon fill="transparent" stroke="transparent" stroke-width="2" points="495.879,-120 367.879,-120 367.879,-74 495.879,-74 495.879,-120"/>
<text text-anchor="start" x="401.5364" y="-103.2" font-family="Helvetica,sans-Serif" font-size="12.00" fill="#000000">on_website</text>
<text text-anchor="start" x="373.6904" y="-83.2" font-family="Helvetica,sans-Serif" font-size="12.00" fill="#000000">exit/ website_depth=0</text>
<polygon fill="#000000" stroke="#000000" points="367.879,-97 367.879,-97 495.879,-97 495.879,-97 367.879,-97"/>
<path fill="none" stroke="#000000" stroke-width="2" d="M380.879,-75C380.879,-75 482.879,-75 482.879,-75 488.879,-75 494.879,-81 494.879,-87 494.879,-87 494.879,-107 494.879,-107 494.879,-113 488.879,-119 482.879,-119 482.879,-119 380.879,-119 380.879,-119 374.879,-119 368.879,-113 368.879,-107 368.879,-107 368.879,-87 368.879,-87 368.879,-81 374.879,-75 380.879,-75"/>
</g>
<!-- selecting_activity&#45;&gt;on_website -->
<g id="edge3" class="edge">
<title>selecting_activity&#45;&gt;on_website</title>
<path fill="none" stroke="#000000" d="M175.8277,-140.6052C222.6351,-132.7441 291.118,-121.2071 350.879,-111 353.1078,-110.6193 355.371,-110.2321 357.6557,-109.8407"/>
<polygon fill="#000000" stroke="#000000" points="358.5081,-113.2457 367.7719,-108.1044 357.3239,-106.3466 358.5081,-113.2457"/>
<text text-anchor="start" x="192.779" y="-164" font-family="Helvetica,sans-Serif" font-size="10.00" fill="#000000">visit_website &#160;&#160;</text>
<text text-anchor="start" x="192.779" y="-152" font-family="Helvetica,sans-Serif" font-size="10.00" fill="#000000">[0.7 &amp;&amp; website_count&lt;max_visit] &#160;&#160;</text>
<text text-anchor="start" x="192.779" y="-140" font-family="Helvetica,sans-Serif" font-size="10.00" fill="#000000">/ website_count++ &#160;&#160;</text>
</g>
<!-- idling&#45;&gt;selecting_activity -->
<g id="edge4" class="edge">
<title>idling&#45;&gt;selecting_activity</title>
<path fill="none" stroke="#000000" d="M403.6045,-47.7948C388.3093,-54.7606 368.9063,-62.8122 350.879,-68 282.4458,-87.6935 258.125,-65.7009 192.779,-94 175.5425,-101.4645 158.7379,-113.8876 145.6055,-125.1387"/>
<polygon fill="#000000" stroke="#000000" points="143.0956,-122.6863 137.9322,-131.9378 147.7379,-127.9255 143.0956,-122.6863"/>
<text text-anchor="middle" x="271.829" y="-97" font-family="Helvetica,sans-Serif" font-size="10.00" fill="#000000"> </text>
</g>
<!-- on_website&#45;&gt;on_website -->
<g id="edge6" class="edge">
<title>on_website&#45;&gt;on_website</title>
<path fill="none" stroke="#000000" d="M418.7778,-120.1534C416.9651,-131.7003 421.3321,-142 431.879,-142 439.13,-142 443.46,-137.1318 444.8692,-130.337"/>
<polygon fill="#000000" stroke="#000000" points="448.3709,-130.191 444.9802,-120.1534 441.3713,-130.1146 448.3709,-130.191"/>
<text text-anchor="start" x="348.6505" y="-169" font-family="Helvetica,sans-Serif" font-size="10.00" fill="#000000">visit_link: &#160;&#160;</text>
<text text-anchor="start" x="348.6505" y="-157" font-family="Helvetica,sans-Serif" font-size="10.00" fill="#000000">[0.7 &amp;&amp; website_depth&lt;max_depth] &#160;&#160;</text>
<text text-anchor="start" x="348.6505" y="-145" font-family="Helvetica,sans-Serif" font-size="10.00" fill="#000000">/ website_depth++ &#160;&#160;</text>
</g>
<!-- leaving_website -->
<g id="node6" class="node">
<title>leaving_website</title>
<polygon fill="transparent" stroke="transparent" stroke-width="2" points="733.578,-236 626.578,-236 626.578,-200 733.578,-200 733.578,-236"/>
<text text-anchor="start" x="637.9018" y="-214.2" font-family="Helvetica,sans-Serif" font-size="12.00" fill="#000000">leaving_website</text>
<path fill="none" stroke="#000000" stroke-width="2" d="M638.9113,-201C638.9113,-201 721.2447,-201 721.2447,-201 726.9113,-201 732.578,-206.6667 732.578,-212.3333 732.578,-212.3333 732.578,-223.6667 732.578,-223.6667 732.578,-229.3333 726.9113,-235 721.2447,-235 721.2447,-235 638.9113,-235 638.9113,-235 633.2447,-235 627.578,-229.3333 627.578,-223.6667 627.578,-223.6667 627.578,-212.3333 627.578,-212.3333 627.578,-206.6667 633.2447,-201 638.9113,-201"/>
</g>
<!-- on_website&#45;&gt;leaving_website -->
<g id="edge5" class="edge">
<title>on_website&#45;&gt;leaving_website</title>
<path fill="none" stroke="#000000" d="M479.1475,-120.044C523.6615,-141.7451 589.9189,-174.0464 634.0299,-195.551"/>
<polygon fill="#000000" stroke="#000000" points="632.5683,-198.7322 643.0908,-199.9683 635.6359,-192.4401 632.5683,-198.7322"/>
<text text-anchor="start" x="512.879" y="-186" font-family="Helvetica,sans-Serif" font-size="10.00" fill="#000000">leave_website: [0.3] &#160;&#160;</text>
</g>
<!-- leaving_website&#45;&gt;selecting_activity -->
<g id="edge7" class="edge">
<title>leaving_website&#45;&gt;selecting_activity</title>
<path fill="none" stroke="#000000" d="M626.5353,-218C606.0986,-218 582.5843,-218 561.2285,-218 271.829,-218 271.829,-218 271.829,-218 227.4095,-218 181.552,-193.517 151.9751,-173.9324"/>
<polygon fill="#000000" stroke="#000000" points="153.5725,-170.7854 143.3384,-168.0442 149.6293,-176.5692 153.5725,-170.7854"/>
<text text-anchor="start" x="369.3565" y="-221" font-family="Helvetica,sans-Serif" font-size="10.00" fill="#000000">background_website: [0.5] &#160;&#160;</text>
</g>
<!-- leaving_website&#45;&gt;selecting_activity -->
<g id="edge8" class="edge">
<title>leaving_website&#45;&gt;selecting_activity</title>
<path fill="none" stroke="#000000" d="M657.4396,-236.027C634.5591,-252.3976 597.4954,-274 561.2285,-274 271.829,-274 271.829,-274 271.829,-274 210.7527,-274 160.6416,-213.169 136.0978,-176.7201"/>
<polygon fill="#000000" stroke="#000000" points="138.8188,-174.4859 130.4176,-168.0307 132.9596,-178.316 138.8188,-174.4859"/>
<text text-anchor="start" x="383.809" y="-277" font-family="Helvetica,sans-Serif" font-size="10.00" fill="#000000">close_website: [0.5] &#160;&#160;</text>
</g>
</g>
</svg>
