<?xml version="1.0" encoding="UTF-8" standalone="no"?>
<!DOCTYPE svg PUBLIC "-//W3C//DTD SVG 1.1//EN"
 "http://www.w3.org/Graphics/SVG/1.1/DTD/svg11.dtd">
<!-- Generated by graphviz version 2.40.1 (20161225.0304)
 -->
<!-- Title: state transitions Pages: 1 -->
<svg width="1899pt" height="2400pt"
 viewBox="0.00 0.00 1898.56 2400.00" xmlns="http://www.w3.org/2000/svg" xmlns:xlink="http://www.w3.org/1999/xlink">
<g id="graph0" class="graph" transform="scale(1 1) rotate(0) translate(4 2396)">
<title>state transitions</title>
<polygon fill="#ffffff" stroke="transparent" points="-4,4 -4,-2396 1894.564,-2396 1894.564,4 -4,4"/>
<g id="clust1" class="cluster">
<title>cluster_Horde User</title>
<path fill="none" stroke="#000000" stroke-width="2" d="M20,-8C20,-8 1870.564,-8 1870.564,-8 1876.564,-8 1882.564,-14 1882.564,-20 1882.564,-20 1882.564,-2372 1882.564,-2372 1882.564,-2378 1876.564,-2384 1870.564,-2384 1870.564,-2384 20,-2384 20,-2384 14,-2384 8,-2378 8,-2372 8,-2372 8,-20 8,-20 8,-14 14,-8 20,-8"/>
<text text-anchor="start" x="915.1154" y="-2365.2" font-family="Helvetica,sans-Serif" font-size="12.00" fill="#000000">Horde User</text>
</g>
<!-- Horde User -->
<!-- initial -->
<g id="node2" class="node">
<title>initial</title>
<ellipse fill="#000000" stroke="#000000" stroke-width="2" cx="21.5" cy="-2233" rx="5.5" ry="5.5"/>
</g>
<!-- selecting_activity -->
<g id="node3" class="node">
<title>selecting_activity</title>
<polygon fill="transparent" stroke="transparent" stroke-width="2" points="175.779,-2251 63.779,-2251 63.779,-2215 175.779,-2215 175.779,-2251"/>
<text text-anchor="start" x="74.4388" y="-2229.2" font-family="Helvetica,sans-Serif" font-size="12.00" fill="#000000">selecting_activity</text>
<path fill="none" stroke="#000000" stroke-width="2" d="M76.1123,-2216C76.1123,-2216 163.4457,-2216 163.4457,-2216 169.1123,-2216 174.779,-2221.6667 174.779,-2227.3333 174.779,-2227.3333 174.779,-2238.6667 174.779,-2238.6667 174.779,-2244.3333 169.1123,-2250 163.4457,-2250 163.4457,-2250 76.1123,-2250 76.1123,-2250 70.4457,-2250 64.779,-2244.3333 64.779,-2238.6667 64.779,-2238.6667 64.779,-2227.3333 64.779,-2227.3333 64.779,-2221.6667 70.4457,-2216 76.1123,-2216"/>
</g>
<!-- initial&#45;&gt;selecting_activity -->
<g id="edge3" class="edge">
<title>initial&#45;&gt;selecting_activity</title>
<path fill="none" stroke="#000000" d="M27.0655,-2233C32.7859,-2233 42.3773,-2233 53.2765,-2233"/>
<polygon fill="#000000" stroke="#000000" points="53.5801,-2236.5001 63.5801,-2233 53.5801,-2229.5001 53.5801,-2236.5001"/>
<text text-anchor="middle" x="45.3895" y="-2236" font-family="Helvetica,sans-Serif" font-size="10.00" fill="#000000"> </text>
</g>
<!-- idling -->
<g id="node4" class="node">
<title>idling</title>
<polygon fill="transparent" stroke="transparent" stroke-width="2" points="330.255,-2321 274.255,-2321 274.255,-2285 330.255,-2285 330.255,-2321"/>
<text text-anchor="start" x="288.2546" y="-2299.2" font-family="Helvetica,sans-Serif" font-size="12.00" fill="#000000">idling</text>
<path fill="none" stroke="#000000" stroke-width="2" d="M286.5883,-2286C286.5883,-2286 317.9217,-2286 317.9217,-2286 323.5883,-2286 329.255,-2291.6667 329.255,-2297.3333 329.255,-2297.3333 329.255,-2308.6667 329.255,-2308.6667 329.255,-2314.3333 323.5883,-2320 317.9217,-2320 317.9217,-2320 286.5883,-2320 286.5883,-2320 280.9217,-2320 275.255,-2314.3333 275.255,-2308.6667 275.255,-2308.6667 275.255,-2297.3333 275.255,-2297.3333 275.255,-2291.6667 280.9217,-2286 286.5883,-2286"/>
</g>
<!-- selecting_activity&#45;&gt;idling -->
<g id="edge9" class="edge">
<title>selecting_activity&#45;&gt;idling</title>
<path fill="none" stroke="#000000" d="M135.0891,-2251.2268C148.6011,-2265.8895 169.6963,-2285.5516 192.779,-2295 215.2106,-2304.1819 242.3756,-2306.2148 264.0338,-2305.936"/>
<polygon fill="#000000" stroke="#000000" points="264.2871,-2309.4301 274.1787,-2305.6346 264.0792,-2302.4332 264.2871,-2309.4301"/>
<text text-anchor="start" x="213.0705" y="-2308" font-family="Helvetica,sans-Serif" font-size="10.00" fill="#000000">idle &#160;&#160;</text>
</g>
<!-- ^opening_horde -->
<g id="node40" class="node">
<title>^opening_horde</title>
<polygon fill="transparent" stroke="#000000" stroke-width="2" points="302.255,-1841.5 289.755,-1829 302.255,-1816.5 314.755,-1829 302.255,-1841.5"/>
<text text-anchor="middle" x="302.255" y="-1826" font-family="Helvetica,sans-Serif" font-size="10.00" fill="#000000"> </text>
</g>
<!-- selecting_activity&#45;&gt;^opening_horde -->
<g id="edge4" class="edge">
<title>selecting_activity&#45;&gt;^opening_horde</title>
<path fill="none" stroke="#000000" d="M127.9741,-2214.8561C158.3205,-2147.6695 264.0994,-1913.4761 294.2046,-1846.8234"/>
<polygon fill="#000000" stroke="#000000" points="297.4368,-1848.1701 298.3635,-1837.6158 291.0573,-1845.2886 297.4368,-1848.1701"/>
<text text-anchor="start" x="192.779" y="-2074" font-family="Helvetica,sans-Serif" font-size="10.00" fill="#000000">go_to_horde &#160;&#160;</text>
</g>
<!-- idling&#45;&gt;selecting_activity -->
<g id="edge10" class="edge">
<title>idling&#45;&gt;selecting_activity</title>
<path fill="none" stroke="#000000" d="M274.1043,-2286.2895C268.6102,-2283.336 262.8244,-2280.432 257.255,-2278 234.3984,-2268.0191 208.586,-2259.0098 185.551,-2251.7203"/>
<polygon fill="#000000" stroke="#000000" points="186.4541,-2248.3358 175.8657,-2248.7038 184.3725,-2255.0192 186.4541,-2248.3358"/>
<text text-anchor="middle" x="225.017" y="-2281" font-family="Helvetica,sans-Serif" font-size="10.00" fill="#000000"> </text>
</g>
<!-- login_page -->
<g id="node5" class="node">
<title>login_page</title>
<polygon fill="transparent" stroke="transparent" stroke-width="2" points="518.177,-1755 438.177,-1755 438.177,-1719 518.177,-1719 518.177,-1755"/>
<text text-anchor="start" x="448.831" y="-1733.2" font-family="Helvetica,sans-Serif" font-size="12.00" fill="#000000">login_page</text>
<path fill="none" stroke="#000000" stroke-width="2" d="M450.5103,-1720C450.5103,-1720 505.8437,-1720 505.8437,-1720 511.5103,-1720 517.177,-1725.6667 517.177,-1731.3333 517.177,-1731.3333 517.177,-1742.6667 517.177,-1742.6667 517.177,-1748.3333 511.5103,-1754 505.8437,-1754 505.8437,-1754 450.5103,-1754 450.5103,-1754 444.8437,-1754 439.177,-1748.3333 439.177,-1742.6667 439.177,-1742.6667 439.177,-1731.3333 439.177,-1731.3333 439.177,-1725.6667 444.8437,-1720 450.5103,-1720"/>
</g>
<!-- login_page&#45;&gt;login_page -->
<g id="edge11" class="edge">
<title>login_page&#45;&gt;login_page</title>
<path fill="none" stroke="#000000" d="M469.812,-1755.1003C467.7949,-1766.3213 470.5833,-1777 478.177,-1777 483.3977,-1777 486.3471,-1771.9526 487.0252,-1765.1518"/>
<polygon fill="#000000" stroke="#000000" points="490.5182,-1764.9207 486.542,-1755.1003 483.5263,-1765.2569 490.5182,-1764.9207"/>
<text text-anchor="start" x="454.2835" y="-1780" font-family="Helvetica,sans-Serif" font-size="10.00" fill="#000000">fail_login &#160;&#160;</text>
</g>
<!-- selecting_menu -->
<g id="node6" class="node">
<title>selecting_menu</title>
<polygon fill="transparent" stroke="transparent" stroke-width="2" points="687.629,-1755 581.629,-1755 581.629,-1719 687.629,-1719 687.629,-1755"/>
<text text-anchor="start" x="592.6182" y="-1733.2" font-family="Helvetica,sans-Serif" font-size="12.00" fill="#000000">selecting_menu</text>
<path fill="none" stroke="#000000" stroke-width="2" d="M593.9623,-1720C593.9623,-1720 675.2957,-1720 675.2957,-1720 680.9623,-1720 686.629,-1725.6667 686.629,-1731.3333 686.629,-1731.3333 686.629,-1742.6667 686.629,-1742.6667 686.629,-1748.3333 680.9623,-1754 675.2957,-1754 675.2957,-1754 593.9623,-1754 593.9623,-1754 588.2957,-1754 582.629,-1748.3333 582.629,-1742.6667 582.629,-1742.6667 582.629,-1731.3333 582.629,-1731.3333 582.629,-1725.6667 588.2957,-1720 593.9623,-1720"/>
</g>
<!-- login_page&#45;&gt;selecting_menu -->
<g id="edge12" class="edge">
<title>login_page&#45;&gt;selecting_menu</title>
<path fill="none" stroke="#000000" d="M518.4673,-1737C534.5124,-1737 553.367,-1737 571.1639,-1737"/>
<polygon fill="#000000" stroke="#000000" points="571.491,-1740.5001 581.491,-1737 571.4909,-1733.5001 571.491,-1740.5001"/>
<text text-anchor="start" x="535.177" y="-1740" font-family="Helvetica,sans-Serif" font-size="10.00" fill="#000000">login &#160;&#160;</text>
</g>
<!-- mails_page -->
<g id="node7" class="node">
<title>mails_page</title>
<polygon fill="transparent" stroke="transparent" stroke-width="2" points="942.619,-1828 859.619,-1828 859.619,-1792 942.619,-1792 942.619,-1828"/>
<text text-anchor="start" x="870.9464" y="-1806.2" font-family="Helvetica,sans-Serif" font-size="12.00" fill="#000000">mails_page</text>
<path fill="none" stroke="#000000" stroke-width="2" d="M871.9523,-1793C871.9523,-1793 930.2857,-1793 930.2857,-1793 935.9523,-1793 941.619,-1798.6667 941.619,-1804.3333 941.619,-1804.3333 941.619,-1815.6667 941.619,-1815.6667 941.619,-1821.3333 935.9523,-1827 930.2857,-1827 930.2857,-1827 871.9523,-1827 871.9523,-1827 866.2857,-1827 860.619,-1821.3333 860.619,-1815.6667 860.619,-1815.6667 860.619,-1804.3333 860.619,-1804.3333 860.619,-1798.6667 866.2857,-1793 871.9523,-1793"/>
</g>
<!-- selecting_menu&#45;&gt;mails_page -->
<g id="edge14" class="edge">
<title>selecting_menu&#45;&gt;mails_page</title>
<path fill="none" stroke="#000000" d="M657.2517,-1755.1132C670.3456,-1764.6475 687.5696,-1775.648 704.629,-1782 751.7126,-1799.5314 808.9036,-1806.1756 849.4144,-1808.6473"/>
<polygon fill="#000000" stroke="#000000" points="849.4211,-1812.1527 859.5969,-1809.2023 849.8022,-1805.1631 849.4211,-1812.1527"/>
<text text-anchor="start" x="726.8665" y="-1809" font-family="Helvetica,sans-Serif" font-size="10.00" fill="#000000">navigate_mail &#160;&#160;</text>
</g>
<!-- calendar_page -->
<g id="node11" class="node">
<title>calendar_page</title>
<polygon fill="transparent" stroke="transparent" stroke-width="2" points="951.619,-2032 850.619,-2032 850.619,-1996 951.619,-1996 951.619,-2032"/>
<text text-anchor="start" x="861.9362" y="-2010.2" font-family="Helvetica,sans-Serif" font-size="12.00" fill="#000000">calendar_page</text>
<path fill="none" stroke="#000000" stroke-width="2" d="M862.9523,-1997C862.9523,-1997 939.2857,-1997 939.2857,-1997 944.9523,-1997 950.619,-2002.6667 950.619,-2008.3333 950.619,-2008.3333 950.619,-2019.6667 950.619,-2019.6667 950.619,-2025.3333 944.9523,-2031 939.2857,-2031 939.2857,-2031 862.9523,-2031 862.9523,-2031 857.2857,-2031 851.619,-2025.3333 851.619,-2019.6667 851.619,-2019.6667 851.619,-2008.3333 851.619,-2008.3333 851.619,-2002.6667 857.2857,-1997 862.9523,-1997"/>
</g>
<!-- selecting_menu&#45;&gt;calendar_page -->
<g id="edge15" class="edge">
<title>selecting_menu&#45;&gt;calendar_page</title>
<path fill="none" stroke="#000000" d="M647.9326,-1755.2706C661.3861,-1773.2619 683.199,-1801.1437 704.629,-1823 751.3205,-1870.6203 771.6217,-1873.1834 819.119,-1920 841.2515,-1941.8153 864.3369,-1968.7096 880.3525,-1988.1343"/>
<polygon fill="#000000" stroke="#000000" points="877.7186,-1990.4423 886.7601,-1995.9652 883.1362,-1986.0094 877.7186,-1990.4423"/>
<text text-anchor="start" x="716.858" y="-1923" font-family="Helvetica,sans-Serif" font-size="10.00" fill="#000000">navigate_calendar &#160;&#160;</text>
</g>
<!-- address_book_page -->
<g id="node16" class="node">
<title>address_book_page</title>
<polygon fill="transparent" stroke="transparent" stroke-width="2" points="966.119,-2217 836.119,-2217 836.119,-2181 966.119,-2181 966.119,-2217"/>
<text text-anchor="start" x="846.7614" y="-2195.2" font-family="Helvetica,sans-Serif" font-size="12.00" fill="#000000">address_book_page</text>
<path fill="none" stroke="#000000" stroke-width="2" d="M848.4523,-2182C848.4523,-2182 953.7857,-2182 953.7857,-2182 959.4523,-2182 965.119,-2187.6667 965.119,-2193.3333 965.119,-2193.3333 965.119,-2204.6667 965.119,-2204.6667 965.119,-2210.3333 959.4523,-2216 953.7857,-2216 953.7857,-2216 848.4523,-2216 848.4523,-2216 842.7857,-2216 837.119,-2210.3333 837.119,-2204.6667 837.119,-2204.6667 837.119,-2193.3333 837.119,-2193.3333 837.119,-2187.6667 842.7857,-2182 848.4523,-2182"/>
</g>
<!-- selecting_menu&#45;&gt;address_book_page -->
<g id="edge16" class="edge">
<title>selecting_menu&#45;&gt;address_book_page</title>
<path fill="none" stroke="#000000" d="M635.4362,-1755.0499C638.1599,-1802.3234 649.6251,-1932.7435 695.629,-2029 714.8522,-2069.2218 707.8147,-2011.5017 819.119,-2102 844.3824,-2122.5409 867.7824,-2151.6563 883.064,-2172.6214"/>
<polygon fill="#000000" stroke="#000000" points="880.2359,-2174.6837 888.9017,-2180.7792 885.9285,-2170.61 880.2359,-2174.6837"/>
<text text-anchor="start" x="704.629" y="-2105" font-family="Helvetica,sans-Serif" font-size="10.00" fill="#000000">navigate_address_book &#160;&#160;</text>
</g>
<!-- tasks_page -->
<g id="node17" class="node">
<title>tasks_page</title>
<polygon fill="transparent" stroke="transparent" stroke-width="2" points="942.619,-186 859.619,-186 859.619,-150 942.619,-150 942.619,-186"/>
<text text-anchor="start" x="870.9392" y="-164.2" font-family="Helvetica,sans-Serif" font-size="12.00" fill="#000000">tasks_page</text>
<path fill="none" stroke="#000000" stroke-width="2" d="M871.9523,-151C871.9523,-151 930.2857,-151 930.2857,-151 935.9523,-151 941.619,-156.6667 941.619,-162.3333 941.619,-162.3333 941.619,-173.6667 941.619,-173.6667 941.619,-179.3333 935.9523,-185 930.2857,-185 930.2857,-185 871.9523,-185 871.9523,-185 866.2857,-185 860.619,-179.3333 860.619,-173.6667 860.619,-173.6667 860.619,-162.3333 860.619,-162.3333 860.619,-156.6667 866.2857,-151 871.9523,-151"/>
</g>
<!-- selecting_menu&#45;&gt;tasks_page -->
<g id="edge17" class="edge">
<title>selecting_menu&#45;&gt;tasks_page</title>
<path fill="none" stroke="#000000" d="M635.1352,-1718.673C638.6104,-1596.7712 660.1402,-901.7203 704.629,-695 747.3926,-496.296 850.5204,-272.3068 887.5753,-195.5218"/>
<polygon fill="#000000" stroke="#000000" points="890.9377,-196.6097 892.1553,-186.0851 884.6402,-193.5532 890.9377,-196.6097"/>
<text text-anchor="start" x="724.3605" y="-698" font-family="Helvetica,sans-Serif" font-size="10.00" fill="#000000">navigate_tasks &#160;&#160;</text>
</g>
<!-- notes_page -->
<g id="node20" class="node">
<title>notes_page</title>
<polygon fill="transparent" stroke="transparent" stroke-width="2" points="943.119,-448 859.119,-448 859.119,-412 943.119,-412 943.119,-448"/>
<text text-anchor="start" x="869.7684" y="-426.2" font-family="Helvetica,sans-Serif" font-size="12.00" fill="#000000">notes_page</text>
<path fill="none" stroke="#000000" stroke-width="2" d="M871.4523,-413C871.4523,-413 930.7857,-413 930.7857,-413 936.4523,-413 942.119,-418.6667 942.119,-424.3333 942.119,-424.3333 942.119,-435.6667 942.119,-435.6667 942.119,-441.3333 936.4523,-447 930.7857,-447 930.7857,-447 871.4523,-447 871.4523,-447 865.7857,-447 860.119,-441.3333 860.119,-435.6667 860.119,-435.6667 860.119,-424.3333 860.119,-424.3333 860.119,-418.6667 865.7857,-413 871.4523,-413"/>
</g>
<!-- selecting_menu&#45;&gt;notes_page -->
<g id="edge18" class="edge">
<title>selecting_menu&#45;&gt;notes_page</title>
<path fill="none" stroke="#000000" d="M635.8974,-1718.618C640.7116,-1651.6316 659.4385,-1414.4523 695.629,-1222 752.6787,-918.6233 860.9438,-559.6051 892.3659,-458.0146"/>
<polygon fill="#000000" stroke="#000000" points="895.7874,-458.7981 895.4075,-448.2101 889.1017,-456.724 895.7874,-458.7981"/>
<text text-anchor="start" x="723.8015" y="-1176" font-family="Helvetica,sans-Serif" font-size="10.00" fill="#000000">navigate_notes &#160;&#160;</text>
</g>
<!-- preferences_page -->
<g id="node34" class="node">
<title>preferences_page</title>
<polygon fill="transparent" stroke="transparent" stroke-width="2" points="960.119,-1680 842.119,-1680 842.119,-1644 960.119,-1644 960.119,-1680"/>
<text text-anchor="start" x="852.7674" y="-1658.2" font-family="Helvetica,sans-Serif" font-size="12.00" fill="#000000">preferences_page</text>
<path fill="none" stroke="#000000" stroke-width="2" d="M854.4523,-1645C854.4523,-1645 947.7857,-1645 947.7857,-1645 953.4523,-1645 959.119,-1650.6667 959.119,-1656.3333 959.119,-1656.3333 959.119,-1667.6667 959.119,-1667.6667 959.119,-1673.3333 953.4523,-1679 947.7857,-1679 947.7857,-1679 854.4523,-1679 854.4523,-1679 848.7857,-1679 843.119,-1673.3333 843.119,-1667.6667 843.119,-1667.6667 843.119,-1656.3333 843.119,-1656.3333 843.119,-1650.6667 848.7857,-1645 854.4523,-1645"/>
</g>
<!-- selecting_menu&#45;&gt;preferences_page -->
<g id="edge20" class="edge">
<title>selecting_menu&#45;&gt;preferences_page</title>
<path fill="none" stroke="#000000" d="M647.5142,-1718.7075C660.034,-1702.6135 680.634,-1680.2043 704.629,-1670 744.4293,-1653.0742 792.9542,-1650.9406 831.8232,-1653.1043"/>
<polygon fill="#000000" stroke="#000000" points="831.7891,-1656.6096 841.999,-1653.7798 832.2528,-1649.625 831.7891,-1656.6096"/>
<text text-anchor="start" x="709.634" y="-1673" font-family="Helvetica,sans-Serif" font-size="10.00" fill="#000000">navigate_preferences &#160;&#160;</text>
</g>
<!-- admin_page -->
<g id="node36" class="node">
<title>admin_page</title>
<polygon fill="transparent" stroke="transparent" stroke-width="2" points="945.119,-1148 857.119,-1148 857.119,-1112 945.119,-1112 945.119,-1148"/>
<text text-anchor="start" x="868.107" y="-1126.2" font-family="Helvetica,sans-Serif" font-size="12.00" fill="#000000">admin_page</text>
<path fill="none" stroke="#000000" stroke-width="2" d="M869.4523,-1113C869.4523,-1113 932.7857,-1113 932.7857,-1113 938.4523,-1113 944.119,-1118.6667 944.119,-1124.3333 944.119,-1124.3333 944.119,-1135.6667 944.119,-1135.6667 944.119,-1141.3333 938.4523,-1147 932.7857,-1147 932.7857,-1147 869.4523,-1147 869.4523,-1147 863.7857,-1147 858.119,-1141.3333 858.119,-1135.6667 858.119,-1135.6667 858.119,-1124.3333 858.119,-1124.3333 858.119,-1118.6667 863.7857,-1113 869.4523,-1113"/>
</g>
<!-- selecting_menu&#45;&gt;admin_page -->
<g id="edge19" class="edge">
<title>selecting_menu&#45;&gt;admin_page</title>
<path fill="none" stroke="#000000" d="M646.9227,-1718.7377C687.4572,-1658.4162 815.0503,-1467.6419 828.119,-1437 869.7271,-1339.4426 890.152,-1213.8697 897.6375,-1158.4443"/>
<polygon fill="#000000" stroke="#000000" points="901.1347,-1158.6937 898.9646,-1148.3236 894.1941,-1157.7836 901.1347,-1158.6937"/>
<text text-anchor="start" x="722.417" y="-1634" font-family="Helvetica,sans-Serif" font-size="10.00" fill="#000000">navigate_admin &#160;&#160;</text>
</g>
<!-- ^logout? -->
<g id="node39" class="node">
<title>^logout?</title>
<polygon fill="transparent" stroke="#000000" stroke-width="2" points="901.119,-2264.5 888.619,-2252 901.119,-2239.5 913.619,-2252 901.119,-2264.5"/>
<text text-anchor="middle" x="901.119" y="-2249" font-family="Helvetica,sans-Serif" font-size="10.00" fill="#000000"> </text>
</g>
<!-- selecting_menu&#45;&gt;^logout? -->
<g id="edge13" class="edge">
<title>selecting_menu&#45;&gt;^logout?</title>
<path fill="none" stroke="#000000" d="M635.6947,-1755.3472C639.9798,-1823.2038 658.0199,-2058.9279 704.629,-2115 739.4753,-2156.9211 775.6268,-2126.1355 819.119,-2159 844.3176,-2178.0411 816.302,-2203.407 836.119,-2228 846.5243,-2240.913 864.5726,-2246.8783 879.0147,-2249.634"/>
<polygon fill="#000000" stroke="#000000" points="878.7569,-2253.1349 889.1694,-2251.1776 879.8089,-2246.2144 878.7569,-2253.1349"/>
<text text-anchor="start" x="744.0875" y="-2162" font-family="Helvetica,sans-Serif" font-size="10.00" fill="#000000">pause &#160;&#160;</text>
</g>
<!-- mails_page&#45;&gt;selecting_menu -->
<g id="edge21" class="edge">
<title>mails_page&#45;&gt;selecting_menu</title>
<path fill="none" stroke="#000000" d="M873.7826,-1791.8199C858.3478,-1782.3871 838.3468,-1771.5058 819.119,-1765 780.1563,-1751.8168 734.4609,-1744.8229 698.2952,-1741.1218"/>
<polygon fill="#000000" stroke="#000000" points="698.1688,-1737.5936 687.8794,-1740.1193 697.498,-1744.5614 698.1688,-1737.5936"/>
<text text-anchor="start" x="744.6485" y="-1768" font-family="Helvetica,sans-Serif" font-size="10.00" fill="#000000">return &#160;&#160;</text>
</g>
<!-- mail_view -->
<g id="node8" class="node">
<title>mail_view</title>
<polygon fill="transparent" stroke="transparent" stroke-width="2" points="1271.001,-1816 1197.001,-1816 1197.001,-1780 1271.001,-1780 1271.001,-1816"/>
<text text-anchor="start" x="1207.6718" y="-1794.2" font-family="Helvetica,sans-Serif" font-size="12.00" fill="#000000">mail_view</text>
<path fill="none" stroke="#000000" stroke-width="2" d="M1209.3343,-1781C1209.3343,-1781 1258.6677,-1781 1258.6677,-1781 1264.3343,-1781 1270.001,-1786.6667 1270.001,-1792.3333 1270.001,-1792.3333 1270.001,-1803.6667 1270.001,-1803.6667 1270.001,-1809.3333 1264.3343,-1815 1258.6677,-1815 1258.6677,-1815 1209.3343,-1815 1209.3343,-1815 1203.6677,-1815 1198.001,-1809.3333 1198.001,-1803.6667 1198.001,-1803.6667 1198.001,-1792.3333 1198.001,-1792.3333 1198.001,-1786.6667 1203.6677,-1781 1209.3343,-1781"/>
</g>
<!-- mails_page&#45;&gt;mail_view -->
<g id="edge28" class="edge">
<title>mails_page&#45;&gt;mail_view</title>
<path fill="none" stroke="#000000" d="M922.8057,-1791.7893C938.4625,-1779.8853 960.7117,-1765.3997 983.119,-1759 1046.5309,-1740.889 1066.6401,-1747.0775 1131.501,-1759 1150.4611,-1762.4852 1170.4571,-1769.3141 1187.7039,-1776.2967"/>
<polygon fill="#000000" stroke="#000000" points="1186.4021,-1779.546 1196.9785,-1780.1715 1189.1006,-1773.087 1186.4021,-1779.546"/>
<text text-anchor="start" x="1031.2005" y="-1762" font-family="Helvetica,sans-Serif" font-size="10.00" fill="#000000">view_mail &#160;&#160;</text>
</g>
<!-- mail_compose -->
<g id="node10" class="node">
<title>mail_compose</title>
<polygon fill="transparent" stroke="transparent" stroke-width="2" points="1843.064,-1830 1744.064,-1830 1744.064,-1794 1843.064,-1794 1843.064,-1830"/>
<text text-anchor="start" x="1755.394" y="-1808.2" font-family="Helvetica,sans-Serif" font-size="12.00" fill="#000000">mail_compose</text>
<path fill="none" stroke="#000000" stroke-width="2" d="M1756.3973,-1795C1756.3973,-1795 1830.7307,-1795 1830.7307,-1795 1836.3973,-1795 1842.064,-1800.6667 1842.064,-1806.3333 1842.064,-1806.3333 1842.064,-1817.6667 1842.064,-1817.6667 1842.064,-1823.3333 1836.3973,-1829 1830.7307,-1829 1830.7307,-1829 1756.3973,-1829 1756.3973,-1829 1750.7307,-1829 1745.064,-1823.3333 1745.064,-1817.6667 1745.064,-1817.6667 1745.064,-1806.3333 1745.064,-1806.3333 1745.064,-1800.6667 1750.7307,-1795 1756.3973,-1795"/>
</g>
<!-- mails_page&#45;&gt;mail_compose -->
<g id="edge29" class="edge">
<title>mails_page&#45;&gt;mail_compose</title>
<path fill="none" stroke="#000000" d="M917.0148,-1791.8238C932.2338,-1775.7583 956.7273,-1753.1905 983.119,-1742 1125.0921,-1681.8011 1173.7925,-1704 1328.001,-1704 1328.001,-1704 1328.001,-1704 1658.8815,-1704 1710.6598,-1704 1753.8892,-1753.1835 1776.528,-1785.1689"/>
<polygon fill="#000000" stroke="#000000" points="1773.8185,-1787.407 1782.3572,-1793.6793 1779.5937,-1783.4512 1773.8185,-1787.407"/>
<text text-anchor="start" x="1367.0705" y="-1707" font-family="Helvetica,sans-Serif" font-size="10.00" fill="#000000">new_mail &#160;&#160;</text>
</g>
<!-- mail_view&#45;&gt;mails_page -->
<g id="edge30" class="edge">
<title>mail_view&#45;&gt;mails_page</title>
<path fill="none" stroke="#000000" d="M1196.9506,-1799.3356C1137.5081,-1801.4785 1020.6594,-1805.6907 952.964,-1808.131"/>
<polygon fill="#000000" stroke="#000000" points="952.8091,-1804.6343 942.9417,-1808.4923 953.0613,-1811.6297 952.8091,-1804.6343"/>
<text text-anchor="start" x="1027.582" y="-1810" font-family="Helvetica,sans-Serif" font-size="10.00" fill="#000000">delete_mail &#160;&#160;</text>
</g>
<!-- mail_view&#45;&gt;mails_page -->
<g id="edge33" class="edge">
<title>mail_view&#45;&gt;mails_page</title>
<path fill="none" stroke="#000000" d="M1196.9409,-1809.7693C1177.6483,-1815.2889 1153.5439,-1821.2479 1131.501,-1824 1066.0615,-1832.1703 1048.831,-1829.5693 983.119,-1824 973.1895,-1823.1585 962.6556,-1821.7535 952.5644,-1820.15"/>
<polygon fill="#000000" stroke="#000000" points="953.0999,-1816.691 942.6596,-1818.4938 951.9454,-1823.5951 953.0999,-1816.691"/>
<text text-anchor="start" x="1042.0235" y="-1832" font-family="Helvetica,sans-Serif" font-size="10.00" fill="#000000">noop &#160;&#160;</text>
</g>
<!-- mail_info -->
<g id="node9" class="node">
<title>mail_info</title>
<polygon fill="transparent" stroke="transparent" stroke-width="2" points="1570.199,-1858 1500.199,-1858 1500.199,-1822 1570.199,-1822 1570.199,-1858"/>
<text text-anchor="start" x="1511.1984" y="-1836.2" font-family="Helvetica,sans-Serif" font-size="12.00" fill="#000000">mail_info</text>
<path fill="none" stroke="#000000" stroke-width="2" d="M1512.5323,-1823C1512.5323,-1823 1557.8657,-1823 1557.8657,-1823 1563.5323,-1823 1569.199,-1828.6667 1569.199,-1834.3333 1569.199,-1834.3333 1569.199,-1845.6667 1569.199,-1845.6667 1569.199,-1851.3333 1563.5323,-1857 1557.8657,-1857 1557.8657,-1857 1512.5323,-1857 1512.5323,-1857 1506.8657,-1857 1501.199,-1851.3333 1501.199,-1845.6667 1501.199,-1845.6667 1501.199,-1834.3333 1501.199,-1834.3333 1501.199,-1828.6667 1506.8657,-1823 1512.5323,-1823"/>
</g>
<!-- mail_view&#45;&gt;mail_info -->
<g id="edge31" class="edge">
<title>mail_view&#45;&gt;mail_info</title>
<path fill="none" stroke="#000000" d="M1271.2359,-1803.1921C1326.4701,-1810.8942 1429.9945,-1825.3299 1489.6636,-1833.6504"/>
<polygon fill="#000000" stroke="#000000" points="1489.5297,-1837.1655 1499.9172,-1835.0802 1490.4965,-1830.2326 1489.5297,-1837.1655"/>
<text text-anchor="start" x="1365.121" y="-1830" font-family="Helvetica,sans-Serif" font-size="10.00" fill="#000000">open_mail &#160;&#160;</text>
</g>
<!-- mail_view&#45;&gt;mail_compose -->
<g id="edge32" class="edge">
<title>mail_view&#45;&gt;mail_compose</title>
<path fill="none" stroke="#000000" d="M1271.0732,-1794.3332C1303.1376,-1791.4792 1350.7557,-1788 1392.35,-1788 1392.35,-1788 1392.35,-1788 1658.8815,-1788 1683.7084,-1788 1710.716,-1792.0015 1733.984,-1796.7367"/>
<polygon fill="#000000" stroke="#000000" points="1733.5396,-1800.2204 1744.0488,-1798.8765 1734.9953,-1793.3734 1733.5396,-1800.2204"/>
<text text-anchor="start" x="1508.255" y="-1791" font-family="Helvetica,sans-Serif" font-size="10.00" fill="#000000">reply_mail &#160;&#160;</text>
</g>
<!-- mail_info&#45;&gt;mails_page -->
<g id="edge34" class="edge">
<title>mail_info&#45;&gt;mails_page</title>
<path fill="none" stroke="#000000" d="M1500.1288,-1845.5656C1412.0208,-1858.4365 1174.7252,-1886.2078 983.119,-1846 969.6598,-1843.1756 955.7119,-1838.0052 943.2199,-1832.4471"/>
<polygon fill="#000000" stroke="#000000" points="944.5267,-1829.1949 933.9832,-1828.1536 941.5761,-1835.5427 944.5267,-1829.1949"/>
<text text-anchor="start" x="1204.273" y="-1869" font-family="Helvetica,sans-Serif" font-size="10.00" fill="#000000">delete_mail &#160;&#160;</text>
</g>
<!-- mail_info&#45;&gt;mail_compose -->
<g id="edge35" class="edge">
<title>mail_info&#45;&gt;mail_compose</title>
<path fill="none" stroke="#000000" d="M1570.3121,-1836.1947C1612.263,-1831.6483 1683.1209,-1823.9691 1733.7583,-1818.4814"/>
<polygon fill="#000000" stroke="#000000" points="1734.3554,-1821.9372 1743.9201,-1817.3801 1733.6011,-1814.978 1734.3554,-1821.9372"/>
<text text-anchor="start" x="1631.9375" y="-1833" font-family="Helvetica,sans-Serif" font-size="10.00" fill="#000000">reply_mail &#160;&#160;</text>
</g>
<!-- mail_compose&#45;&gt;mails_page -->
<g id="edge36" class="edge">
<title>mail_compose&#45;&gt;mails_page</title>
<path fill="none" stroke="#000000" d="M1781.3968,-1830.0568C1760.2079,-1859.108 1713.5355,-1913 1658.8815,-1913 1057.31,-1913 1057.31,-1913 1057.31,-1913 1001.5517,-1913 950.3418,-1866.6877 922.6513,-1836.1723"/>
<polygon fill="#000000" stroke="#000000" points="925.046,-1833.5963 915.8049,-1828.4143 919.7975,-1838.2281 925.046,-1833.5963"/>
<text text-anchor="start" x="1365.4005" y="-1916" font-family="Helvetica,sans-Serif" font-size="10.00" fill="#000000">send_mail &#160;&#160;</text>
</g>
<!-- calendar_page&#45;&gt;selecting_menu -->
<g id="edge22" class="edge">
<title>calendar_page&#45;&gt;selecting_menu</title>
<path fill="none" stroke="#000000" d="M851.2175,-1995.843C796.6009,-1975.596 715.321,-1944.2178 704.629,-1933 659.4507,-1885.6001 643.1572,-1807.0874 637.4933,-1765.2657"/>
<polygon fill="#000000" stroke="#000000" points="640.9518,-1764.7142 636.2438,-1755.2229 634.0053,-1765.5785 640.9518,-1764.7142"/>
<text text-anchor="start" x="744.6485" y="-1986" font-family="Helvetica,sans-Serif" font-size="10.00" fill="#000000">return &#160;&#160;</text>
</g>
<!-- event_edit -->
<g id="node37" class="node">
<title>event_edit</title>
<polygon fill="transparent" stroke="transparent" stroke-width="2" points="1272.501,-2032 1195.501,-2032 1195.501,-1996 1272.501,-1996 1272.501,-2032"/>
<text text-anchor="start" x="1206.8224" y="-2010.2" font-family="Helvetica,sans-Serif" font-size="12.00" fill="#000000">event_edit</text>
<path fill="none" stroke="#000000" stroke-width="2" d="M1207.8343,-1997C1207.8343,-1997 1260.1677,-1997 1260.1677,-1997 1265.8343,-1997 1271.501,-2002.6667 1271.501,-2008.3333 1271.501,-2008.3333 1271.501,-2019.6667 1271.501,-2019.6667 1271.501,-2025.3333 1265.8343,-2031 1260.1677,-2031 1260.1677,-2031 1207.8343,-2031 1207.8343,-2031 1202.1677,-2031 1196.501,-2025.3333 1196.501,-2019.6667 1196.501,-2019.6667 1196.501,-2008.3333 1196.501,-2008.3333 1196.501,-2002.6667 1202.1677,-1997 1207.8343,-1997"/>
</g>
<!-- calendar_page&#45;&gt;event_edit -->
<g id="edge37" class="edge">
<title>calendar_page&#45;&gt;event_edit</title>
<path fill="none" stroke="#000000" d="M930.7139,-1995.9951C945.8146,-1987.8475 964.8198,-1979.13 983.119,-1975 1047.4485,-1960.4813 1066.6401,-1963.0775 1131.501,-1975 1150.129,-1978.4241 1169.757,-1985.0759 1186.7951,-1991.93"/>
<polygon fill="#000000" stroke="#000000" points="1185.9231,-1995.3579 1196.5005,-1995.9661 1188.611,-1988.8945 1185.9231,-1995.3579"/>
<text text-anchor="start" x="1030.076" y="-1978" font-family="Helvetica,sans-Serif" font-size="10.00" fill="#000000">edit_event &#160;&#160;</text>
</g>
<!-- event_compose -->
<g id="node38" class="node">
<title>event_compose</title>
<polygon fill="transparent" stroke="transparent" stroke-width="2" points="1287.001,-2096 1181.001,-2096 1181.001,-2060 1287.001,-2060 1287.001,-2096"/>
<text text-anchor="start" x="1191.653" y="-2074.2" font-family="Helvetica,sans-Serif" font-size="12.00" fill="#000000">event_compose</text>
<path fill="none" stroke="#000000" stroke-width="2" d="M1193.3343,-2061C1193.3343,-2061 1274.6677,-2061 1274.6677,-2061 1280.3343,-2061 1286.001,-2066.6667 1286.001,-2072.3333 1286.001,-2072.3333 1286.001,-2083.6667 1286.001,-2083.6667 1286.001,-2089.3333 1280.3343,-2095 1274.6677,-2095 1274.6677,-2095 1193.3343,-2095 1193.3343,-2095 1187.6677,-2095 1182.001,-2089.3333 1182.001,-2083.6667 1182.001,-2083.6667 1182.001,-2072.3333 1182.001,-2072.3333 1182.001,-2066.6667 1187.6677,-2061 1193.3343,-2061"/>
</g>
<!-- calendar_page&#45;&gt;event_compose -->
<g id="edge38" class="edge">
<title>calendar_page&#45;&gt;event_compose</title>
<path fill="none" stroke="#000000" d="M933.6837,-2032.117C948.3627,-2039.4798 966.1759,-2047.3362 983.119,-2052 1045.328,-2069.1238 1119.0399,-2075.1489 1170.4036,-2077.1788"/>
<polygon fill="#000000" stroke="#000000" points="1170.5723,-2080.6869 1180.6901,-2077.5438 1170.8206,-2073.6913 1170.5723,-2080.6869"/>
<text text-anchor="start" x="1028.9655" y="-2078" font-family="Helvetica,sans-Serif" font-size="10.00" fill="#000000">new_event &#160;&#160;</text>
</g>
<!-- contact_compose -->
<g id="node12" class="node">
<title>contact_compose</title>
<polygon fill="transparent" stroke="transparent" stroke-width="2" points="1593.199,-2171 1477.199,-2171 1477.199,-2135 1593.199,-2135 1593.199,-2171"/>
<text text-anchor="start" x="1488.1836" y="-2149.2" font-family="Helvetica,sans-Serif" font-size="12.00" fill="#000000">contact_compose</text>
<path fill="none" stroke="#000000" stroke-width="2" d="M1489.5323,-2136C1489.5323,-2136 1580.8657,-2136 1580.8657,-2136 1586.5323,-2136 1592.199,-2141.6667 1592.199,-2147.3333 1592.199,-2147.3333 1592.199,-2158.6667 1592.199,-2158.6667 1592.199,-2164.3333 1586.5323,-2170 1580.8657,-2170 1580.8657,-2170 1489.5323,-2170 1489.5323,-2170 1483.8657,-2170 1478.199,-2164.3333 1478.199,-2158.6667 1478.199,-2158.6667 1478.199,-2147.3333 1478.199,-2147.3333 1478.199,-2141.6667 1483.8657,-2136 1489.5323,-2136"/>
</g>
<!-- contact_compose&#45;&gt;address_book_page -->
<g id="edge44" class="edge">
<title>contact_compose&#45;&gt;address_book_page</title>
<path fill="none" stroke="#000000" d="M1477.0771,-2157.7304C1433.6696,-2161.2268 1372.8831,-2166.0464 1319.501,-2170 1199.6103,-2178.8794 1060.3291,-2188.3686 976.5436,-2193.9872"/>
<polygon fill="#000000" stroke="#000000" points="976.0985,-2190.5091 966.3548,-2194.6697 976.5664,-2197.4934 976.0985,-2190.5091"/>
<text text-anchor="start" x="1196.213" y="-2185" font-family="Helvetica,sans-Serif" font-size="10.00" fill="#000000">submit_contact &#160;&#160;</text>
</g>
<!-- contacts_browser -->
<g id="node13" class="node">
<title>contacts_browser</title>
<polygon fill="transparent" stroke="transparent" stroke-width="2" points="1292.001,-2266 1176.001,-2266 1176.001,-2230 1292.001,-2230 1292.001,-2266"/>
<text text-anchor="start" x="1186.9922" y="-2244.2" font-family="Helvetica,sans-Serif" font-size="12.00" fill="#000000">contacts_browser</text>
<path fill="none" stroke="#000000" stroke-width="2" d="M1188.3343,-2231C1188.3343,-2231 1279.6677,-2231 1279.6677,-2231 1285.3343,-2231 1291.001,-2236.6667 1291.001,-2242.3333 1291.001,-2242.3333 1291.001,-2253.6667 1291.001,-2253.6667 1291.001,-2259.3333 1285.3343,-2265 1279.6677,-2265 1279.6677,-2265 1188.3343,-2265 1188.3343,-2265 1182.6677,-2265 1177.001,-2259.3333 1177.001,-2253.6667 1177.001,-2253.6667 1177.001,-2242.3333 1177.001,-2242.3333 1177.001,-2236.6667 1182.6677,-2231 1188.3343,-2231"/>
</g>
<!-- contacts_browser&#45;&gt;contact_compose -->
<g id="edge46" class="edge">
<title>contacts_browser&#45;&gt;contact_compose</title>
<path fill="none" stroke="#000000" d="M1291.363,-2229.9076C1341.8172,-2213.994 1415.29,-2190.8202 1468.384,-2174.0739"/>
<polygon fill="#000000" stroke="#000000" points="1469.5665,-2177.371 1478.0506,-2171.025 1467.4609,-2170.6952 1469.5665,-2177.371"/>
<text text-anchor="start" x="1360.116" y="-2218" font-family="Helvetica,sans-Serif" font-size="10.00" fill="#000000">new_contact &#160;&#160;</text>
</g>
<!-- contact_info -->
<g id="node14" class="node">
<title>contact_info</title>
<polygon fill="transparent" stroke="transparent" stroke-width="2" points="1578.199,-2307 1492.199,-2307 1492.199,-2271 1578.199,-2271 1578.199,-2307"/>
<text text-anchor="start" x="1502.853" y="-2285.2" font-family="Helvetica,sans-Serif" font-size="12.00" fill="#000000">contact_info</text>
<path fill="none" stroke="#000000" stroke-width="2" d="M1504.5323,-2272C1504.5323,-2272 1565.8657,-2272 1565.8657,-2272 1571.5323,-2272 1577.199,-2277.6667 1577.199,-2283.3333 1577.199,-2283.3333 1577.199,-2294.6667 1577.199,-2294.6667 1577.199,-2300.3333 1571.5323,-2306 1565.8657,-2306 1565.8657,-2306 1504.5323,-2306 1504.5323,-2306 1498.8657,-2306 1493.199,-2300.3333 1493.199,-2294.6667 1493.199,-2294.6667 1493.199,-2283.3333 1493.199,-2283.3333 1493.199,-2277.6667 1498.8657,-2272 1504.5323,-2272"/>
</g>
<!-- contacts_browser&#45;&gt;contact_info -->
<g id="edge45" class="edge">
<title>contacts_browser&#45;&gt;contact_info</title>
<path fill="none" stroke="#000000" d="M1292.3851,-2252.7277C1335.5651,-2256.5981 1395.7304,-2262.7751 1448.199,-2271 1459.1656,-2272.7191 1470.842,-2274.8942 1481.9624,-2277.1331"/>
<polygon fill="#000000" stroke="#000000" points="1481.4821,-2280.6075 1491.9824,-2279.1959 1482.8936,-2273.7513 1481.4821,-2280.6075"/>
<text text-anchor="start" x="1359.286" y="-2274" font-family="Helvetica,sans-Serif" font-size="10.00" fill="#000000">view_contact &#160;&#160;</text>
</g>
<!-- contact_delete_confirming -->
<g id="node15" class="node">
<title>contact_delete_confirming</title>
<polygon fill="transparent" stroke="transparent" stroke-width="2" points="1874.564,-2327 1712.564,-2327 1712.564,-2291 1874.564,-2291 1874.564,-2327"/>
<text text-anchor="start" x="1723.5452" y="-2305.2" font-family="Helvetica,sans-Serif" font-size="12.00" fill="#000000">contact_delete_confirming</text>
<path fill="none" stroke="#000000" stroke-width="2" d="M1724.8973,-2292C1724.8973,-2292 1862.2307,-2292 1862.2307,-2292 1867.8973,-2292 1873.564,-2297.6667 1873.564,-2303.3333 1873.564,-2303.3333 1873.564,-2314.6667 1873.564,-2314.6667 1873.564,-2320.3333 1867.8973,-2326 1862.2307,-2326 1862.2307,-2326 1724.8973,-2326 1724.8973,-2326 1719.2307,-2326 1713.564,-2320.3333 1713.564,-2314.6667 1713.564,-2314.6667 1713.564,-2303.3333 1713.564,-2303.3333 1713.564,-2297.6667 1719.2307,-2292 1724.8973,-2292"/>
</g>
<!-- contact_info&#45;&gt;contact_delete_confirming -->
<g id="edge47" class="edge">
<title>contact_info&#45;&gt;contact_delete_confirming</title>
<path fill="none" stroke="#000000" d="M1578.4435,-2292.3476C1612.2232,-2294.9624 1660.3506,-2298.688 1702.5214,-2301.9524"/>
<polygon fill="#000000" stroke="#000000" points="1702.2981,-2305.4455 1712.5384,-2302.7278 1702.8384,-2298.4664 1702.2981,-2305.4455"/>
<text text-anchor="start" x="1622.199" y="-2304" font-family="Helvetica,sans-Serif" font-size="10.00" fill="#000000">delete_contact &#160;&#160;</text>
</g>
<!-- contact_info&#45;&gt;address_book_page -->
<g id="edge48" class="edge">
<title>contact_info&#45;&gt;address_book_page</title>
<path fill="none" stroke="#000000" d="M1491.9985,-2292.2196C1368.9772,-2300.9774 1023.068,-2322.598 983.119,-2292 960.095,-2274.3653 984.8239,-2251.1633 966.119,-2229 964.4356,-2227.0054 962.591,-2225.1361 960.623,-2223.3851"/>
<polygon fill="#000000" stroke="#000000" points="962.5772,-2220.474 952.5002,-2217.2023 958.3375,-2226.0441 962.5772,-2220.474"/>
<text text-anchor="start" x="1205.0975" y="-2310" font-family="Helvetica,sans-Serif" font-size="10.00" fill="#000000">do_nothing &#160;&#160;</text>
</g>
<!-- contact_delete_confirming&#45;&gt;address_book_page -->
<g id="edge49" class="edge">
<title>contact_delete_confirming&#45;&gt;address_book_page</title>
<path fill="none" stroke="#000000" d="M1723.4195,-2327.0361C1702.7746,-2330.9784 1680.0473,-2334 1658.8815,-2334 1456.699,-2334 1456.699,-2334 1456.699,-2334 1366.8605,-2334 1029.5179,-2337.482 983.119,-2305 954.7641,-2285.1499 986.7263,-2256.8094 966.119,-2229 964.7362,-2227.1339 963.2089,-2225.3804 961.5656,-2223.733"/>
<polygon fill="#000000" stroke="#000000" points="963.6247,-2220.8926 953.7057,-2217.1692 959.1378,-2226.2655 963.6247,-2220.8926"/>
<text text-anchor="start" x="1336.501" y="-2337" font-family="Helvetica,sans-Serif" font-size="10.00" fill="#000000">confirm_delete_contact &#160;&#160;</text>
</g>
<!-- address_book_page&#45;&gt;selecting_menu -->
<g id="edge23" class="edge">
<title>address_book_page&#45;&gt;selecting_menu</title>
<path fill="none" stroke="#000000" d="M894.8832,-2180.9985C880.6586,-2140.9181 845.0425,-2046.1841 819.119,-2025 778.556,-1991.8528 742.0962,-2033.6101 704.629,-1997 671.3532,-1964.4854 647.5044,-1825.3477 638.5401,-1765.0502"/>
<polygon fill="#000000" stroke="#000000" points="641.9931,-1764.4727 637.0876,-1755.0819 635.0662,-1765.4821 641.9931,-1764.4727"/>
<text text-anchor="start" x="744.6485" y="-2028" font-family="Helvetica,sans-Serif" font-size="10.00" fill="#000000">return &#160;&#160;</text>
</g>
<!-- address_book_page&#45;&gt;contact_compose -->
<g id="edge42" class="edge">
<title>address_book_page&#45;&gt;contact_compose</title>
<path fill="none" stroke="#000000" d="M966.1972,-2185.8451C1015.919,-2176.3075 1086.2624,-2163.9154 1148.501,-2157 1231.6629,-2147.7597 1252.8569,-2149.223 1336.501,-2147 1390.1256,-2145.5748 1403.595,-2144.9413 1457.199,-2147 1460.2887,-2147.1187 1463.4457,-2147.2637 1466.6336,-2147.4294"/>
<polygon fill="#000000" stroke="#000000" points="1466.6899,-2150.9384 1476.8755,-2148.0223 1467.0945,-2143.9501 1466.6899,-2150.9384"/>
<text text-anchor="start" x="1201.767" y="-2160" font-family="Helvetica,sans-Serif" font-size="10.00" fill="#000000">new_contact &#160;&#160;</text>
</g>
<!-- address_book_page&#45;&gt;contacts_browser -->
<g id="edge43" class="edge">
<title>address_book_page&#45;&gt;contacts_browser</title>
<path fill="none" stroke="#000000" d="M950.5189,-2217.022C956.2056,-2220.4274 961.5816,-2224.3977 966.119,-2229 972.2653,-2235.2341 966.7876,-2242.2154 974.119,-2247 1030.7042,-2283.9282 1110.0216,-2277.9931 1166.1103,-2266.7068"/>
<polygon fill="#000000" stroke="#000000" points="1166.8934,-2270.1186 1175.9521,-2264.6241 1165.4441,-2263.2703 1166.8934,-2270.1186"/>
<text text-anchor="start" x="996.456" y="-2278" font-family="Helvetica,sans-Serif" font-size="10.00" fill="#000000">navigate_contact_browse &#160;&#160;</text>
</g>
<!-- tasks_page&#45;&gt;selecting_menu -->
<g id="edge24" class="edge">
<title>tasks_page&#45;&gt;selecting_menu</title>
<path fill="none" stroke="#000000" d="M864.5796,-186.0124C817.9646,-211.2261 739.2435,-261.8351 704.629,-331 672.6579,-394.8831 640.6893,-1515.1396 635.3933,-1708.6434"/>
<polygon fill="#000000" stroke="#000000" points="631.889,-1708.7588 635.1153,-1718.8504 638.8864,-1708.9495 631.889,-1708.7588"/>
<text text-anchor="start" x="744.6485" y="-334" font-family="Helvetica,sans-Serif" font-size="10.00" fill="#000000">return &#160;&#160;</text>
</g>
<!-- task_creating -->
<g id="node18" class="node">
<title>task_creating</title>
<polygon fill="transparent" stroke="transparent" stroke-width="2" points="1280.501,-196 1187.501,-196 1187.501,-160 1280.501,-160 1280.501,-196"/>
<text text-anchor="start" x="1198.825" y="-174.2" font-family="Helvetica,sans-Serif" font-size="12.00" fill="#000000">task_creating</text>
<path fill="none" stroke="#000000" stroke-width="2" d="M1199.8343,-161C1199.8343,-161 1268.1677,-161 1268.1677,-161 1273.8343,-161 1279.501,-166.6667 1279.501,-172.3333 1279.501,-172.3333 1279.501,-183.6667 1279.501,-183.6667 1279.501,-189.3333 1273.8343,-195 1268.1677,-195 1268.1677,-195 1199.8343,-195 1199.8343,-195 1194.1677,-195 1188.501,-189.3333 1188.501,-183.6667 1188.501,-183.6667 1188.501,-172.3333 1188.501,-172.3333 1188.501,-166.6667 1194.1677,-161 1199.8343,-161"/>
</g>
<!-- tasks_page&#45;&gt;task_creating -->
<g id="edge50" class="edge">
<title>tasks_page&#45;&gt;task_creating</title>
<path fill="none" stroke="#000000" d="M942.9417,-169.2564C1002.1152,-171.034 1110.46,-174.2887 1176.966,-176.2866"/>
<polygon fill="#000000" stroke="#000000" points="1177.166,-179.7941 1187.2666,-176.5961 1177.3762,-172.7973 1177.166,-179.7941"/>
<text text-anchor="start" x="1032.0245" y="-177" font-family="Helvetica,sans-Serif" font-size="10.00" fill="#000000">new_task &#160;&#160;</text>
</g>
<!-- task_editor -->
<g id="node19" class="node">
<title>task_editor</title>
<polygon fill="transparent" stroke="transparent" stroke-width="2" points="1274.001,-84 1194.001,-84 1194.001,-48 1274.001,-48 1274.001,-84"/>
<text text-anchor="start" x="1204.6604" y="-62.2" font-family="Helvetica,sans-Serif" font-size="12.00" fill="#000000">task_editor</text>
<path fill="none" stroke="#000000" stroke-width="2" d="M1206.3343,-49C1206.3343,-49 1261.6677,-49 1261.6677,-49 1267.3343,-49 1273.001,-54.6667 1273.001,-60.3333 1273.001,-60.3333 1273.001,-71.6667 1273.001,-71.6667 1273.001,-77.3333 1267.3343,-83 1261.6677,-83 1261.6677,-83 1206.3343,-83 1206.3343,-83 1200.6677,-83 1195.001,-77.3333 1195.001,-71.6667 1195.001,-71.6667 1195.001,-60.3333 1195.001,-60.3333 1195.001,-54.6667 1200.6677,-49 1206.3343,-49"/>
</g>
<!-- tasks_page&#45;&gt;task_editor -->
<g id="edge51" class="edge">
<title>tasks_page&#45;&gt;task_editor</title>
<path fill="none" stroke="#000000" d="M936.4462,-149.8926C950.6977,-143.0491 967.4496,-135.5757 983.119,-130 1051.2092,-105.7712 1132.7312,-86.7315 1183.9552,-75.9199"/>
<polygon fill="#000000" stroke="#000000" points="1184.7094,-79.338 1193.783,-73.8682 1183.2788,-72.4858 1184.7094,-79.338"/>
<text text-anchor="start" x="1033.135" y="-133" font-family="Helvetica,sans-Serif" font-size="10.00" fill="#000000">edit_task &#160;&#160;</text>
</g>
<!-- task_creating&#45;&gt;tasks_page -->
<g id="edge52" class="edge">
<title>task_creating&#45;&gt;tasks_page</title>
<path fill="none" stroke="#000000" d="M1187.4886,-164.1642C1170.0907,-159.6511 1150.0506,-155.2295 1131.501,-153 1066.0247,-145.1304 1048.7969,-147.0423 983.119,-153 973.1739,-153.9021 962.6328,-155.4077 952.5394,-157.1258"/>
<polygon fill="#000000" stroke="#000000" points="951.86,-153.6917 942.6339,-158.9003 953.0945,-160.582 951.86,-153.6917"/>
<text text-anchor="start" x="1030.634" y="-156" font-family="Helvetica,sans-Serif" font-size="10.00" fill="#000000">save_task &#160;&#160;</text>
</g>
<!-- task_editor&#45;&gt;tasks_page -->
<g id="edge53" class="edge">
<title>task_editor&#45;&gt;tasks_page</title>
<path fill="none" stroke="#000000" d="M1193.8829,-56.8422C1142.3241,-47.1938 1051.3376,-37.4665 983.119,-70 952.1839,-84.753 928.7226,-117.3906 914.9809,-140.9537"/>
<polygon fill="#000000" stroke="#000000" points="911.8621,-139.3596 910.0275,-149.7944 917.9689,-142.7812 911.8621,-139.3596"/>
<text text-anchor="start" x="1027.576" y="-73" font-family="Helvetica,sans-Serif" font-size="10.00" fill="#000000">delete_task &#160;&#160;</text>
</g>
<!-- notes_page&#45;&gt;selecting_menu -->
<g id="edge25" class="edge">
<title>notes_page&#45;&gt;selecting_menu</title>
<path fill="none" stroke="#000000" d="M899.4359,-448.0158C888.7892,-561.6413 830.8641,-1174.731 819.119,-1190 785.8825,-1233.2086 738.5269,-1191.3083 704.629,-1234 674.8076,-1271.5577 645.114,-1608.6003 636.8714,-1708.9399"/>
<polygon fill="#000000" stroke="#000000" points="633.3804,-1708.6882 636.0569,-1718.9394 640.3573,-1709.2566 633.3804,-1708.6882"/>
<text text-anchor="start" x="744.6485" y="-1237" font-family="Helvetica,sans-Serif" font-size="10.00" fill="#000000">return &#160;&#160;</text>
</g>
<!-- note_creator -->
<g id="node21" class="node">
<title>note_creator</title>
<polygon fill="transparent" stroke="transparent" stroke-width="2" points="1278.501,-489 1189.501,-489 1189.501,-453 1278.501,-453 1278.501,-489"/>
<text text-anchor="start" x="1200.8236" y="-467.2" font-family="Helvetica,sans-Serif" font-size="12.00" fill="#000000">note_creator</text>
<path fill="none" stroke="#000000" stroke-width="2" d="M1201.8343,-454C1201.8343,-454 1266.1677,-454 1266.1677,-454 1271.8343,-454 1277.501,-459.6667 1277.501,-465.3333 1277.501,-465.3333 1277.501,-476.6667 1277.501,-476.6667 1277.501,-482.3333 1271.8343,-488 1266.1677,-488 1266.1677,-488 1201.8343,-488 1201.8343,-488 1196.1677,-488 1190.501,-482.3333 1190.501,-476.6667 1190.501,-476.6667 1190.501,-465.3333 1190.501,-465.3333 1190.501,-459.6667 1196.1677,-454 1201.8343,-454"/>
</g>
<!-- notes_page&#45;&gt;note_creator -->
<g id="edge54" class="edge">
<title>notes_page&#45;&gt;note_creator</title>
<path fill="none" stroke="#000000" d="M943.3807,-431.1386C989.7564,-432.8476 1066.2862,-437.0217 1131.501,-447 1147.2101,-449.4036 1164.073,-452.9433 1179.4936,-456.5699"/>
<polygon fill="#000000" stroke="#000000" points="1178.8506,-460.0151 1189.3923,-458.9546 1180.4902,-453.2098 1178.8506,-460.0151"/>
<text text-anchor="start" x="1031.4655" y="-450" font-family="Helvetica,sans-Serif" font-size="10.00" fill="#000000">new_note &#160;&#160;</text>
</g>
<!-- note_editor -->
<g id="node22" class="node">
<title>note_editor</title>
<polygon fill="transparent" stroke="transparent" stroke-width="2" points="1275.001,-336 1193.001,-336 1193.001,-300 1275.001,-300 1275.001,-336"/>
<text text-anchor="start" x="1203.9896" y="-314.2" font-family="Helvetica,sans-Serif" font-size="12.00" fill="#000000">note_editor</text>
<path fill="none" stroke="#000000" stroke-width="2" d="M1205.3343,-301C1205.3343,-301 1262.6677,-301 1262.6677,-301 1268.3343,-301 1274.001,-306.6667 1274.001,-312.3333 1274.001,-312.3333 1274.001,-323.6667 1274.001,-323.6667 1274.001,-329.3333 1268.3343,-335 1262.6677,-335 1262.6677,-335 1205.3343,-335 1205.3343,-335 1199.6677,-335 1194.001,-329.3333 1194.001,-323.6667 1194.001,-323.6667 1194.001,-312.3333 1194.001,-312.3333 1194.001,-306.6667 1199.6677,-301 1205.3343,-301"/>
</g>
<!-- notes_page&#45;&gt;note_editor -->
<g id="edge55" class="edge">
<title>notes_page&#45;&gt;note_editor</title>
<path fill="none" stroke="#000000" d="M910.7548,-411.8277C923.8055,-389.3048 949.3984,-351.8408 983.119,-335 1046.2798,-303.4561 1129.7591,-304.9816 1182.6808,-310.3837"/>
<polygon fill="#000000" stroke="#000000" points="1182.5185,-313.887 1192.8426,-311.5071 1183.2878,-306.9293 1182.5185,-313.887"/>
<text text-anchor="start" x="1032.576" y="-338" font-family="Helvetica,sans-Serif" font-size="10.00" fill="#000000">edit_note &#160;&#160;</text>
</g>
<!-- note_creator&#45;&gt;notes_page -->
<g id="edge56" class="edge">
<title>note_creator&#45;&gt;notes_page</title>
<path fill="none" stroke="#000000" d="M1189.0937,-473.1368C1138.5074,-474.5988 1054.0876,-474.1846 983.119,-460 972.9807,-457.9736 962.4241,-454.8976 952.3919,-451.4751"/>
<polygon fill="#000000" stroke="#000000" points="953.5593,-448.1756 942.9647,-448.1105 951.2063,-454.7683 953.5593,-448.1756"/>
<text text-anchor="start" x="1030.0815" y="-476" font-family="Helvetica,sans-Serif" font-size="10.00" fill="#000000">write_note &#160;&#160;</text>
</g>
<!-- note_editor&#45;&gt;notes_page -->
<g id="edge57" class="edge">
<title>note_editor&#45;&gt;notes_page</title>
<path fill="none" stroke="#000000" d="M1192.9655,-331.8066C1132.4555,-352.1655 1019.3261,-390.2286 953.0945,-412.5126"/>
<polygon fill="#000000" stroke="#000000" points="951.6405,-409.3089 943.2787,-415.8151 953.8728,-415.9434 951.6405,-409.3089"/>
<text text-anchor="start" x="1030.0815" y="-405" font-family="Helvetica,sans-Serif" font-size="10.00" fill="#000000">write_note &#160;&#160;</text>
</g>
<!-- note_editor&#45;&gt;notes_page -->
<g id="edge58" class="edge">
<title>note_editor&#45;&gt;notes_page</title>
<path fill="none" stroke="#000000" d="M1194.5301,-299.9094C1142.4638,-278.9488 1049.6593,-251.8597 983.119,-290 941.2614,-313.9924 918.7075,-368.5509 908.364,-402.0337"/>
<polygon fill="#000000" stroke="#000000" points="904.9874,-401.1106 905.5381,-411.6911 911.7057,-403.0765 904.9874,-401.1106"/>
<text text-anchor="start" x="1027.017" y="-293" font-family="Helvetica,sans-Serif" font-size="10.00" fill="#000000">delete_note &#160;&#160;</text>
</g>
<!-- admin_config_page -->
<g id="node23" class="node">
<title>admin_config_page</title>
<polygon fill="transparent" stroke="transparent" stroke-width="2" points="1297.001,-1162 1171.001,-1162 1171.001,-1126 1297.001,-1126 1297.001,-1162"/>
<text text-anchor="start" x="1181.6486" y="-1140.2" font-family="Helvetica,sans-Serif" font-size="12.00" fill="#000000">admin_config_page</text>
<path fill="none" stroke="#000000" stroke-width="2" d="M1183.3343,-1127C1183.3343,-1127 1284.6677,-1127 1284.6677,-1127 1290.3343,-1127 1296.001,-1132.6667 1296.001,-1138.3333 1296.001,-1138.3333 1296.001,-1149.6667 1296.001,-1149.6667 1296.001,-1155.3333 1290.3343,-1161 1284.6677,-1161 1284.6677,-1161 1183.3343,-1161 1183.3343,-1161 1177.6677,-1161 1172.001,-1155.3333 1172.001,-1149.6667 1172.001,-1149.6667 1172.001,-1138.3333 1172.001,-1138.3333 1172.001,-1132.6667 1177.6677,-1127 1183.3343,-1127"/>
</g>
<!-- admin_config_page&#45;&gt;admin_page -->
<g id="edge69" class="edge">
<title>admin_config_page&#45;&gt;admin_page</title>
<path fill="none" stroke="#000000" d="M1170.821,-1141.3428C1108.6036,-1138.7262 1014.5626,-1134.7711 955.5579,-1132.2895"/>
<polygon fill="#000000" stroke="#000000" points="955.4614,-1128.7825 945.3232,-1131.8591 955.1672,-1135.7763 955.4614,-1128.7825"/>
<text text-anchor="start" x="1040.0845" y="-1142" font-family="Helvetica,sans-Serif" font-size="10.00" fill="#000000">return &#160;&#160;</text>
</g>
<!-- admin_users_page -->
<g id="node24" class="node">
<title>admin_users_page</title>
<polygon fill="transparent" stroke="transparent" stroke-width="2" points="1296.001,-574 1172.001,-574 1172.001,-538 1296.001,-538 1296.001,-574"/>
<text text-anchor="start" x="1182.9854" y="-552.2" font-family="Helvetica,sans-Serif" font-size="12.00" fill="#000000">admin_users_page</text>
<path fill="none" stroke="#000000" stroke-width="2" d="M1184.3343,-539C1184.3343,-539 1283.6677,-539 1283.6677,-539 1289.3343,-539 1295.001,-544.6667 1295.001,-550.3333 1295.001,-550.3333 1295.001,-561.6667 1295.001,-561.6667 1295.001,-567.3333 1289.3343,-573 1283.6677,-573 1283.6677,-573 1184.3343,-573 1184.3343,-573 1178.6677,-573 1173.001,-567.3333 1173.001,-561.6667 1173.001,-561.6667 1173.001,-550.3333 1173.001,-550.3333 1173.001,-544.6667 1178.6677,-539 1184.3343,-539"/>
</g>
<!-- admin_users_page&#45;&gt;admin_page -->
<g id="edge70" class="edge">
<title>admin_users_page&#45;&gt;admin_page</title>
<path fill="none" stroke="#000000" d="M1192.7812,-537.9869C1137.8987,-517.1163 1041.037,-491.5985 983.119,-542 940.2281,-579.3245 910.3558,-989.1393 902.9241,-1101.5996"/>
<polygon fill="#000000" stroke="#000000" points="899.4159,-1101.6135 902.2567,-1111.8203 906.401,-1102.0697 899.4159,-1101.6135"/>
<text text-anchor="start" x="1040.0845" y="-545" font-family="Helvetica,sans-Serif" font-size="10.00" fill="#000000">return &#160;&#160;</text>
</g>
<!-- admin_groups_page -->
<g id="node25" class="node">
<title>admin_groups_page</title>
<polygon fill="transparent" stroke="transparent" stroke-width="2" points="1299.501,-698 1168.501,-698 1168.501,-662 1299.501,-662 1299.501,-698"/>
<text text-anchor="start" x="1179.8146" y="-676.2" font-family="Helvetica,sans-Serif" font-size="12.00" fill="#000000">admin_groups_page</text>
<path fill="none" stroke="#000000" stroke-width="2" d="M1180.8343,-663C1180.8343,-663 1287.1677,-663 1287.1677,-663 1292.8343,-663 1298.501,-668.6667 1298.501,-674.3333 1298.501,-674.3333 1298.501,-685.6667 1298.501,-685.6667 1298.501,-691.3333 1292.8343,-697 1287.1677,-697 1287.1677,-697 1180.8343,-697 1180.8343,-697 1175.1677,-697 1169.501,-691.3333 1169.501,-685.6667 1169.501,-685.6667 1169.501,-674.3333 1169.501,-674.3333 1169.501,-668.6667 1175.1677,-663 1180.8343,-663"/>
</g>
<!-- admin_groups_page&#45;&gt;admin_groups_page -->
<g id="edge79" class="edge">
<title>admin_groups_page&#45;&gt;admin_groups_page</title>
<path fill="none" stroke="#000000" d="M1217.6196,-698.1003C1213.6694,-709.3213 1219.1299,-720 1234.001,-720 1244.2249,-720 1250.0008,-714.9526 1251.3287,-708.1518"/>
<polygon fill="#000000" stroke="#000000" points="1254.8044,-707.7282 1250.3824,-698.1003 1247.8352,-708.3843 1254.8044,-707.7282"/>
<text text-anchor="start" x="1205.932" y="-723" font-family="Helvetica,sans-Serif" font-size="10.00" fill="#000000">group_add &#160;&#160;</text>
</g>
<!-- admin_group_deleting -->
<g id="node26" class="node">
<title>admin_group_deleting</title>
<polygon fill="transparent" stroke="transparent" stroke-width="2" points="1605.199,-698 1465.199,-698 1465.199,-662 1605.199,-662 1605.199,-698"/>
<text text-anchor="start" x="1475.847" y="-676.2" font-family="Helvetica,sans-Serif" font-size="12.00" fill="#000000">admin_group_deleting</text>
<path fill="none" stroke="#000000" stroke-width="2" d="M1477.5323,-663C1477.5323,-663 1592.8657,-663 1592.8657,-663 1598.5323,-663 1604.199,-668.6667 1604.199,-674.3333 1604.199,-674.3333 1604.199,-685.6667 1604.199,-685.6667 1604.199,-691.3333 1598.5323,-697 1592.8657,-697 1592.8657,-697 1477.5323,-697 1477.5323,-697 1471.8657,-697 1466.199,-691.3333 1466.199,-685.6667 1466.199,-685.6667 1466.199,-674.3333 1466.199,-674.3333 1466.199,-668.6667 1471.8657,-663 1477.5323,-663"/>
</g>
<!-- admin_groups_page&#45;&gt;admin_group_deleting -->
<g id="edge80" class="edge">
<title>admin_groups_page&#45;&gt;admin_group_deleting</title>
<path fill="none" stroke="#000000" d="M1299.728,-680C1345.3799,-680 1406.481,-680 1455.0013,-680"/>
<polygon fill="#000000" stroke="#000000" points="1455.154,-683.5001 1465.154,-680 1455.154,-676.5001 1455.154,-683.5001"/>
<text text-anchor="start" x="1359.0025" y="-683" font-family="Helvetica,sans-Serif" font-size="10.00" fill="#000000">group_delete &#160;&#160;</text>
</g>
<!-- admin_groups_page&#45;&gt;admin_page -->
<g id="edge71" class="edge">
<title>admin_groups_page&#45;&gt;admin_page</title>
<path fill="none" stroke="#000000" d="M1168.2684,-685.5096C1102.8628,-692.369 1008.6596,-706.429 983.119,-732 930.6342,-784.5472 909.0149,-1019.8756 902.9924,-1101.7847"/>
<polygon fill="#000000" stroke="#000000" points="899.4943,-1101.6356 902.2742,-1111.8592 906.4765,-1102.1334 899.4943,-1101.6356"/>
<text text-anchor="start" x="1040.0845" y="-735" font-family="Helvetica,sans-Serif" font-size="10.00" fill="#000000">return &#160;&#160;</text>
</g>
<!-- admin_group_deleting&#45;&gt;admin_groups_page -->
<g id="edge81" class="edge">
<title>admin_group_deleting&#45;&gt;admin_groups_page</title>
<path fill="none" stroke="#000000" d="M1465.0944,-665.0965C1459.3976,-664.2535 1453.7136,-663.5337 1448.199,-663 1398.7863,-658.2175 1385.977,-658.9249 1336.501,-663 1327.815,-663.7154 1318.7565,-664.7663 1309.7756,-666.0007"/>
<polygon fill="#000000" stroke="#000000" points="1309.0864,-662.5639 1299.6928,-667.464 1310.0918,-669.4913 1309.0864,-662.5639"/>
<text text-anchor="start" x="1339.836" y="-666" font-family="Helvetica,sans-Serif" font-size="10.00" fill="#000000">group_delete_confirm &#160;&#160;</text>
</g>
<!-- admin_permissions_page -->
<g id="node27" class="node">
<title>admin_permissions_page</title>
<polygon fill="transparent" stroke="transparent" stroke-width="2" points="1313.001,-812 1155.001,-812 1155.001,-776 1313.001,-776 1313.001,-812"/>
<text text-anchor="start" x="1165.6544" y="-790.2" font-family="Helvetica,sans-Serif" font-size="12.00" fill="#000000">admin_permissions_page</text>
<path fill="none" stroke="#000000" stroke-width="2" d="M1167.3343,-777C1167.3343,-777 1300.6677,-777 1300.6677,-777 1306.3343,-777 1312.001,-782.6667 1312.001,-788.3333 1312.001,-788.3333 1312.001,-799.6667 1312.001,-799.6667 1312.001,-805.3333 1306.3343,-811 1300.6677,-811 1300.6677,-811 1167.3343,-811 1167.3343,-811 1161.6677,-811 1156.001,-805.3333 1156.001,-799.6667 1156.001,-799.6667 1156.001,-788.3333 1156.001,-788.3333 1156.001,-782.6667 1161.6677,-777 1167.3343,-777"/>
</g>
<!-- admin_permissions_page&#45;&gt;admin_page -->
<g id="edge72" class="edge">
<title>admin_permissions_page&#45;&gt;admin_page</title>
<path fill="none" stroke="#000000" d="M1192.9766,-775.8781C1138.7568,-755.0197 1043.1115,-729.3461 983.119,-777 931.9368,-817.6556 909.8192,-1024.8606 903.3031,-1101.4742"/>
<polygon fill="#000000" stroke="#000000" points="899.7858,-1101.5414 902.4533,-1111.7949 906.7622,-1102.1159 899.7858,-1101.5414"/>
<text text-anchor="start" x="1040.0845" y="-780" font-family="Helvetica,sans-Serif" font-size="10.00" fill="#000000">return &#160;&#160;</text>
</g>
<!-- admin_locks_page -->
<g id="node28" class="node">
<title>admin_locks_page</title>
<polygon fill="transparent" stroke="transparent" stroke-width="2" points="1295.001,-1030 1173.001,-1030 1173.001,-994 1295.001,-994 1295.001,-1030"/>
<text text-anchor="start" x="1183.9868" y="-1008.2" font-family="Helvetica,sans-Serif" font-size="12.00" fill="#000000">admin_locks_page</text>
<path fill="none" stroke="#000000" stroke-width="2" d="M1185.3343,-995C1185.3343,-995 1282.6677,-995 1282.6677,-995 1288.3343,-995 1294.001,-1000.6667 1294.001,-1006.3333 1294.001,-1006.3333 1294.001,-1017.6667 1294.001,-1017.6667 1294.001,-1023.3333 1288.3343,-1029 1282.6677,-1029 1282.6677,-1029 1185.3343,-1029 1185.3343,-1029 1179.6677,-1029 1174.001,-1023.3333 1174.001,-1017.6667 1174.001,-1017.6667 1174.001,-1006.3333 1174.001,-1006.3333 1174.001,-1000.6667 1179.6677,-995 1185.3343,-995"/>
</g>
<!-- admin_locks_page&#45;&gt;admin_page -->
<g id="edge73" class="edge">
<title>admin_locks_page&#45;&gt;admin_page</title>
<path fill="none" stroke="#000000" d="M1172.8431,-1002.6726C1119.662,-997.5327 1042.099,-997.3933 983.119,-1028 951.7839,-1044.2608 928.2792,-1078.3567 914.6428,-1102.6483"/>
<polygon fill="#000000" stroke="#000000" points="911.4062,-1101.2763 909.7387,-1111.7391 917.5669,-1104.5997 911.4062,-1101.2763"/>
<text text-anchor="start" x="1040.0845" y="-1031" font-family="Helvetica,sans-Serif" font-size="10.00" fill="#000000">return &#160;&#160;</text>
</g>
<!-- admin_alarms_page -->
<g id="node29" class="node">
<title>admin_alarms_page</title>
<polygon fill="transparent" stroke="transparent" stroke-width="2" points="1299.001,-1247 1169.001,-1247 1169.001,-1211 1299.001,-1211 1299.001,-1247"/>
<text text-anchor="start" x="1179.6566" y="-1225.2" font-family="Helvetica,sans-Serif" font-size="12.00" fill="#000000">admin_alarms_page</text>
<path fill="none" stroke="#000000" stroke-width="2" d="M1181.3343,-1212C1181.3343,-1212 1286.6677,-1212 1286.6677,-1212 1292.3343,-1212 1298.001,-1217.6667 1298.001,-1223.3333 1298.001,-1223.3333 1298.001,-1234.6667 1298.001,-1234.6667 1298.001,-1240.3333 1292.3343,-1246 1286.6677,-1246 1286.6677,-1246 1181.3343,-1246 1181.3343,-1246 1175.6677,-1246 1170.001,-1240.3333 1170.001,-1234.6667 1170.001,-1234.6667 1170.001,-1223.3333 1170.001,-1223.3333 1170.001,-1217.6667 1175.6677,-1212 1181.3343,-1212"/>
</g>
<!-- admin_alarms_page&#45;&gt;admin_page -->
<g id="edge74" class="edge">
<title>admin_alarms_page&#45;&gt;admin_page</title>
<path fill="none" stroke="#000000" d="M1170.4647,-1210.9664C1119.6732,-1196.4409 1046.7021,-1175.3277 983.119,-1156 973.9986,-1153.2276 964.3286,-1150.2214 954.9501,-1147.2703"/>
<polygon fill="#000000" stroke="#000000" points="955.9073,-1143.9023 945.3175,-1144.2271 953.7985,-1150.5771 955.9073,-1143.9023"/>
<text text-anchor="start" x="1040.0845" y="-1202" font-family="Helvetica,sans-Serif" font-size="10.00" fill="#000000">return &#160;&#160;</text>
</g>
<!-- admin_sessions_page -->
<g id="node30" class="node">
<title>admin_sessions_page</title>
<polygon fill="transparent" stroke="transparent" stroke-width="2" points="1304.501,-1372 1163.501,-1372 1163.501,-1336 1304.501,-1336 1304.501,-1372"/>
<text text-anchor="start" x="1174.816" y="-1350.2" font-family="Helvetica,sans-Serif" font-size="12.00" fill="#000000">admin_sessions_page</text>
<path fill="none" stroke="#000000" stroke-width="2" d="M1175.8343,-1337C1175.8343,-1337 1292.1677,-1337 1292.1677,-1337 1297.8343,-1337 1303.501,-1342.6667 1303.501,-1348.3333 1303.501,-1348.3333 1303.501,-1359.6667 1303.501,-1359.6667 1303.501,-1365.3333 1297.8343,-1371 1292.1677,-1371 1292.1677,-1371 1175.8343,-1371 1175.8343,-1371 1170.1677,-1371 1164.501,-1365.3333 1164.501,-1359.6667 1164.501,-1359.6667 1164.501,-1348.3333 1164.501,-1348.3333 1164.501,-1342.6667 1170.1677,-1337 1175.8343,-1337"/>
</g>
<!-- admin_sessions_page&#45;&gt;admin_page -->
<g id="edge75" class="edge">
<title>admin_sessions_page&#45;&gt;admin_page</title>
<path fill="none" stroke="#000000" d="M1170.7873,-1372.0093C1116.0953,-1383.5876 1037.4698,-1390.1871 983.119,-1352 950.4198,-1329.0254 920.0668,-1212.7777 907.3758,-1158.2773"/>
<polygon fill="#000000" stroke="#000000" points="910.7226,-1157.2122 905.0777,-1148.2465 903.8994,-1158.7756 910.7226,-1157.2122"/>
<text text-anchor="start" x="1040.0845" y="-1384" font-family="Helvetica,sans-Serif" font-size="10.00" fill="#000000">return &#160;&#160;</text>
</g>
<!-- admin_php_shell_page -->
<g id="node31" class="node">
<title>admin_php_shell_page</title>
<polygon fill="transparent" stroke="transparent" stroke-width="2" points="1307.001,-1464 1161.001,-1464 1161.001,-1428 1307.001,-1428 1307.001,-1464"/>
<text text-anchor="start" x="1171.9784" y="-1442.2" font-family="Helvetica,sans-Serif" font-size="12.00" fill="#000000">admin_php_shell_page</text>
<path fill="none" stroke="#000000" stroke-width="2" d="M1173.3343,-1429C1173.3343,-1429 1294.6677,-1429 1294.6677,-1429 1300.3343,-1429 1306.001,-1434.6667 1306.001,-1440.3333 1306.001,-1440.3333 1306.001,-1451.6667 1306.001,-1451.6667 1306.001,-1457.3333 1300.3343,-1463 1294.6677,-1463 1294.6677,-1463 1173.3343,-1463 1173.3343,-1463 1167.6677,-1463 1162.001,-1457.3333 1162.001,-1451.6667 1162.001,-1451.6667 1162.001,-1440.3333 1162.001,-1440.3333 1162.001,-1434.6667 1167.6677,-1429 1173.3343,-1429"/>
</g>
<!-- admin_php_shell_page&#45;&gt;admin_php_shell_page -->
<g id="edge82" class="edge">
<title>admin_php_shell_page&#45;&gt;admin_php_shell_page</title>
<path fill="none" stroke="#000000" d="M1217.6196,-1464.1003C1213.6694,-1475.3213 1219.1299,-1486 1234.001,-1486 1244.2249,-1486 1250.0008,-1480.9526 1251.3287,-1474.1518"/>
<polygon fill="#000000" stroke="#000000" points="1254.8044,-1473.7282 1250.3824,-1464.1003 1247.8352,-1474.3843 1254.8044,-1473.7282"/>
<text text-anchor="start" x="1208.1555" y="-1489" font-family="Helvetica,sans-Serif" font-size="10.00" fill="#000000">exec_php &#160;&#160;</text>
</g>
<!-- admin_php_shell_page&#45;&gt;admin_page -->
<g id="edge76" class="edge">
<title>admin_php_shell_page&#45;&gt;admin_page</title>
<path fill="none" stroke="#000000" d="M1160.8475,-1440.3257C1096.3918,-1433.8745 1008.8608,-1421.1044 983.119,-1398 946.9204,-1365.5102 917.2477,-1220.3032 905.9868,-1158.2582"/>
<polygon fill="#000000" stroke="#000000" points="909.4233,-1157.5919 904.2196,-1148.363 902.5323,-1158.8226 909.4233,-1157.5919"/>
<text text-anchor="start" x="1040.0845" y="-1439" font-family="Helvetica,sans-Serif" font-size="10.00" fill="#000000">return &#160;&#160;</text>
</g>
<!-- admin_sql_shell_page -->
<g id="node32" class="node">
<title>admin_sql_shell_page</title>
<polygon fill="transparent" stroke="transparent" stroke-width="2" points="1304.501,-1563 1163.501,-1563 1163.501,-1527 1304.501,-1527 1304.501,-1563"/>
<text text-anchor="start" x="1174.8178" y="-1541.2" font-family="Helvetica,sans-Serif" font-size="12.00" fill="#000000">admin_sql_shell_page</text>
<path fill="none" stroke="#000000" stroke-width="2" d="M1175.8343,-1528C1175.8343,-1528 1292.1677,-1528 1292.1677,-1528 1297.8343,-1528 1303.501,-1533.6667 1303.501,-1539.3333 1303.501,-1539.3333 1303.501,-1550.6667 1303.501,-1550.6667 1303.501,-1556.3333 1297.8343,-1562 1292.1677,-1562 1292.1677,-1562 1175.8343,-1562 1175.8343,-1562 1170.1677,-1562 1164.501,-1556.3333 1164.501,-1550.6667 1164.501,-1550.6667 1164.501,-1539.3333 1164.501,-1539.3333 1164.501,-1533.6667 1170.1677,-1528 1175.8343,-1528"/>
</g>
<!-- admin_sql_shell_page&#45;&gt;admin_sql_shell_page -->
<g id="edge83" class="edge">
<title>admin_sql_shell_page&#45;&gt;admin_sql_shell_page</title>
<path fill="none" stroke="#000000" d="M1217.6196,-1563.1003C1213.6694,-1574.3213 1219.1299,-1585 1234.001,-1585 1244.2249,-1585 1250.0008,-1579.9526 1251.3287,-1573.1518"/>
<polygon fill="#000000" stroke="#000000" points="1254.8044,-1572.7282 1250.3824,-1563.1003 1247.8352,-1573.3843 1254.8044,-1572.7282"/>
<text text-anchor="start" x="1210.105" y="-1588" font-family="Helvetica,sans-Serif" font-size="10.00" fill="#000000">exec_sql &#160;&#160;</text>
</g>
<!-- admin_sql_shell_page&#45;&gt;admin_page -->
<g id="edge77" class="edge">
<title>admin_sql_shell_page&#45;&gt;admin_page</title>
<path fill="none" stroke="#000000" d="M1194.9948,-1563.0342C1140.8905,-1585.0474 1042.984,-1613.6133 983.119,-1564 920.2083,-1511.8626 905.2137,-1245.7685 901.9552,-1158.0723"/>
<polygon fill="#000000" stroke="#000000" points="905.4525,-1157.9306 901.6061,-1148.0587 898.4567,-1158.1746 905.4525,-1157.9306"/>
<text text-anchor="start" x="1040.0845" y="-1594" font-family="Helvetica,sans-Serif" font-size="10.00" fill="#000000">return &#160;&#160;</text>
</g>
<!-- admin_cli_page -->
<g id="node33" class="node">
<title>admin_cli_page</title>
<polygon fill="transparent" stroke="transparent" stroke-width="2" points="1287.001,-930 1181.001,-930 1181.001,-894 1287.001,-894 1287.001,-930"/>
<text text-anchor="start" x="1191.9908" y="-908.2" font-family="Helvetica,sans-Serif" font-size="12.00" fill="#000000">admin_cli_page</text>
<path fill="none" stroke="#000000" stroke-width="2" d="M1193.3343,-895C1193.3343,-895 1274.6677,-895 1274.6677,-895 1280.3343,-895 1286.001,-900.6667 1286.001,-906.3333 1286.001,-906.3333 1286.001,-917.6667 1286.001,-917.6667 1286.001,-923.3333 1280.3343,-929 1274.6677,-929 1274.6677,-929 1193.3343,-929 1193.3343,-929 1187.6677,-929 1182.001,-923.3333 1182.001,-917.6667 1182.001,-917.6667 1182.001,-906.3333 1182.001,-906.3333 1182.001,-900.6667 1187.6677,-895 1193.3343,-895"/>
</g>
<!-- admin_cli_page&#45;&gt;admin_cli_page -->
<g id="edge84" class="edge">
<title>admin_cli_page&#45;&gt;admin_cli_page</title>
<path fill="none" stroke="#000000" d="M1217.6196,-930.1003C1213.6694,-941.3213 1219.1299,-952 1234.001,-952 1244.2249,-952 1250.0008,-946.9526 1251.3287,-940.1518"/>
<polygon fill="#000000" stroke="#000000" points="1254.8044,-939.7282 1250.3824,-930.1003 1247.8352,-940.3843 1254.8044,-939.7282"/>
<text text-anchor="start" x="1194.547" y="-955" font-family="Helvetica,sans-Serif" font-size="10.00" fill="#000000">exec_command &#160;&#160;</text>
</g>
<!-- admin_cli_page&#45;&gt;admin_page -->
<g id="edge78" class="edge">
<title>admin_cli_page&#45;&gt;admin_page</title>
<path fill="none" stroke="#000000" d="M1180.8882,-915.2679C1126.0967,-921.1229 1040.7378,-937.4563 983.119,-983 944.059,-1013.8742 920.67,-1068.7634 909.3938,-1102.0273"/>
<polygon fill="#000000" stroke="#000000" points="906.0431,-1101.0135 906.2792,-1111.6057 912.7,-1103.1782 906.0431,-1101.0135"/>
<text text-anchor="start" x="1040.0845" y="-986" font-family="Helvetica,sans-Serif" font-size="10.00" fill="#000000">return &#160;&#160;</text>
</g>
<!-- preferences_page&#45;&gt;selecting_menu -->
<g id="edge27" class="edge">
<title>preferences_page&#45;&gt;selecting_menu</title>
<path fill="none" stroke="#000000" d="M841.8948,-1678.6678C799.0503,-1690.7259 741.2495,-1706.9931 697.5719,-1719.2856"/>
<polygon fill="#000000" stroke="#000000" points="696.5946,-1715.9246 687.9167,-1722.0029 698.491,-1722.6628 696.5946,-1715.9246"/>
<text text-anchor="start" x="744.6485" y="-1719" font-family="Helvetica,sans-Serif" font-size="10.00" fill="#000000">return &#160;&#160;</text>
</g>
<!-- preferences_personal_page -->
<g id="node35" class="node">
<title>preferences_personal_page</title>
<polygon fill="transparent" stroke="transparent" stroke-width="2" points="1319.501,-1651 1148.501,-1651 1148.501,-1615 1319.501,-1615 1319.501,-1651"/>
<text text-anchor="start" x="1159.8082" y="-1629.2" font-family="Helvetica,sans-Serif" font-size="12.00" fill="#000000">preferences_personal_page</text>
<path fill="none" stroke="#000000" stroke-width="2" d="M1160.8343,-1616C1160.8343,-1616 1307.1677,-1616 1307.1677,-1616 1312.8343,-1616 1318.501,-1621.6667 1318.501,-1627.3333 1318.501,-1627.3333 1318.501,-1638.6667 1318.501,-1638.6667 1318.501,-1644.3333 1312.8343,-1650 1307.1677,-1650 1307.1677,-1650 1160.8343,-1650 1160.8343,-1650 1155.1677,-1650 1149.501,-1644.3333 1149.501,-1638.6667 1149.501,-1638.6667 1149.501,-1627.3333 1149.501,-1627.3333 1149.501,-1621.6667 1155.1677,-1616 1160.8343,-1616"/>
</g>
<!-- preferences_page&#45;&gt;preferences_personal_page -->
<g id="edge85" class="edge">
<title>preferences_page&#45;&gt;preferences_personal_page</title>
<path fill="none" stroke="#000000" d="M960.2481,-1656.8488C1009.5093,-1652.5573 1080.6337,-1646.361 1138.0388,-1641.36"/>
<polygon fill="#000000" stroke="#000000" points="1138.5643,-1644.8276 1148.2228,-1640.4728 1137.9567,-1637.854 1138.5643,-1644.8276"/>
<text text-anchor="start" x="983.119" y="-1657" font-family="Helvetica,sans-Serif" font-size="10.00" fill="#000000">navigate_preferences_personal &#160;&#160;</text>
</g>
<!-- preferences_personal_page&#45;&gt;preferences_personal_page -->
<g id="edge86" class="edge">
<title>preferences_personal_page&#45;&gt;preferences_personal_page</title>
<path fill="none" stroke="#000000" d="M1217.6196,-1651.1003C1213.6694,-1662.3213 1219.1299,-1673 1234.001,-1673 1244.2249,-1673 1250.0008,-1667.9526 1251.3287,-1661.1518"/>
<polygon fill="#000000" stroke="#000000" points="1254.8044,-1660.7282 1250.3824,-1651.1003 1247.8352,-1661.3843 1254.8044,-1660.7282"/>
<text text-anchor="start" x="1172.0375" y="-1676" font-family="Helvetica,sans-Serif" font-size="10.00" fill="#000000">set_preferences_personal &#160;&#160;</text>
</g>
<!-- admin_page&#45;&gt;selecting_menu -->
<g id="edge26" class="edge">
<title>admin_page&#45;&gt;selecting_menu</title>
<path fill="none" stroke="#000000" d="M888.2911,-1148.2142C848.8994,-1204.4156 730.7674,-1375.0532 704.629,-1437 664.4749,-1532.1632 645.0671,-1654.4785 637.9559,-1708.8207"/>
<polygon fill="#000000" stroke="#000000" points="634.4822,-1708.3935 636.6952,-1718.7547 641.4265,-1709.2749 634.4822,-1708.3935"/>
<text text-anchor="start" x="744.6485" y="-1440" font-family="Helvetica,sans-Serif" font-size="10.00" fill="#000000">return &#160;&#160;</text>
</g>
<!-- admin_page&#45;&gt;admin_config_page -->
<g id="edge59" class="edge">
<title>admin_page&#45;&gt;admin_config_page</title>
<path fill="none" stroke="#000000" d="M945.2689,-1122.9789C957.4955,-1121.3345 970.7937,-1119.823 983.119,-1119 1048.92,-1114.6062 1066.0247,-1111.1304 1131.501,-1119 1141.0166,-1120.1437 1150.9245,-1121.8642 1160.6667,-1123.8781"/>
<polygon fill="#000000" stroke="#000000" points="1160.2199,-1127.3628 1170.7357,-1126.071 1161.7096,-1120.5231 1160.2199,-1127.3628"/>
<text text-anchor="start" x="1018.6905" y="-1122" font-family="Helvetica,sans-Serif" font-size="10.00" fill="#000000">check_versions &#160;&#160;</text>
</g>
<!-- admin_page&#45;&gt;admin_users_page -->
<g id="edge60" class="edge">
<title>admin_page&#45;&gt;admin_users_page</title>
<path fill="none" stroke="#000000" d="M901.5156,-1111.7911C903.6613,-1030.2607 916.4132,-699.5429 983.119,-626 1028.1143,-576.3928 1105.0197,-560.7556 1161.8518,-556.3863"/>
<polygon fill="#000000" stroke="#000000" points="1162.1165,-559.8765 1171.8603,-555.7162 1161.6488,-552.8921 1162.1165,-559.8765"/>
<text text-anchor="start" x="1002.85" y="-629" font-family="Helvetica,sans-Serif" font-size="10.00" fill="#000000">navigate_admin_users &#160;&#160;</text>
</g>
<!-- admin_page&#45;&gt;admin_groups_page -->
<g id="edge61" class="edge">
<title>admin_page&#45;&gt;admin_groups_page</title>
<path fill="none" stroke="#000000" d="M902.9258,-1111.8417C911.2516,-1030.0396 947.0535,-698.5467 983.119,-671 1038.1757,-628.9479 1121.5867,-642.5879 1176.9135,-658.972"/>
<polygon fill="#000000" stroke="#000000" points="1175.9762,-662.3454 1186.5633,-661.9414 1178.035,-655.655 1175.9762,-662.3454"/>
<text text-anchor="start" x="999.791" y="-674" font-family="Helvetica,sans-Serif" font-size="10.00" fill="#000000">navigate_admin_groups &#160;&#160;</text>
</g>
<!-- admin_page&#45;&gt;admin_permissions_page -->
<g id="edge62" class="edge">
<title>admin_page&#45;&gt;admin_permissions_page</title>
<path fill="none" stroke="#000000" d="M904.062,-1111.894C913.4545,-1056.2976 944.3834,-889.5943 983.119,-853 1026.0499,-812.4423 1091.4055,-798.0229 1144.6487,-793.57"/>
<polygon fill="#000000" stroke="#000000" points="1145.0648,-797.049 1154.7829,-792.8289 1144.5542,-790.0677 1145.0648,-797.049"/>
<text text-anchor="start" x="988.4075" y="-856" font-family="Helvetica,sans-Serif" font-size="10.00" fill="#000000">navigate_admin_permissions &#160;&#160;</text>
</g>
<!-- admin_page&#45;&gt;admin_locks_page -->
<g id="edge63" class="edge">
<title>admin_page&#45;&gt;admin_locks_page</title>
<path fill="none" stroke="#000000" d="M944.7757,-1111.9046C957.1182,-1106.9323 970.599,-1101.636 983.119,-1097 1045.5121,-1073.8963 1117.511,-1049.7587 1168.3312,-1033.1347"/>
<polygon fill="#000000" stroke="#000000" points="1169.4645,-1036.4466 1177.8849,-1030.0164 1167.2925,-1029.7921 1169.4645,-1036.4466"/>
<text text-anchor="start" x="1003.6845" y="-1100" font-family="Helvetica,sans-Serif" font-size="10.00" fill="#000000">navigate_admin_locks &#160;&#160;</text>
</g>
<!-- admin_page&#45;&gt;admin_alarms_page -->
<g id="edge64" class="edge">
<title>admin_page&#45;&gt;admin_alarms_page</title>
<path fill="none" stroke="#000000" d="M909.4051,-1148.0276C921.6227,-1172.1517 946.9926,-1213.8804 983.119,-1231 1037.7329,-1256.8804 1106.8442,-1254.1193 1158.6948,-1246.1612"/>
<polygon fill="#000000" stroke="#000000" points="1159.52,-1249.5729 1168.8253,-1244.5072 1158.392,-1242.6644 1159.52,-1249.5729"/>
<text text-anchor="start" x="1000.076" y="-1254" font-family="Helvetica,sans-Serif" font-size="10.00" fill="#000000">navigate_admin_alarms &#160;&#160;</text>
</g>
<!-- admin_page&#45;&gt;admin_sessions_page -->
<g id="edge65" class="edge">
<title>admin_page&#45;&gt;admin_sessions_page</title>
<path fill="none" stroke="#000000" d="M907.3099,-1148.4532C918.1028,-1177.8954 943.1089,-1235.4833 983.119,-1268 1032.0446,-1307.7624 1100.4054,-1329.5927 1153.4143,-1341.2981"/>
<polygon fill="#000000" stroke="#000000" points="1152.9532,-1344.7783 1163.4629,-1343.4373 1154.4108,-1337.9318 1152.9532,-1344.7783"/>
<text text-anchor="start" x="995.6255" y="-1338" font-family="Helvetica,sans-Serif" font-size="10.00" fill="#000000">navigate_admin_sessions &#160;&#160;</text>
</g>
<!-- admin_page&#45;&gt;admin_php_shell_page -->
<g id="edge66" class="edge">
<title>admin_page&#45;&gt;admin_php_shell_page</title>
<path fill="none" stroke="#000000" d="M902.2447,-1148.0022C906.7275,-1212.2521 925.9315,-1427.9 983.119,-1455 1038.1577,-1481.0817 1107.8654,-1476.007 1159.8269,-1466.019"/>
<polygon fill="#000000" stroke="#000000" points="1160.5359,-1469.4465 1169.6437,-1464.0336 1159.1483,-1462.5854 1160.5359,-1469.4465"/>
<text text-anchor="start" x="993.6775" y="-1477" font-family="Helvetica,sans-Serif" font-size="10.00" fill="#000000">navigate_admin_php_shell &#160;&#160;</text>
</g>
<!-- admin_page&#45;&gt;admin_sql_shell_page -->
<g id="edge67" class="edge">
<title>admin_page&#45;&gt;admin_sql_shell_page</title>
<path fill="none" stroke="#000000" d="M902.675,-1148.2811C908.7096,-1214.7562 932.7731,-1442.2874 983.119,-1491 1027.806,-1534.2373 1098.3336,-1546.3806 1153.2455,-1548.4824"/>
<polygon fill="#000000" stroke="#000000" points="1153.2134,-1551.9827 1163.3072,-1548.7632 1153.4088,-1544.9855 1153.2134,-1551.9827"/>
<text text-anchor="start" x="995.627" y="-1550" font-family="Helvetica,sans-Serif" font-size="10.00" fill="#000000">navigate_admin_sql_shell &#160;&#160;</text>
</g>
<!-- admin_page&#45;&gt;admin_cli_page -->
<g id="edge68" class="edge">
<title>admin_page&#45;&gt;admin_cli_page</title>
<path fill="none" stroke="#000000" d="M904.6732,-1111.7892C914.9462,-1061.2326 946.3033,-921.1463 983.119,-895 1041.0392,-853.8654 1126.697,-871.8954 1181.4253,-890.4936"/>
<polygon fill="#000000" stroke="#000000" points="1180.3412,-893.8224 1190.936,-893.8371 1182.6628,-887.2186 1180.3412,-893.8224"/>
<text text-anchor="start" x="1010.3545" y="-898" font-family="Helvetica,sans-Serif" font-size="10.00" fill="#000000">navigate_admin_cli &#160;&#160;</text>
</g>
<!-- event_edit&#45;&gt;calendar_page -->
<g id="edge39" class="edge">
<title>event_edit&#45;&gt;calendar_page</title>
<path fill="none" stroke="#000000" d="M1195.4493,-2014C1138.1181,-2014 1029.8578,-2014 961.8238,-2014"/>
<polygon fill="#000000" stroke="#000000" points="961.6766,-2010.5001 951.6766,-2014 961.6766,-2017.5001 961.6766,-2010.5001"/>
<text text-anchor="start" x="1024.517" y="-2017" font-family="Helvetica,sans-Serif" font-size="10.00" fill="#000000">delete_event &#160;&#160;</text>
</g>
<!-- event_edit&#45;&gt;calendar_page -->
<g id="edge40" class="edge">
<title>event_edit&#45;&gt;calendar_page</title>
<path fill="none" stroke="#000000" d="M1195.2504,-2021.9709C1176.1491,-2025.5044 1152.7143,-2029.2528 1131.501,-2031 1065.776,-2036.4134 1048.7224,-2037.7288 983.119,-2031 976.3169,-2030.3023 969.2465,-2029.2872 962.2359,-2028.0949"/>
<polygon fill="#000000" stroke="#000000" points="962.5112,-2024.5875 952.0457,-2026.2374 961.2559,-2031.474 962.5112,-2024.5875"/>
<text text-anchor="start" x="1027.5815" y="-2038" font-family="Helvetica,sans-Serif" font-size="10.00" fill="#000000">write_event &#160;&#160;</text>
</g>
<!-- event_compose&#45;&gt;calendar_page -->
<g id="edge41" class="edge">
<title>event_compose&#45;&gt;calendar_page</title>
<path fill="none" stroke="#000000" d="M1180.9808,-2093.5935C1128.7082,-2106.106 1047.5275,-2117.7406 983.119,-2092 957.0131,-2081.5669 934.4729,-2058.4291 919.668,-2040.0481"/>
<polygon fill="#000000" stroke="#000000" points="922.3199,-2037.7563 913.4251,-2032.0002 916.7889,-2042.0469 922.3199,-2037.7563"/>
<text text-anchor="start" x="1027.5815" y="-2110" font-family="Helvetica,sans-Serif" font-size="10.00" fill="#000000">write_event &#160;&#160;</text>
</g>
<!-- ^logout?&#45;&gt;selecting_activity -->
<g id="edge5" class="edge">
<title>^logout?&#45;&gt;selecting_activity</title>
<path fill="none" stroke="#000000" d="M890.7047,-2249.5936C867.6359,-2244.481 810.427,-2233 761.874,-2233 225.017,-2233 225.017,-2233 225.017,-2233 212.4746,-2233 199.0914,-2233 186.2201,-2233"/>
<polygon fill="#000000" stroke="#000000" points="186.0333,-2229.5001 176.0333,-2233 186.0333,-2236.5001 186.0333,-2229.5001"/>
<text text-anchor="start" x="447.885" y="-2236" font-family="Helvetica,sans-Serif" font-size="10.00" fill="#000000">logout: [0.2] &#160;&#160;</text>
</g>
<!-- ^logout?&#45;&gt;selecting_activity -->
<g id="edge6" class="edge">
<title>^logout?&#45;&gt;selecting_activity</title>
<path fill="none" stroke="#000000" d="M891.1054,-2249.1527C878.0547,-2245.2532 854.7061,-2237.6246 836.119,-2228 800.5694,-2209.5919 801.9069,-2177 761.874,-2177 225.017,-2177 225.017,-2177 225.017,-2177 196.2234,-2177 167.6444,-2193.5394 147.5508,-2208.6412"/>
<polygon fill="#000000" stroke="#000000" points="145.1887,-2206.0458 139.4829,-2214.973 149.5104,-2211.5525 145.1887,-2206.0458"/>
<text text-anchor="start" x="450.384" y="-2180" font-family="Helvetica,sans-Serif" font-size="10.00" fill="#000000">noop: [0.8] &#160;&#160;</text>
</g>
<!-- ^logout?&#45;&gt;^logout? -->
<g id="edge1" class="edge">
<title>^logout?&#45;&gt;^logout?</title>
<path fill="none" stroke="transparent" d="M894.2932,-2257.7684C883.5156,-2269.8214 885.7909,-2286.5 901.119,-2286.5 912.9743,-2286.5 917.0214,-2276.5227 913.2602,-2266.4252"/>
<polygon fill="transparent" stroke="transparent" points="916.16,-2264.4589 907.9448,-2257.7684 910.1947,-2268.1216 916.16,-2264.4589"/>
<text text-anchor="start" x="884.7225" y="-2289.5" font-family="Helvetica,sans-Serif" font-size="10.00" fill="#000000">logout?</text>
</g>
<!-- ^opening_horde&#45;&gt;login_page -->
<g id="edge7" class="edge">
<title>^opening_horde&#45;&gt;login_page</title>
<path fill="none" stroke="#000000" d="M310.7401,-1824.5626C332.7365,-1813.0594 392.799,-1781.6492 434.6545,-1759.7605"/>
<polygon fill="#000000" stroke="#000000" points="436.3123,-1762.8433 443.5517,-1755.1076 433.0683,-1756.6403 436.3123,-1762.8433"/>
<text text-anchor="start" x="347.255" y="-1808" font-family="Helvetica,sans-Serif" font-size="10.00" fill="#000000">[not logged_in] &#160;&#160;</text>
</g>
<!-- ^opening_horde&#45;&gt;selecting_menu -->
<g id="edge8" class="edge">
<title>^opening_horde&#45;&gt;selecting_menu</title>
<path fill="none" stroke="#000000" d="M315.032,-1829C331.1561,-1829 359.7415,-1829 384.216,-1829 384.216,-1829 384.216,-1829 549.903,-1829 585.2927,-1829 609.9624,-1791.7094 623.2174,-1764.6108"/>
<polygon fill="#000000" stroke="#000000" points="626.5599,-1765.7216 627.5831,-1755.1762 620.2071,-1762.7819 626.5599,-1765.7216"/>
<text text-anchor="start" x="449.554" y="-1832" font-family="Helvetica,sans-Serif" font-size="10.00" fill="#000000">[logged_in] &#160;&#160;</text>
</g>
<!-- ^opening_horde&#45;&gt;^opening_horde -->
<g id="edge2" class="edge">
<title>^opening_horde&#45;&gt;^opening_horde</title>
<path fill="none" stroke="transparent" d="M297.8846,-1837.1421C293.6263,-1848.8948 295.0831,-1863.5 302.255,-1863.5 307.4658,-1863.5 309.6597,-1855.79 308.8366,-1847.0659"/>
<polygon fill="transparent" stroke="transparent" points="312.2165,-1846.1415 306.6254,-1837.1421 305.3841,-1847.664 312.2165,-1846.1415"/>
</g>
</g>
</svg>
